<?xml version="1.0" encoding="utf-8"?>
<!-- Generator: Adobe Illustrator 16.2.0, SVG Export Plug-In . SVG Version: 6.00 Build 0)  -->
<!DOCTYPE svg PUBLIC "-//W3C//DTD SVG 1.1//EN" "http://www.w3.org/Graphics/SVG/1.1/DTD/svg11.dtd">
<svg version="1.1" id="Layer_1" xmlns="http://www.w3.org/2000/svg" xmlns:xlink="http://www.w3.org/1999/xlink" x="0px" y="0px"
	 width="134.201px" height="134.357px" viewBox="0 0 134.201 134.357" enable-background="new 0 0 134.201 134.357"
	 xml:space="preserve">
<g>
	<g>
		<path fill="none" stroke="#25A8E0" stroke-width="4" stroke-miterlimit="10" d="M36.822,24.503L6.6,31.751
			c-3.209,0.77-5.205,4.025-4.435,7.234l21.288,88.772c0.77,3.209,4.025,5.205,7.234,4.436l84.507-20.266
			c3.209-0.77,5.271-3.755,4.58-6.634s-1.255-5.234-1.255-5.234"/>
	</g>
	<g>
		<g>
			<path fill="#25A8E0" d="M127.775,4c1.084,0,2.426,0.59,2.426,1.674v91.289c0,1.084-1.342,2.037-2.426,2.037H40.87
				c-1.084,0-1.669-0.953-1.669-2.037V5.674C39.201,4.59,39.786,4,40.87,4h87.331 M127.775,0H40.87c-3.3,0-5.669,2.374-5.669,5.674
				v91.289c0,3.3,2.369,6.037,5.669,6.037h86.905c3.3,0,6.426-2.737,6.426-6.037V5.674C134.201,2.374,131.075,0,127.775,0L127.775,0
				z"/>
		</g>
	</g>
	<g>
		<path fill="none" stroke="#25A8E0" stroke-width="4" stroke-miterlimit="10" d="M72.201,37.945c0-1.65,1.213-2.325,2.643-1.5
			l22.745,13.117c1.43,0.825,1.44,2.174,0.012,3l-22.764,13.12c-1.429,0.825-2.636,0.15-2.636-1.5V37.945z"/>
	</g>
	<g>
		<rect x="115.201" y="13" fill="#25A8E0" width="6" height="6"/>
		<rect x="115.201" y="25" fill="#25A8E0" width="6" height="6"/>
		<rect x="115.201" y="37" fill="#25A8E0" width="6" height="5"/>
		<rect x="115.201" y="48" fill="#25A8E0" width="6" height="6"/>
		<rect x="115.201" y="60" fill="#25A8E0" width="6" height="6"/>
		<rect x="115.201" y="72" fill="#25A8E0" width="6" height="6"/>
		<rect x="115.201" y="83" fill="#25A8E0" width="6" height="6"/>
	</g>
	<g>
		<rect x="47.201" y="13" fill="#25A8E0" width="6" height="6"/>
		<rect x="47.201" y="25" fill="#25A8E0" width="6" height="6"/>
		<rect x="47.201" y="37" fill="#25A8E0" width="6" height="5"/>
		<rect x="47.201" y="48" fill="#25A8E0" width="6" height="6"/>
		<rect x="47.201" y="60" fill="#25A8E0" width="6" height="6"/>
		<rect x="47.201" y="72" fill="#25A8E0" width="6" height="6"/>
		<rect x="47.201" y="83" fill="#25A8E0" width="6" height="6"/>
	</g>
</g>
</svg>
