<?xml version="1.0" encoding="utf-8"?>
<!-- Generator: Adobe Illustrator 16.2.0, SVG Export Plug-In . SVG Version: 6.00 Build 0)  -->
<!DOCTYPE svg PUBLIC "-//W3C//DTD SVG 1.1//EN" "http://www.w3.org/Graphics/SVG/1.1/DTD/svg11.dtd">
<svg version="1.1" id="Layer_1" xmlns="http://www.w3.org/2000/svg" xmlns:xlink="http://www.w3.org/1999/xlink" x="0px" y="0px"
	 width="167.4px" height="135.5px" viewBox="0 0 167.4 135.5" enable-background="new 0 0 167.4 135.5" xml:space="preserve">
<g>
	<path fill="none" stroke="#25A8E0" stroke-width="4" stroke-miterlimit="10" d="M133.4,69.5c-1.914,0-3.787,0.178-5.608,0.5H74.009
		c-1.822-0.322-3.694-0.5-5.608-0.5c-17.673,0-32,14.327-32,32s14.327,32,32,32c9.872,0,18.697-4.473,24.566-11.5h15.867
		c5.869,7.027,14.694,11.5,24.566,11.5c17.674,0,32-14.327,32-32S151.074,69.5,133.4,69.5z"/>
	<line fill="none" stroke="#25A8E0" stroke-width="6" stroke-miterlimit="10" x1="68" y1="88" x2="68" y2="116"/>
	<line fill="none" stroke="#25A8E0" stroke-width="6" stroke-miterlimit="10" x1="54" y1="102" x2="82" y2="102"/>
	<circle fill="#25A8E0" cx="134.567" cy="91.167" r="5.167"/>
	<circle fill="#25A8E0" cx="123.567" cy="102.167" r="5.167"/>
	<circle fill="#25A8E0" cx="144.567" cy="102.167" r="5.167"/>
	<circle fill="#25A8E0" cx="134.567" cy="112.167" r="5.167"/>
	<path fill="none" stroke="#25A8E0" stroke-width="4" stroke-miterlimit="10" d="M100.733,62.333C100.733,52.75,105.734,44,118.4,44
		c12.667,0,22.75,0,31,0s16-3.667,16-19"/>
	<g>
		<path fill="none" stroke="#25A8E0" stroke-width="4" stroke-miterlimit="10" d="M34,102H7.798C4.499,102,2,99.263,2,95.963V7.5
			C2,4.2,4.499,2,7.798,2H75.4C78.7,2,81,4.2,81,7.5V69"/>
	</g>
	<line fill="none" stroke="#25A8E0" stroke-width="4" stroke-miterlimit="10" x1="13" y1="19" x2="69" y2="19"/>
	<line fill="none" stroke="#25A8E0" stroke-width="4" stroke-miterlimit="10" x1="13" y1="33" x2="69" y2="33"/>
	<line fill="none" stroke="#25A8E0" stroke-width="4" stroke-miterlimit="10" x1="13" y1="47" x2="69" y2="47"/>
	<line fill="none" stroke="#25A8E0" stroke-width="4" stroke-miterlimit="10" x1="13" y1="61" x2="33" y2="61"/>
</g>
</svg>
