<?xml version="1.0" encoding="utf-8"?>
<!-- Generator: Adobe Illustrator 16.2.0, SVG Export Plug-In . SVG Version: 6.00 Build 0)  -->
<!DOCTYPE svg PUBLIC "-//W3C//DTD SVG 1.1//EN" "http://www.w3.org/Graphics/SVG/1.1/DTD/svg11.dtd">
<svg version="1.1" id="Layer_1" xmlns="http://www.w3.org/2000/svg" xmlns:xlink="http://www.w3.org/1999/xlink" x="0px" y="0px"
	 width="146px" height="105.417px" viewBox="0 0 146 105.417" enable-background="new 0 0 146 105.417" xml:space="preserve">
<g>
	<g>
		<path fill="#349ED8" d="M123.365,63.99c0.008,0.007,0.015,0.017,0.023,0.022c0.731,0.578,7.531,5.652,12.561,7.33
			c5.699,1.901,6.051,9.881,6.051,9.961v2.113h-20.87c0.721,1,1.353,3,1.892,4H146v-6.113c0-0.436-0.538-10.727-8.73-13.455
			c-3.641-1.217-8.684-4.689-10.561-6.104C125.76,62.644,124.496,63.407,123.365,63.99z"/>
		<path fill="#349ED8" d="M111.656,63.988c-1.129-0.583-2.17-1.346-3.12-2.243c-1.886,1.421-6.704,4.89-10.341,6.104
			c-1.14,0.379-2.117,0.909-2.965,1.535c1.473,0.679,2.934,1.291,4.385,1.866c4.818-1.696,10.824-6.298,11.997-7.218
			C111.629,64.019,111.641,64.002,111.656,63.988z"/>
		<path fill="#349ED8" d="M117.514,67.411c7.723,0,13.547-7.334,13.547-17.061c0-7.278-1.609-14.719-13.547-14.719
			c-11.941,0-13.552,7.441-13.552,14.719C103.962,60.077,109.788,67.411,117.514,67.411z M117.514,39.311
			c7.376,0,9.865,2.786,9.865,11.04c0,6.486-3.457,13.379-9.865,13.379c-6.41,0-9.869-6.893-9.869-13.379
			C107.645,42.097,110.135,39.311,117.514,39.311z"/>
	</g>
	<g>
		<path fill="#349ED8" d="M22.094,63.991c-0.008,0.007-0.014,0.016-0.023,0.022c-0.731,0.577-7.261,5.652-12.29,7.33
			C4.082,73.245,4,81.224,4,81.305v2.112h20.33c-0.721,1-1.353,3-1.891,4H0v-6.112c0-0.437,0.268-10.727,8.46-13.456
			c3.641-1.217,8.549-4.688,10.425-6.103C19.835,62.645,20.964,63.407,22.094,63.991z"/>
		<path fill="#349ED8" d="M33.803,63.989c1.13-0.584,2.171-1.346,3.121-2.244c1.886,1.422,6.705,4.891,10.341,6.104
			c1.14,0.38,2.118,0.91,2.965,1.535c-1.473,0.68-2.935,1.291-4.385,1.867c-4.818-1.697-10.824-6.299-11.997-7.219
			C33.831,64.019,33.819,64.003,33.803,63.989z"/>
		<path fill="#349ED8" d="M27.946,67.411c-7.722,0-13.546-7.334-13.546-17.06c0-7.278,1.609-14.719,13.546-14.719
			c11.942,0,13.552,7.441,13.552,14.719C41.498,60.077,35.672,67.411,27.946,67.411z M27.946,39.312
			c-7.375,0-9.865,2.786-9.865,11.04c0,6.486,3.457,13.379,9.865,13.379c6.411,0,9.87-6.894,9.87-13.379
			C37.815,42.097,35.325,39.312,27.946,39.312z"/>
	</g>
	<path fill="#349ED8" d="M86.348,51.629l-0.242,0.367C85.115,53.12,84,54.035,83,54.779v7.796l4-1.396v-9.994
		C86,51.438,86.378,51.584,86.348,51.629z"/>
	<path fill="#349ED8" d="M59.792,52.087l0.113-0.357C59.872,51.68,60,51.521,60,51.247v9.884l3,1.381v-7.697
		C62,54.084,60.773,53.187,59.792,52.087z"/>
	<path fill="#349ED8" d="M90.661,70.366c3.776,1.945,9.849,4.375,13.22,5.658C115.225,80.335,122,83.167,122,99.037v2.38H24v-2.38
		c0-15.87,6.454-18.702,17.734-22.989c3.423-1.304,8.206-3.226,11.985-5.172l-1.706-2.242l1.043-1.631
		c-3.521,1.798-8.918,4.32-12.289,5.598C29.912,76.73,20,80.628,20,99.037v6.38h106v-6.38c0-18.407-10.231-22.306-21.083-26.434
		c-3.377-1.281-8.836-3.602-12.357-5.398l0.506,0.752L90.661,70.366z"/>
	<path fill="#349ED8" d="M72.678,62.047l-14.919-2.489l-6.187,9.272l11.375,11.374l9.73-4.867l9.731,4.867L93.783,68.83
		l-6.185-9.272L72.678,62.047z M85.855,63.585l3.188,4.775l-7.36,7.361l-9.005-4.5l-9.003,4.5l-7.361-7.361l3.187-4.775
		l13.177,2.195L85.855,63.585z"/>
	<rect x="71" y="92.417" fill="#349ED8" width="4" height="4"/>
	<rect x="71" y="84.417" fill="#349ED8" width="4" height="4"/>
	<path fill="#349ED8" d="M48.759,21.265v0.498c0-0.171,0.015-0.328,0.016-0.498H48.759z"/>
	<path fill="#349ED8" d="M96.599,21.265h-0.018c0.002,0.167,0.017,0.323,0.017,0.492L96.599,21.265z"/>
	<path fill="#349ED8" d="M95.21,17.417C93.49,5.773,85.938,0,72.678,0C59.418,0,51.866,5.773,50.147,17.417l-0.377,9l0.014,5.081
		c2.426,16.976,9.851,22.068,10.167,22.278l0.222,0.108c4.993,2.493,12.201,2.513,12.506,2.513c0.305,0,7.514-0.033,12.534-2.541
		l0.223-0.133c0.287-0.193,7.717-5.275,10.144-22.256l0.01-5.051L95.21,17.417z M72.878,3.53C84.49,3.53,90,8.075,92,18.073v2.705
		l-7.497,3.65l-23.316-9.366L54,18.704v-0.115l-0.007-0.048C55.203,8.212,61.086,3.53,72.878,3.53z M92,30.96
		c-2,14.167-7.827,19.105-8.473,19.622l-0.118,0.06c-4.247,2.037-10.653,2.06-10.718,2.06s-6.472-0.023-10.714-2.06l0.183-0.058
		C61.515,50.076,56,45.208,54,31.033v-4.616l0,0v-3.591l7.254-3.728l23.52,9.365L92,24.9v0.961v0.556V30.96z"/>
</g>
</svg>
