<?xml version="1.0" encoding="utf-8"?>
<!-- Generator: Adobe Illustrator 16.2.0, SVG Export Plug-In . SVG Version: 6.00 Build 0)  -->
<!DOCTYPE svg PUBLIC "-//W3C//DTD SVG 1.1//EN" "http://www.w3.org/Graphics/SVG/1.1/DTD/svg11.dtd">
<svg version="1.1" id="Layer_1" xmlns="http://www.w3.org/2000/svg" xmlns:xlink="http://www.w3.org/1999/xlink" x="0px" y="0px"
	 width="108px" height="124px" viewBox="0 0 108 124" enable-background="new 0 0 108 124" xml:space="preserve">
<g>
	<g>
		<g>
			<path fill="#25A8E0" d="M101.641,4C102.725,4,104,4.758,104,5.842v105.024c0,1.084-1.275,2.134-2.359,2.134H6.498
				C5.414,113,4,111.95,4,110.866V5.842C4,4.758,5.414,4,6.498,4H102 M101.641,0H6.498C3.198,0,0,2.542,0,5.842v105.024
				c0,3.3,3.198,6.134,6.498,6.134h95.143c3.3,0,6.359-2.834,6.359-6.134V5.842C108,2.542,104.94,0,101.641,0L101.641,0z"/>
		</g>
	</g>
	<g>
		<g>
			<path fill="#25A8E0" d="M89.35,15c1.084,0,1.65,0.873,1.65,1.957v82.794c0,1.084-0.566,2.249-1.65,2.249H18.789
				C17.705,102,17,100.835,17,99.751V16.957C17,15.873,17.705,15,18.789,15H89 M89.35,11H18.789C15.489,11,13,13.657,13,16.957
				v82.794c0,3.3,2.489,6.249,5.789,6.249H89.35c3.3,0,5.65-2.949,5.65-6.249V16.957C95,13.657,92.649,11,89.35,11L89.35,11z"/>
		</g>
	</g>
	
		<line fill="none" stroke="#25A8E0" stroke-width="4" stroke-linecap="round" stroke-miterlimit="10" x1="25" y1="38" x2="25" y2="79"/>
	
		<line fill="none" stroke="#25A8E0" stroke-width="4" stroke-linecap="round" stroke-miterlimit="10" x1="88" y1="28" x2="97" y2="28"/>
	
		<line fill="none" stroke="#25A8E0" stroke-width="4" stroke-linecap="round" stroke-miterlimit="10" x1="88" y1="87" x2="97" y2="87"/>
	<g>
		<circle fill="none" stroke="#25A8E0" stroke-width="4" stroke-miterlimit="10" cx="54.069" cy="58.354" r="11.134"/>
		<g>
			
				<line fill="none" stroke="#25A8E0" stroke-width="4" stroke-linecap="round" stroke-miterlimit="10" x1="54" y1="42" x2="54" y2="47"/>
			
				<line fill="none" stroke="#25A8E0" stroke-width="4" stroke-linecap="round" stroke-miterlimit="10" x1="54" y1="70" x2="54" y2="74"/>
		</g>
		<g>
			
				<line fill="none" stroke="#25A8E0" stroke-width="4" stroke-linecap="round" stroke-miterlimit="10" x1="38" y1="58" x2="43" y2="58"/>
			
				<line fill="none" stroke="#25A8E0" stroke-width="4" stroke-linecap="round" stroke-miterlimit="10" x1="66" y1="58" x2="70" y2="58"/>
		</g>
		<g>
			
				<line fill="none" stroke="#25A8E0" stroke-width="4" stroke-linecap="round" stroke-miterlimit="10" x1="42.895" y1="69.25" x2="45.999" y2="66.145"/>
			
				<line fill="none" stroke="#25A8E0" stroke-width="4" stroke-linecap="round" stroke-miterlimit="10" x1="62.141" y1="50.003" x2="65.244" y2="46.899"/>
		</g>
		<g>
			
				<line fill="none" stroke="#25A8E0" stroke-width="4" stroke-linecap="round" stroke-miterlimit="10" x1="65.244" y1="69.249" x2="62.139" y2="66.146"/>
			
				<line fill="none" stroke="#25A8E0" stroke-width="4" stroke-linecap="round" stroke-miterlimit="10" x1="45.998" y1="50.004" x2="42.894" y2="46.899"/>
		</g>
	</g>
	<g>
		<path fill="none" stroke="#25A8E0" stroke-width="4" stroke-linecap="round" stroke-miterlimit="10" d="M17,115v4.167
			c0,1.65,1.848,2.833,3.498,2.833h5.414c1.65,0,3.088-1.183,3.088-2.833V115"/>
	</g>
	<g>
		<path fill="none" stroke="#25A8E0" stroke-width="4" stroke-linecap="round" stroke-miterlimit="10" d="M80,115v4.167
			c0,1.65,1.184,2.833,2.834,2.833h5.413c1.65,0,2.753-1.183,2.753-2.833V115"/>
	</g>
</g>
</svg>
