<?xml version="1.0" encoding="utf-8"?>
<!-- Generator: Adobe Illustrator 16.2.0, SVG Export Plug-In . SVG Version: 6.00 Build 0)  -->
<!DOCTYPE svg PUBLIC "-//W3C//DTD SVG 1.1//EN" "http://www.w3.org/Graphics/SVG/1.1/DTD/svg11.dtd">
<svg version="1.1" id="Layer_1" xmlns="http://www.w3.org/2000/svg" xmlns:xlink="http://www.w3.org/1999/xlink" x="0px" y="0px"
	 width="73px" height="72px" viewBox="0 0 73 72" enable-background="new 0 0 73 72" xml:space="preserve">
<g>
	<g>
		<g>
			<path fill="#FFFFFF" d="M71,68.5c0,1.381-1.119,2.5-2.5,2.5h-64C3.119,71,2,69.881,2,68.5v-65C2,2.119,3.119,1,4.5,1h64
				C69.881,1,71,2.119,71,3.5V68.5z"/>
		</g>
		<g>
			<g>
				<path fill="#010101" d="M68.693,2.742C69.236,2.742,70,2.493,70,3.034v64.814C70,68.392,69.412,69,68.869,69H4.396
					C3.854,69,3,68.392,3,67.849V3.034C3,2.493,3.854,3,4.396,3H69 M68.869,0H4.396C2.195,0,0,0.836,0,3.034v64.814
					C0,70.05,2.195,72,4.396,72h64.473C71.07,72,73,70.05,73,67.849V3.034C73,0.836,71.07,0,68.869,0L68.869,0z"/>
			</g>
		</g>
	</g>
	<g>
		<rect x="27" y="27" fill="#FFFFFF" width="18" height="18"/>
		<path fill="#010101" d="M47,46H26V25h21V46z M29,43h15V28H29V43z"/>
	</g>
	<g>
		<g>
			<rect x="8" y="7" fill="#010101" width="3" height="3"/>
		</g>
		<g>
			<rect x="8" y="13" fill="#010101" width="3" height="3"/>
		</g>
		<g>
			<rect x="8" y="19" fill="#010101" width="3" height="3"/>
		</g>
		<g>
			<rect x="8" y="25" fill="#010101" width="3" height="3"/>
		</g>
		<g>
			<rect x="8" y="31" fill="#010101" width="3" height="3"/>
		</g>
		<g>
			<rect x="8" y="37" fill="#010101" width="3" height="3"/>
		</g>
		<g>
			<rect x="8" y="43" fill="#010101" width="3" height="3"/>
		</g>
		<g>
			<rect x="8" y="49" fill="#010101" width="3" height="3"/>
		</g>
		<g>
			<rect x="8" y="55" fill="#010101" width="3" height="3"/>
		</g>
		<g>
			<rect x="8" y="61" fill="#010101" width="3" height="3"/>
		</g>
	</g>
	<g>
		<g>
			<rect x="14" y="7" fill="#010101" width="3" height="3"/>
		</g>
		<g>
			<rect x="14" y="13" fill="#010101" width="3" height="3"/>
		</g>
		<g>
			<rect x="14" y="19" fill="#010101" width="3" height="3"/>
		</g>
		<g>
			<rect x="14" y="25" fill="#010101" width="3" height="3"/>
		</g>
		<g>
			<rect x="14" y="31" fill="#010101" width="3" height="3"/>
		</g>
		<g>
			<rect x="14" y="37" fill="#010101" width="3" height="3"/>
		</g>
		<g>
			<rect x="14" y="43" fill="#010101" width="3" height="3"/>
		</g>
		<g>
			<rect x="14" y="49" fill="#010101" width="3" height="3"/>
		</g>
		<g>
			<rect x="14" y="55" fill="#010101" width="3" height="3"/>
		</g>
		<g>
			<rect x="14" y="61" fill="#010101" width="3" height="3"/>
		</g>
	</g>
	<g>
		<g>
			<rect x="20" y="7" fill="#010101" width="3" height="3"/>
		</g>
		<g>
			<rect x="20" y="13" fill="#010101" width="3" height="3"/>
		</g>
		<g>
			<rect x="20" y="19" fill="#010101" width="3" height="3"/>
		</g>
		<g>
			<rect x="20" y="25" fill="#010101" width="3" height="3"/>
		</g>
		<g>
			<rect x="20" y="31" fill="#010101" width="3" height="3"/>
		</g>
		<g>
			<rect x="20" y="37" fill="#010101" width="3" height="3"/>
		</g>
		<g>
			<rect x="20" y="43" fill="#010101" width="3" height="3"/>
		</g>
		<g>
			<rect x="20" y="49" fill="#010101" width="3" height="3"/>
		</g>
		<g>
			<rect x="20" y="55" fill="#010101" width="3" height="3"/>
		</g>
		<g>
			<rect x="20" y="61" fill="#010101" width="3" height="3"/>
		</g>
	</g>
	<g>
		<g>
			<rect x="26" y="7" fill="#010101" width="3" height="3"/>
		</g>
		<g>
			<rect x="26" y="13" fill="#010101" width="3" height="3"/>
		</g>
		<g>
			<rect x="26" y="19" fill="#010101" width="3" height="3"/>
		</g>
		<g>
			<rect x="26" y="49" fill="#010101" width="3" height="3"/>
		</g>
		<g>
			<rect x="26" y="55" fill="#010101" width="3" height="3"/>
		</g>
		<g>
			<rect x="26" y="61" fill="#010101" width="3" height="3"/>
		</g>
	</g>
	<g>
		<g>
			<rect x="32" y="7" fill="#010101" width="3" height="3"/>
		</g>
		<g>
			<rect x="32" y="13" fill="#010101" width="3" height="3"/>
		</g>
		<g>
			<rect x="32" y="19" fill="#010101" width="3" height="3"/>
		</g>
		<g>
			<rect x="32" y="49" fill="#010101" width="3" height="3"/>
		</g>
		<g>
			<rect x="32" y="55" fill="#010101" width="3" height="3"/>
		</g>
		<g>
			<rect x="32" y="61" fill="#010101" width="3" height="3"/>
		</g>
	</g>
	<g>
		<g>
			<rect x="38" y="7" fill="#010101" width="3" height="3"/>
		</g>
		<g>
			<rect x="38" y="13" fill="#010101" width="3" height="3"/>
		</g>
		<g>
			<rect x="38" y="19" fill="#010101" width="3" height="3"/>
		</g>
		<g>
			<rect x="38" y="49" fill="#010101" width="3" height="3"/>
		</g>
		<g>
			<rect x="38" y="55" fill="#010101" width="3" height="3"/>
		</g>
		<g>
			<rect x="38" y="61" fill="#010101" width="3" height="3"/>
		</g>
	</g>
	<g>
		<g>
			<rect x="44" y="7" fill="#010101" width="3" height="3"/>
		</g>
		<g>
			<rect x="44" y="13" fill="#010101" width="3" height="3"/>
		</g>
		<g>
			<rect x="44" y="19" fill="#010101" width="3" height="3"/>
		</g>
		<g>
			<rect x="44" y="49" fill="#010101" width="3" height="3"/>
		</g>
		<g>
			<rect x="44" y="55" fill="#010101" width="3" height="3"/>
		</g>
		<g>
			<rect x="44" y="61" fill="#010101" width="3" height="3"/>
		</g>
	</g>
	<g>
		<g>
			<rect x="50" y="7" fill="#010101" width="3" height="3"/>
		</g>
		<g>
			<rect x="50" y="13" fill="#010101" width="3" height="3"/>
		</g>
		<g>
			<rect x="50" y="19" fill="#010101" width="3" height="3"/>
		</g>
		<g>
			<rect x="50" y="25" fill="#010101" width="3" height="3"/>
		</g>
		<g>
			<rect x="50" y="31" fill="#010101" width="3" height="3"/>
		</g>
		<g>
			<rect x="50" y="37" fill="#010101" width="3" height="3"/>
		</g>
		<g>
			<rect x="50" y="43" fill="#010101" width="3" height="3"/>
		</g>
		<g>
			<rect x="50" y="49" fill="#010101" width="3" height="3"/>
		</g>
		<g>
			<rect x="50" y="55" fill="#010101" width="3" height="3"/>
		</g>
		<g>
			<rect x="50" y="61" fill="#010101" width="3" height="3"/>
		</g>
	</g>
	<g>
		<g>
			<rect x="56" y="7" fill="#010101" width="3" height="3"/>
		</g>
		<g>
			<rect x="56" y="13" fill="#010101" width="3" height="3"/>
		</g>
		<g>
			<rect x="56" y="19" fill="#010101" width="3" height="3"/>
		</g>
		<g>
			<rect x="56" y="25" fill="#010101" width="3" height="3"/>
		</g>
		<g>
			<rect x="56" y="31" fill="#010101" width="3" height="3"/>
		</g>
		<g>
			<rect x="56" y="37" fill="#010101" width="3" height="3"/>
		</g>
		<g>
			<rect x="56" y="43" fill="#010101" width="3" height="3"/>
		</g>
		<g>
			<rect x="56" y="49" fill="#010101" width="3" height="3"/>
		</g>
		<g>
			<rect x="56" y="55" fill="#010101" width="3" height="3"/>
		</g>
		<g>
			<rect x="56" y="61" fill="#010101" width="3" height="3"/>
		</g>
	</g>
	<g>
		<g>
			<rect x="62" y="7" fill="#010101" width="3" height="3"/>
		</g>
		<g>
			<rect x="62" y="13" fill="#010101" width="3" height="3"/>
		</g>
		<g>
			<rect x="62" y="19" fill="#010101" width="3" height="3"/>
		</g>
		<g>
			<rect x="62" y="25" fill="#010101" width="3" height="3"/>
		</g>
		<g>
			<rect x="62" y="31" fill="#010101" width="3" height="3"/>
		</g>
		<g>
			<rect x="62" y="37" fill="#010101" width="3" height="3"/>
		</g>
		<g>
			<rect x="62" y="43" fill="#010101" width="3" height="3"/>
		</g>
		<g>
			<rect x="62" y="49" fill="#010101" width="3" height="3"/>
		</g>
		<g>
			<rect x="62" y="55" fill="#010101" width="3" height="3"/>
		</g>
		<g>
			<rect x="62" y="61" fill="#010101" width="3" height="3"/>
		</g>
	</g>
</g>
</svg>
