<?xml version="1.0" encoding="utf-8"?>
<!-- Generator: Adobe Illustrator 16.2.0, SVG Export Plug-In . SVG Version: 6.00 Build 0)  -->
<!DOCTYPE svg PUBLIC "-//W3C//DTD SVG 1.1//EN" "http://www.w3.org/Graphics/SVG/1.1/DTD/svg11.dtd">
<svg version="1.1" id="Layer_1" xmlns="http://www.w3.org/2000/svg" xmlns:xlink="http://www.w3.org/1999/xlink" x="0px" y="0px"
	 width="88px" height="55px" viewBox="0 0 88 55" enable-background="new 0 0 88 55" xml:space="preserve">
<g>
	<g>
		<g>
			<rect x="69" y="31" fill="#FFFFFF" width="8" height="7"/>
		</g>
		<g>
			<g>
				<path fill="#FFFFFF" d="M78,30v6.849c0,1.1-0.404,2.151-1.504,2.151H69"/>
			</g>
			<g>
				<path fill="#010101" d="M76.496,41H69v-3h7.496C76.775,38,77,37.11,77,36.849V30h3v6.849C80,38.753,78.422,41,76.496,41z"/>
			</g>
		</g>
		<g>
			<g>
				<path fill="#FFFFFF" d="M87,27.5c0,1.381-1.119,2.5-2.5,2.5h-63c-1.381,0-2.5-1.119-2.5-2.5v-23C19,3.119,20.119,2,21.5,2h63
					C85.881,2,87,3.119,87,4.5V27.5z"/>
			</g>
			<g>
				<g>
					<path fill="#010101" d="M84.488,2.742c0.541,0,0.512,0.69,0.512,1.231v23.48C85,27.997,85.205,29,84.664,29h-12h-8h-42.5
						C21.621,29,21,27.997,21,27.454v-9.477v-8V3.974C21,3.433,21.621,3,22.164,3H84 M84.664,0h-62.5C19.963,0,18,1.774,18,3.974
						v6.004c0,2.199,0,5.799,0,8v9.477C18,29.655,19.963,32,22.164,32h42.5c2.199,0,5.799,0,8,0h12C86.863,32,88,29.655,88,27.454
						V3.974C88,1.774,86.863,0,84.664,0L84.664,0z"/>
				</g>
			</g>
		</g>
		<g>
			<g>
				<path fill="#FFFFFF" d="M79,21.985C79,22.263,78.953,23,78.676,23h-51C27.4,23,27,22.263,27,21.985v-12
					C27,9.71,27.4,10,27.676,10h51C78.953,10,79,9.71,79,9.985V21.985z"/>
			</g>
			<g>
				<g>
					<path fill="#010101" d="M77,11v10H29V11H77 M78.635,8H27.951C26.852,8,26,8.679,26,9.778V21.55c0,1.1,0.852,2.45,1.951,2.45
						h50.684c1.1,0,1.365-1.351,1.365-2.45V9.778C80,8.679,79.734,8,78.635,8L78.635,8z"/>
				</g>
			</g>
		</g>
	</g>
	<g>
		<g>
			<g>
				<path fill="#FFFFFF" d="M60,44v6.849c0,1.1-0.404,2.151-1.504,2.151H12.664C11.564,53,10,51.948,10,50.849V44"/>
			</g>
			<g>
				<path fill="#010101" d="M58.496,55H12.664C10.773,55,9,52.821,9,50.849V44h3v6.849C12,51.177,12.451,52,12.664,52h45.832
					C58.775,52,59,51.11,59,50.849V44h3v6.849C62,52.753,60.422,55,58.496,55z"/>
			</g>
		</g>
		<g>
			<g>
				<path fill="#FFFFFF" d="M69,41.5c0,1.381-1.119,2.5-2.5,2.5h-63C2.119,44,1,42.881,1,41.5v-23C1,17.119,2.119,16,3.5,16h63
					c1.381,0,2.5,1.119,2.5,2.5V41.5z"/>
			</g>
			<g>
				<g>
					<path fill="#010101" d="M66.488,16.742c0.541,0,0.512,0.69,0.512,1.231v23.48C67,41.997,67.205,43,66.664,43h-62.5
						C3.621,43,3,41.997,3,41.454v-23.48C3,17.433,3.621,17,4.164,17H66 M66.664,14h-62.5C1.963,14,0,15.774,0,17.974v23.48
						C0,43.655,1.963,46,4.164,46h62.5C68.863,46,70,43.655,70,41.454v-23.48C70,15.774,68.863,14,66.664,14L66.664,14z"/>
				</g>
			</g>
		</g>
		<g>
			<g>
				<path fill="#FFFFFF" d="M61,35.985C61,36.263,60.953,37,60.676,37h-21C39.4,37,39,36.263,39,35.985v-12
					C39,23.71,39.4,24,39.676,24h21C60.953,24,61,23.71,61,23.985V35.985z"/>
			</g>
			<g>
				<g>
					<path fill="#010101" d="M59,25v10H41V25H59 M60.631,22H39.947C38.848,22,38,22.679,38,23.778V35.55
						c0,1.1,0.848,2.45,1.947,2.45h20.684C61.73,38,62,36.649,62,35.55V23.778C62,22.679,61.73,22,60.631,22L60.631,22z"/>
				</g>
			</g>
		</g>
		<g>
			<g>
				<path fill="#FFFFFF" d="M32,35.985C32,36.263,31.953,37,31.676,37h-22C9.4,37,9,36.263,9,35.985v-12C9,23.71,9.4,24,9.676,24h22
					C31.953,24,32,23.71,32,23.985V35.985z"/>
			</g>
			<g>
				<g>
					<path fill="#010101" d="M30,25v10H11V25H30 M31.664,22H9.947C8.848,22,8,22.679,8,23.778V35.55C8,36.649,8.848,38,9.947,38
						h21.717c1.1,0,1.336-1.351,1.336-2.45V23.778C33,22.679,32.764,22,31.664,22L31.664,22z"/>
				</g>
			</g>
		</g>
		<g>
			<g>
				<line fill="#FFFFFF" x1="50" y1="45" x2="50" y2="53"/>
				<rect x="49" y="45" fill="#010101" width="3" height="8"/>
			</g>
		</g>
		<g>
			<g>
				<line fill="#FFFFFF" x1="40" y1="45" x2="40" y2="53"/>
				<rect x="39" y="45" fill="#010101" width="3" height="8"/>
			</g>
		</g>
		<g>
			<g>
				<line fill="#FFFFFF" x1="30" y1="45" x2="30" y2="53"/>
				<rect x="29" y="45" fill="#010101" width="3" height="8"/>
			</g>
		</g>
		<g>
			<g>
				<line fill="#FFFFFF" x1="20" y1="45" x2="20" y2="53"/>
				<rect x="19" y="45" fill="#010101" width="3" height="8"/>
			</g>
		</g>
	</g>
</g>
</svg>
