<?xml version="1.0" encoding="utf-8"?>
<!-- Generator: Adobe Illustrator 16.2.0, SVG Export Plug-In . SVG Version: 6.00 Build 0)  -->
<!DOCTYPE svg PUBLIC "-//W3C//DTD SVG 1.1//EN" "http://www.w3.org/Graphics/SVG/1.1/DTD/svg11.dtd">
<svg version="1.1" id="Layer_1" xmlns="http://www.w3.org/2000/svg" xmlns:xlink="http://www.w3.org/1999/xlink" x="0px" y="0px"
	 width="74px" height="74px" viewBox="0 0 74 74" enable-background="new 0 0 74 74" xml:space="preserve">
<g>
	<g>
		<g>
			<path fill="#FFFFFF" d="M65,63.5c0,1.381-1.119,2.5-2.5,2.5h-52C9.119,66,8,64.881,8,63.5v-52C8,10.119,9.119,9,10.5,9h52
				c1.381,0,2.5,1.119,2.5,2.5V63.5z"/>
		</g>
		<g>
			<g>
				<path fill="#010101" d="M63.033,9.742c0.541,0,0.967,0.517,0.967,1.06v52.045C64,63.39,63.75,64,63.209,64H11.162
					C10.621,64,10,63.39,10,62.847V10.802C10,10.259,10.621,10,11.162,10H63 M63.209,7H11.162C8.963,7,7,8.601,7,10.802v52.045
					C7,65.048,8.963,67,11.162,67h52.047C65.408,67,67,65.048,67,62.847V10.802C67,8.601,65.408,7,63.209,7L63.209,7z"/>
			</g>
		</g>
	</g>
	<g>
		<g>
			<path fill="#FFFFFF" d="M56,54.5c0,1.381-1.119,2.5-2.5,2.5h-33c-1.381,0-2.5-1.119-2.5-2.5v-33c0-1.381,1.119-2.5,2.5-2.5h33
				c1.381,0,2.5,1.119,2.5,2.5V54.5z"/>
		</g>
		<g>
			<g>
				<path fill="#010101" d="M53.297,19.742c0.543,0,0.703,0.251,0.703,0.792v32.58C54,53.655,54.016,55,53.473,55H20.896
					C20.354,55,20,53.655,20,53.114v-32.58C20,19.993,20.354,20,20.896,20H53 M53.473,17H20.896C18.695,17,17,18.336,17,20.534
					v32.58C17,55.313,18.695,58,20.896,58h32.576C55.674,58,57,55.313,57,53.114v-32.58C57,18.336,55.674,17,53.473,17L53.473,17z"
					/>
			</g>
		</g>
	</g>
	<g>
		<g>
			<g>
				<line fill="#FFFFFF" x1="67" y1="17" x2="74" y2="17"/>
				<rect x="67" y="15" fill="#010101" width="7" height="3"/>
			</g>
		</g>
		<g>
			<g>
				<line fill="#FFFFFF" x1="67" y1="27" x2="74" y2="27"/>
				<rect x="67" y="25" fill="#010101" width="7" height="3"/>
			</g>
		</g>
		<g>
			<g>
				<line fill="#FFFFFF" x1="67" y1="37" x2="74" y2="37"/>
				<rect x="67" y="35" fill="#010101" width="7" height="3"/>
			</g>
		</g>
		<g>
			<g>
				<line fill="#FFFFFF" x1="67" y1="47" x2="74" y2="47"/>
				<rect x="67" y="45" fill="#010101" width="7" height="3"/>
			</g>
		</g>
		<g>
			<g>
				<line fill="#FFFFFF" x1="67" y1="57" x2="74" y2="57"/>
				<rect x="67" y="55" fill="#010101" width="7" height="3"/>
			</g>
		</g>
	</g>
	<g>
		<g>
			<g>
				<line fill="#FFFFFF" x1="0" y1="17" x2="7" y2="17"/>
				<rect y="15" fill="#010101" width="7" height="3"/>
			</g>
		</g>
		<g>
			<g>
				<line fill="#FFFFFF" x1="0" y1="27" x2="7" y2="27"/>
				<rect y="25" fill="#010101" width="7" height="3"/>
			</g>
		</g>
		<g>
			<g>
				<line fill="#FFFFFF" x1="0" y1="37" x2="7" y2="37"/>
				<rect y="35" fill="#010101" width="7" height="3"/>
			</g>
		</g>
		<g>
			<g>
				<line fill="#FFFFFF" x1="0" y1="47" x2="7" y2="47"/>
				<rect y="45" fill="#010101" width="7" height="3"/>
			</g>
		</g>
		<g>
			<g>
				<line fill="#FFFFFF" x1="0" y1="57" x2="7" y2="57"/>
				<rect y="55" fill="#010101" width="7" height="3"/>
			</g>
		</g>
	</g>
	<g>
		<g>
			<g>
				<line fill="#FFFFFF" x1="57" y1="0" x2="57" y2="7"/>
				<rect x="56" fill="#010101" width="3" height="7"/>
			</g>
		</g>
		<g>
			<g>
				<line fill="#FFFFFF" x1="47" y1="0" x2="47" y2="7"/>
				<rect x="46" fill="#010101" width="3" height="7"/>
			</g>
		</g>
		<g>
			<g>
				<line fill="#FFFFFF" x1="37" y1="0" x2="37" y2="7"/>
				<rect x="36" fill="#010101" width="3" height="7"/>
			</g>
		</g>
		<g>
			<g>
				<line fill="#FFFFFF" x1="27" y1="0" x2="27" y2="7"/>
				<rect x="26" fill="#010101" width="3" height="7"/>
			</g>
		</g>
		<g>
			<g>
				<line fill="#FFFFFF" x1="17" y1="0" x2="17" y2="7"/>
				<rect x="16" fill="#010101" width="3" height="7"/>
			</g>
		</g>
	</g>
	<g>
		<g>
			<g>
				<line fill="#FFFFFF" x1="57" y1="67" x2="57" y2="74"/>
				<rect x="56" y="67" fill="#010101" width="3" height="7"/>
			</g>
		</g>
		<g>
			<g>
				<line fill="#FFFFFF" x1="47" y1="67" x2="47" y2="74"/>
				<rect x="46" y="67" fill="#010101" width="3" height="7"/>
			</g>
		</g>
		<g>
			<g>
				<line fill="#FFFFFF" x1="37" y1="67" x2="37" y2="74"/>
				<rect x="36" y="67" fill="#010101" width="3" height="7"/>
			</g>
		</g>
		<g>
			<g>
				<line fill="#FFFFFF" x1="27" y1="67" x2="27" y2="74"/>
				<rect x="26" y="67" fill="#010101" width="3" height="7"/>
			</g>
		</g>
		<g>
			<g>
				<line fill="#FFFFFF" x1="17" y1="67" x2="17" y2="74"/>
				<rect x="16" y="67" fill="#010101" width="3" height="7"/>
			</g>
		</g>
	</g>
</g>
</svg>
