<?xml version="1.0" encoding="utf-8"?>
<!-- Generator: Adobe Illustrator 16.2.0, SVG Export Plug-In . SVG Version: 6.00 Build 0)  -->
<!DOCTYPE svg PUBLIC "-//W3C//DTD SVG 1.1//EN" "http://www.w3.org/Graphics/SVG/1.1/DTD/svg11.dtd">
<svg version="1.1" id="Layer_1" xmlns="http://www.w3.org/2000/svg" xmlns:xlink="http://www.w3.org/1999/xlink" x="0px" y="0px"
	 width="72px" height="51px" viewBox="0 0 72 51" enable-background="new 0 0 72 51" xml:space="preserve">
<g>
	<g>
		<path fill="#349ED8" d="M29.154,2.8C29.695,2.8,30,3.419,30,3.962v42.416C30,46.919,29.871,48,29.33,48H4.162
			C3.619,48,3,46.919,3,46.378V3.962C3,3.419,3.619,3,4.162,3H29 M29.33,0H4.162C1.961,0,0,1.761,0,3.962v42.416
			C0,48.577,1.961,51,4.162,51H29.33c2.2,0,3.67-2.423,3.67-4.622V3.962C33,1.761,31.53,0,29.33,0L29.33,0z"/>
	</g>
	<g>
		<path fill="#349ED8" d="M68.322,2.8C68.863,2.8,69,3.419,69,3.962v42.416C69,46.919,69.04,48,68.498,48H43.33
			C42.787,48,42,46.919,42,46.378V3.962C42,3.419,42.787,3,43.33,3H68 M68.498,0H43.33C41.129,0,39,1.761,39,3.962v42.416
			C39,48.577,41.129,51,43.33,51h25.168c2.2,0,3.502-2.423,3.502-4.622V3.962C72,1.761,70.698,0,68.498,0L68.498,0z"/>
	</g>
	<circle fill="#349ED8" cx="16.78" cy="10.724" r="2.11"/>
	<g>
		<path fill="#349ED8" d="M16.826,42.319c-6.227,0-11.293-5.066-11.293-11.295S10.6,19.729,16.826,19.729
			c6.229,0,11.297,5.066,11.297,11.295S23.055,42.319,16.826,42.319z M16.826,22.729c-4.572,0-8.293,3.721-8.293,8.295
			s3.721,8.295,8.293,8.295c4.574,0,8.297-3.721,8.297-8.295S21.4,22.729,16.826,22.729z"/>
	</g>
	<circle fill="#349ED8" cx="55.78" cy="10.724" r="2.11"/>
	<g>
		<path fill="#349ED8" d="M55.826,42.319c-6.227,0-11.293-5.066-11.293-11.295S49.6,19.729,55.826,19.729
			c6.229,0,11.297,5.066,11.297,11.295S62.055,42.319,55.826,42.319z M55.826,22.729c-4.572,0-8.293,3.721-8.293,8.295
			s3.721,8.295,8.293,8.295c4.574,0,8.297-3.721,8.297-8.295S60.4,22.729,55.826,22.729z"/>
	</g>
</g>
</svg>
