<?xml version="1.0" encoding="utf-8"?>
<!-- Generator: Adobe Illustrator 16.2.0, SVG Export Plug-In . SVG Version: 6.00 Build 0)  -->
<!DOCTYPE svg PUBLIC "-//W3C//DTD SVG 1.1//EN" "http://www.w3.org/Graphics/SVG/1.1/DTD/svg11.dtd">
<svg version="1.1" id="Layer_1" xmlns="http://www.w3.org/2000/svg" xmlns:xlink="http://www.w3.org/1999/xlink" x="0px" y="0px"
	 width="347px" height="321.222px" viewBox="0 0 347 321.222" enable-background="new 0 0 347 321.222" xml:space="preserve">
<g>
	<g>
		<path fill="#2BA9E0" d="M7.122,89.568h1.176v1.23h0.479c0.779,0,1.455,0.155,2.026,0.465c0.572,0.31,1.01,0.747,1.313,1.313
			c0.304,0.565,0.455,1.21,0.455,1.935c0,0.757-0.17,1.43-0.51,2.02c-0.339,0.591-0.804,1.034-1.395,1.33
			c-0.59,0.296-1.286,0.444-2.088,0.444h-0.28v1.538H7.122v-1.538H6.814c-0.802,0-1.497-0.15-2.085-0.451s-1.048-0.747-1.381-1.34
			S2.85,95.258,2.85,94.524c0-0.72,0.154-1.362,0.461-1.928c0.309-0.565,0.749-1.006,1.323-1.322
			c0.574-0.317,1.251-0.476,2.03-0.476h0.458V89.568z M7.122,91.797h-0.39c-0.829,0-1.482,0.241-1.959,0.725
			c-0.476,0.483-0.714,1.142-0.714,1.976c0,0.897,0.253,1.594,0.759,2.088c0.506,0.495,1.219,0.742,2.14,0.742h0.164V91.797z
			 M8.298,97.327h0.171c0.916,0,1.628-0.25,2.137-0.748c0.508-0.5,0.762-1.193,0.762-2.082c0-0.843-0.234-1.504-0.704-1.982
			s-1.126-0.718-1.969-0.718H8.298V97.327z"/>
		<path fill="#2BA9E0" d="M15.564,92.214v4.751l-0.048,1.244l-0.021,0.39l4.054-6.385h1.415v7.492h-1.06v-4.58l0.021-0.902
			l0.034-0.889l-4.047,6.371h-1.415v-7.492H15.564z"/>
		<path fill="#2BA9E0" d="M28.956,99.706h-1.148v-6.521h-2.249c-0.123,1.622-0.294,2.91-0.513,3.862s-0.503,1.649-0.851,2.092
			c-0.35,0.442-0.792,0.663-1.33,0.663c-0.246,0-0.442-0.027-0.588-0.082v-0.841c0.101,0.027,0.214,0.041,0.342,0.041
			c0.524,0,0.941-0.554,1.251-1.661s0.545-2.789,0.704-5.045h4.382V99.706z"/>
		<path fill="#2BA9E0" d="M32.497,95.311h2.311c1.914,0,2.871,0.704,2.871,2.112c0,0.738-0.25,1.304-0.748,1.695
			c-0.5,0.392-1.229,0.588-2.191,0.588h-3.377v-7.492h1.135V95.311z M32.497,96.288v2.468h2.188c0.602,0,1.062-0.104,1.381-0.314
			s0.479-0.526,0.479-0.95c0-0.415-0.146-0.719-0.441-0.912c-0.293-0.194-0.777-0.291-1.452-0.291H32.497z"/>
		<path fill="#2BA9E0" d="M43.537,98.612l0.212-0.636l0.294-0.807l2.03-4.942h1.442v7.479h-1.005V93.52l-0.137,0.396l-0.396,1.046
			l-1.935,4.744h-0.95l-1.935-4.758c-0.241-0.61-0.408-1.087-0.499-1.429v6.187h-1.012v-7.479h1.388l1.962,4.751
			C43.193,97.479,43.373,98.024,43.537,98.612z"/>
		<path fill="#2BA9E0" d="M51.07,95.311h2.044c0.952,0,1.657,0.177,2.116,0.53c0.457,0.353,0.687,0.88,0.687,1.582
			c0,0.752-0.243,1.32-0.728,1.705c-0.486,0.386-1.2,0.578-2.144,0.578h-3.11v-7.492h1.135V95.311z M51.07,96.288v2.468h1.921
			c1.203,0,1.805-0.422,1.805-1.265c0-0.419-0.139-0.725-0.417-0.916s-0.752-0.287-1.422-0.287H51.07z M58.31,99.706h-1.135v-7.492
			h1.135V99.706z"/>
		<path fill="#2BA9E0" d="M7.122,127.863h1.176v1.23h0.479c0.779,0,1.455,0.155,2.026,0.465c0.572,0.31,1.01,0.747,1.313,1.313
			c0.304,0.565,0.455,1.21,0.455,1.935c0,0.757-0.17,1.43-0.51,2.02c-0.339,0.591-0.804,1.034-1.395,1.33
			c-0.59,0.296-1.286,0.444-2.088,0.444h-0.28v1.538H7.122V136.6H6.814c-0.802,0-1.497-0.15-2.085-0.451s-1.048-0.747-1.381-1.34
			s-0.499-1.256-0.499-1.989c0-0.72,0.154-1.362,0.461-1.928c0.309-0.565,0.749-1.006,1.323-1.322
			c0.574-0.317,1.251-0.476,2.03-0.476h0.458V127.863z M7.122,130.092h-0.39c-0.829,0-1.482,0.241-1.959,0.725
			c-0.476,0.483-0.714,1.142-0.714,1.976c0,0.897,0.253,1.594,0.759,2.088c0.506,0.495,1.219,0.742,2.14,0.742h0.164V130.092z
			 M8.298,135.622h0.171c0.916,0,1.628-0.25,2.137-0.748c0.508-0.5,0.762-1.193,0.762-2.082c0-0.843-0.234-1.504-0.704-1.982
			s-1.126-0.718-1.969-0.718H8.298V135.622z"/>
		<path fill="#2BA9E0" d="M15.564,130.509v4.751l-0.048,1.244l-0.021,0.39l4.054-6.385h1.415v7.492h-1.06v-4.58l0.021-0.902
			l0.034-0.889l-4.047,6.371h-1.415v-7.492H15.564z"/>
		<path fill="#2BA9E0" d="M28.956,138.001h-1.148v-6.521h-2.249c-0.123,1.622-0.294,2.91-0.513,3.862s-0.503,1.649-0.851,2.092
			c-0.35,0.442-0.792,0.663-1.33,0.663c-0.246,0-0.442-0.027-0.588-0.082v-0.841c0.101,0.027,0.214,0.041,0.342,0.041
			c0.524,0,0.941-0.554,1.251-1.661s0.545-2.789,0.704-5.045h4.382V138.001z"/>
		<path fill="#2BA9E0" d="M32.497,133.605h2.311c1.914,0,2.871,0.704,2.871,2.112c0,0.738-0.25,1.304-0.748,1.695
			c-0.5,0.392-1.229,0.588-2.191,0.588h-3.377v-7.492h1.135V133.605z M32.497,134.583v2.468h2.188c0.602,0,1.062-0.104,1.381-0.314
			s0.479-0.526,0.479-0.95c0-0.415-0.146-0.719-0.441-0.912c-0.293-0.194-0.777-0.291-1.452-0.291H32.497z"/>
		<path fill="#2BA9E0" d="M43.537,136.907l0.212-0.636l0.294-0.807l2.03-4.942h1.442v7.479h-1.005v-6.187l-0.137,0.396l-0.396,1.046
			l-1.935,4.744h-0.95l-1.935-4.758c-0.241-0.61-0.408-1.087-0.499-1.429v6.187h-1.012v-7.479h1.388l1.962,4.751
			C43.193,135.774,43.373,136.319,43.537,136.907z"/>
		<path fill="#2BA9E0" d="M51.07,133.605h2.044c0.952,0,1.657,0.177,2.116,0.53c0.457,0.353,0.687,0.88,0.687,1.582
			c0,0.752-0.243,1.32-0.728,1.705c-0.486,0.386-1.2,0.578-2.144,0.578h-3.11v-7.492h1.135V133.605z M51.07,134.583v2.468h1.921
			c1.203,0,1.805-0.422,1.805-1.265c0-0.419-0.139-0.725-0.417-0.916s-0.752-0.287-1.422-0.287H51.07z M58.31,138.001h-1.135v-7.492
			h1.135V138.001z"/>
		<path fill="#010101" d="M10.69,190.656H9.282l-4.621-5.065v5.065H3.499v-9.994h1.162v4.84l4.505-4.84h1.333l-4.423,4.854
			L10.69,190.656z"/>
		<path fill="#010101" d="M16.501,190.656l-0.226-1.066h-0.055c-0.374,0.47-0.746,0.787-1.118,0.953
			c-0.371,0.167-0.835,0.25-1.391,0.25c-0.743,0-1.325-0.191-1.746-0.574c-0.422-0.383-0.633-0.928-0.633-1.634
			c0-1.513,1.21-2.306,3.63-2.379l1.271-0.041V185.7c0-0.588-0.126-1.022-0.38-1.302c-0.252-0.281-0.657-0.421-1.213-0.421
			c-0.624,0-1.331,0.191-2.119,0.574l-0.349-0.868c0.369-0.2,0.773-0.357,1.214-0.472c0.439-0.114,0.88-0.171,1.322-0.171
			c0.894,0,1.555,0.198,1.986,0.595c0.43,0.396,0.646,1.032,0.646,1.907v5.113H16.501z M13.938,189.856
			c0.706,0,1.261-0.193,1.665-0.581c0.402-0.388,0.604-0.93,0.604-1.627v-0.677l-1.135,0.048c-0.902,0.032-1.553,0.172-1.952,0.42
			c-0.398,0.249-0.598,0.635-0.598,1.159c0,0.41,0.124,0.723,0.373,0.937C13.144,189.749,13.491,189.856,13.938,189.856z"/>
		<path fill="#010101" d="M20.814,183.164v3.138h4.197v-3.138h1.135v7.492h-1.135v-3.377h-4.197v3.377H19.68v-7.492H20.814z"/>
		<path fill="#010101" d="M33.16,190.656l-0.226-1.066H32.88c-0.374,0.47-0.746,0.787-1.118,0.953
			c-0.371,0.167-0.835,0.25-1.391,0.25c-0.743,0-1.325-0.191-1.746-0.574c-0.422-0.383-0.633-0.928-0.633-1.634
			c0-1.513,1.21-2.306,3.63-2.379l1.271-0.041V185.7c0-0.588-0.126-1.022-0.38-1.302c-0.252-0.281-0.657-0.421-1.213-0.421
			c-0.624,0-1.331,0.191-2.119,0.574l-0.349-0.868c0.369-0.2,0.773-0.357,1.214-0.472c0.439-0.114,0.88-0.171,1.322-0.171
			c0.894,0,1.555,0.198,1.986,0.595c0.43,0.396,0.646,1.032,0.646,1.907v5.113H33.16z M30.597,189.856
			c0.706,0,1.261-0.193,1.665-0.581c0.402-0.388,0.604-0.93,0.604-1.627v-0.677l-1.135,0.048c-0.902,0.032-1.553,0.172-1.952,0.42
			c-0.398,0.249-0.598,0.635-0.598,1.159c0,0.41,0.124,0.723,0.373,0.937C29.803,189.749,30.15,189.856,30.597,189.856z"/>
		<path fill="#010101" d="M41.924,190.656h-1.148v-6.521h-2.249c-0.123,1.622-0.294,2.91-0.513,3.862s-0.503,1.649-0.851,2.092
			c-0.35,0.442-0.792,0.663-1.33,0.663c-0.246,0-0.442-0.027-0.588-0.082v-0.841c0.101,0.027,0.214,0.041,0.342,0.041
			c0.524,0,0.941-0.554,1.251-1.661s0.545-2.789,0.704-5.045h4.382V190.656z"/>
		<path fill="#010101" d="M45.465,186.261h2.044c0.952,0,1.657,0.177,2.116,0.53c0.457,0.353,0.687,0.88,0.687,1.582
			c0,0.752-0.243,1.32-0.728,1.705c-0.486,0.386-1.2,0.578-2.144,0.578h-3.11v-7.492h1.135V186.261z M45.465,187.238v2.468h1.921
			c1.203,0,1.805-0.422,1.805-1.265c0-0.419-0.139-0.725-0.417-0.916s-0.752-0.287-1.422-0.287H45.465z M52.704,190.656h-1.135
			v-7.492h1.135V190.656z"/>
		<path opacity="0.6" fill="#2BA9E0" d="M7.122,218.813h1.176v1.23h0.479c0.779,0,1.455,0.155,2.026,0.465
			c0.572,0.31,1.01,0.747,1.313,1.313c0.304,0.565,0.455,1.21,0.455,1.935c0,0.757-0.17,1.43-0.51,2.02
			c-0.339,0.591-0.804,1.034-1.395,1.33c-0.59,0.296-1.286,0.444-2.088,0.444h-0.28v1.538H7.122v-1.538H6.814
			c-0.802,0-1.497-0.15-2.085-0.451s-1.048-0.747-1.381-1.34s-0.499-1.256-0.499-1.989c0-0.72,0.154-1.362,0.461-1.928
			c0.309-0.565,0.749-1.006,1.323-1.322c0.574-0.317,1.251-0.476,2.03-0.476h0.458V218.813z M7.122,221.042h-0.39
			c-0.829,0-1.482,0.241-1.959,0.725c-0.476,0.483-0.714,1.142-0.714,1.976c0,0.897,0.253,1.594,0.759,2.088
			c0.506,0.495,1.219,0.742,2.14,0.742h0.164V221.042z M8.298,226.572h0.171c0.916,0,1.628-0.25,2.137-0.748
			c0.508-0.5,0.762-1.193,0.762-2.082c0-0.843-0.234-1.504-0.704-1.982s-1.126-0.718-1.969-0.718H8.298V226.572z"/>
		<path opacity="0.6" fill="#2BA9E0" d="M15.564,221.459v4.751l-0.048,1.244l-0.021,0.39l4.054-6.385h1.415v7.492h-1.06v-4.58
			l0.021-0.902l0.034-0.889l-4.047,6.371h-1.415v-7.492H15.564z"/>
		<path opacity="0.6" fill="#2BA9E0" d="M28.956,228.951h-1.148v-6.521h-2.249c-0.123,1.622-0.294,2.91-0.513,3.862
			s-0.503,1.649-0.851,2.092c-0.35,0.442-0.792,0.663-1.33,0.663c-0.246,0-0.442-0.027-0.588-0.082v-0.841
			c0.101,0.027,0.214,0.041,0.342,0.041c0.524,0,0.941-0.554,1.251-1.661s0.545-2.789,0.704-5.045h4.382V228.951z"/>
		<path opacity="0.6" fill="#2BA9E0" d="M32.497,224.556h2.311c1.914,0,2.871,0.704,2.871,2.112c0,0.738-0.25,1.304-0.748,1.695
			c-0.5,0.392-1.229,0.588-2.191,0.588h-3.377v-7.492h1.135V224.556z M32.497,225.533v2.468h2.188c0.602,0,1.062-0.104,1.381-0.314
			s0.479-0.526,0.479-0.95c0-0.415-0.146-0.719-0.441-0.912c-0.293-0.194-0.777-0.291-1.452-0.291H32.497z"/>
		<path opacity="0.6" fill="#2BA9E0" d="M43.537,227.857l0.212-0.636l0.294-0.807l2.03-4.942h1.442v7.479h-1.005v-6.187
			l-0.137,0.396l-0.396,1.046l-1.935,4.744h-0.95l-1.935-4.758c-0.241-0.61-0.408-1.087-0.499-1.429v6.187h-1.012v-7.479h1.388
			l1.962,4.751C43.193,226.725,43.373,227.27,43.537,227.857z"/>
		<path opacity="0.6" fill="#2BA9E0" d="M51.07,224.556h2.044c0.952,0,1.657,0.177,2.116,0.53c0.457,0.353,0.687,0.88,0.687,1.582
			c0,0.752-0.243,1.32-0.728,1.705c-0.486,0.386-1.2,0.578-2.144,0.578h-3.11v-7.492h1.135V224.556z M51.07,225.533v2.468h1.921
			c1.203,0,1.805-0.422,1.805-1.265c0-0.419-0.139-0.725-0.417-0.916s-0.752-0.287-1.422-0.287H51.07z M58.31,228.951h-1.135v-7.492
			h1.135V228.951z"/>
		<path opacity="0.4" fill="#2BA9E0" d="M7.122,257.108h1.176v1.23h0.479c0.779,0,1.455,0.155,2.026,0.465
			c0.572,0.31,1.01,0.747,1.313,1.313c0.304,0.565,0.455,1.21,0.455,1.935c0,0.757-0.17,1.43-0.51,2.02
			c-0.339,0.591-0.804,1.034-1.395,1.33c-0.59,0.296-1.286,0.444-2.088,0.444h-0.28v1.538H7.122v-1.538H6.814
			c-0.802,0-1.497-0.15-2.085-0.451s-1.048-0.747-1.381-1.34s-0.499-1.256-0.499-1.989c0-0.72,0.154-1.362,0.461-1.928
			c0.309-0.565,0.749-1.006,1.323-1.322c0.574-0.317,1.251-0.476,2.03-0.476h0.458V257.108z M7.122,259.337h-0.39
			c-0.829,0-1.482,0.241-1.959,0.725c-0.476,0.483-0.714,1.142-0.714,1.976c0,0.897,0.253,1.594,0.759,2.088
			c0.506,0.495,1.219,0.742,2.14,0.742h0.164V259.337z M8.298,264.867h0.171c0.916,0,1.628-0.25,2.137-0.748
			c0.508-0.5,0.762-1.193,0.762-2.082c0-0.843-0.234-1.504-0.704-1.982s-1.126-0.718-1.969-0.718H8.298V264.867z"/>
		<path opacity="0.4" fill="#2BA9E0" d="M15.564,259.754v4.751l-0.048,1.244l-0.021,0.39l4.054-6.385h1.415v7.492h-1.06v-4.58
			l0.021-0.902l0.034-0.889l-4.047,6.371h-1.415v-7.492H15.564z"/>
		<path opacity="0.4" fill="#2BA9E0" d="M28.956,267.246h-1.148v-6.521h-2.249c-0.123,1.622-0.294,2.91-0.513,3.862
			s-0.503,1.649-0.851,2.092c-0.35,0.442-0.792,0.663-1.33,0.663c-0.246,0-0.442-0.027-0.588-0.082v-0.841
			c0.101,0.027,0.214,0.041,0.342,0.041c0.524,0,0.941-0.554,1.251-1.661s0.545-2.789,0.704-5.045h4.382V267.246z"/>
		<path opacity="0.4" fill="#2BA9E0" d="M32.497,262.851h2.311c1.914,0,2.871,0.704,2.871,2.112c0,0.738-0.25,1.304-0.748,1.695
			c-0.5,0.392-1.229,0.588-2.191,0.588h-3.377v-7.492h1.135V262.851z M32.497,263.828v2.468h2.188c0.602,0,1.062-0.104,1.381-0.314
			s0.479-0.526,0.479-0.95c0-0.415-0.146-0.719-0.441-0.912c-0.293-0.194-0.777-0.291-1.452-0.291H32.497z"/>
		<path opacity="0.4" fill="#2BA9E0" d="M43.537,266.152l0.212-0.636l0.294-0.807l2.03-4.942h1.442v7.479h-1.005v-6.187
			l-0.137,0.396l-0.396,1.046l-1.935,4.744h-0.95l-1.935-4.758c-0.241-0.61-0.408-1.087-0.499-1.429v6.187h-1.012v-7.479h1.388
			l1.962,4.751C43.193,265.02,43.373,265.564,43.537,266.152z"/>
		<path opacity="0.4" fill="#2BA9E0" d="M51.07,262.851h2.044c0.952,0,1.657,0.177,2.116,0.53c0.457,0.353,0.687,0.88,0.687,1.582
			c0,0.752-0.243,1.32-0.728,1.705c-0.486,0.386-1.2,0.578-2.144,0.578h-3.11v-7.492h1.135V262.851z M51.07,263.828v2.468h1.921
			c1.203,0,1.805-0.422,1.805-1.265c0-0.419-0.139-0.725-0.417-0.916s-0.752-0.287-1.422-0.287H51.07z M58.31,267.246h-1.135v-7.492
			h1.135V267.246z"/>
		<path opacity="0.2" fill="#2BA9E0" d="M7.122,295.403h1.176v1.23h0.479c0.779,0,1.455,0.155,2.026,0.465
			c0.572,0.31,1.01,0.747,1.313,1.313c0.304,0.565,0.455,1.21,0.455,1.935c0,0.757-0.17,1.43-0.51,2.02
			c-0.339,0.591-0.804,1.034-1.395,1.33c-0.59,0.296-1.286,0.444-2.088,0.444h-0.28v1.538H7.122v-1.538H6.814
			c-0.802,0-1.497-0.15-2.085-0.451s-1.048-0.747-1.381-1.34s-0.499-1.256-0.499-1.989c0-0.72,0.154-1.362,0.461-1.928
			c0.309-0.565,0.749-1.006,1.323-1.322c0.574-0.317,1.251-0.476,2.03-0.476h0.458V295.403z M7.122,297.632h-0.39
			c-0.829,0-1.482,0.241-1.959,0.725c-0.476,0.483-0.714,1.142-0.714,1.976c0,0.897,0.253,1.594,0.759,2.088
			c0.506,0.495,1.219,0.742,2.14,0.742h0.164V297.632z M8.298,303.162h0.171c0.916,0,1.628-0.25,2.137-0.748
			c0.508-0.5,0.762-1.193,0.762-2.082c0-0.843-0.234-1.504-0.704-1.982s-1.126-0.718-1.969-0.718H8.298V303.162z"/>
		<path opacity="0.2" fill="#2BA9E0" d="M15.564,298.049v4.751l-0.048,1.244l-0.021,0.39l4.054-6.385h1.415v7.492h-1.06v-4.58
			l0.021-0.902l0.034-0.889l-4.047,6.371h-1.415v-7.492H15.564z"/>
		<path opacity="0.2" fill="#2BA9E0" d="M28.956,305.541h-1.148v-6.521h-2.249c-0.123,1.622-0.294,2.91-0.513,3.862
			s-0.503,1.649-0.851,2.092c-0.35,0.442-0.792,0.663-1.33,0.663c-0.246,0-0.442-0.027-0.588-0.082v-0.841
			c0.101,0.027,0.214,0.041,0.342,0.041c0.524,0,0.941-0.554,1.251-1.661s0.545-2.789,0.704-5.045h4.382V305.541z"/>
		<path opacity="0.2" fill="#2BA9E0" d="M32.497,301.146h2.311c1.914,0,2.871,0.704,2.871,2.112c0,0.738-0.25,1.304-0.748,1.695
			c-0.5,0.392-1.229,0.588-2.191,0.588h-3.377v-7.492h1.135V301.146z M32.497,302.123v2.468h2.188c0.602,0,1.062-0.104,1.381-0.314
			s0.479-0.526,0.479-0.95c0-0.415-0.146-0.719-0.441-0.912c-0.293-0.194-0.777-0.291-1.452-0.291H32.497z"/>
		<path opacity="0.2" fill="#2BA9E0" d="M43.537,304.447l0.212-0.636l0.294-0.807l2.03-4.942h1.442v7.479h-1.005v-6.187
			l-0.137,0.396l-0.396,1.046l-1.935,4.744h-0.95l-1.935-4.758c-0.241-0.61-0.408-1.087-0.499-1.429v6.187h-1.012v-7.479h1.388
			l1.962,4.751C43.193,303.314,43.373,303.859,43.537,304.447z"/>
		<path opacity="0.2" fill="#2BA9E0" d="M51.07,301.146h2.044c0.952,0,1.657,0.177,2.116,0.53c0.457,0.353,0.687,0.88,0.687,1.582
			c0,0.752-0.243,1.32-0.728,1.705c-0.486,0.386-1.2,0.578-2.144,0.578h-3.11v-7.492h1.135V301.146z M51.07,302.123v2.468h1.921
			c1.203,0,1.805-0.422,1.805-1.265c0-0.419-0.139-0.725-0.417-0.916s-0.752-0.287-1.422-0.287H51.07z M58.31,305.541h-1.135v-7.492
			h1.135V305.541z"/>
	</g>
	<g>
		<path fill="#349ED8" d="M34.879,34.225H33.3v-5.946H16.14v5.946h-1.595v-7.493h1.692c1.59-2.761,2.986-6.265,4.189-10.514
			S22.3,8.137,22.44,4.721h10.022v22.011h2.417V34.225z M30.787,26.732V6.268h-6.929c-0.258,3.384-0.935,7.031-2.03,10.941
			s-2.347,7.084-3.754,9.523H30.787z"/>
		<path fill="#349ED8" d="M40.31,10.764v12.665l-0.097,3.303l10.393-15.968h2.127v17.515h-1.531V15.694l0.064-3.384L40.874,28.279
			h-2.079V10.764H40.31z"/>
		<path fill="#349ED8" d="M68.105,10.764h1.982l-7.847,8.476l8.411,9.04h-2.143L60.226,19.4v8.878h-1.627V10.764h1.627v8.508
			L68.105,10.764z"/>
		<path fill="#349ED8" d="M80.738,28.601c-2.503,0-4.463-0.79-5.881-2.369s-2.127-3.781-2.127-6.606c0-2.9,0.735-5.159,2.208-6.776
			c1.472-1.616,3.486-2.425,6.042-2.425c1.515,0,2.965,0.263,4.351,0.79l-0.435,1.418c-1.515-0.505-2.831-0.757-3.948-0.757
			c-2.148,0-3.776,0.664-4.882,1.99c-1.106,1.327-1.66,3.236-1.66,5.728c0,2.363,0.553,4.213,1.66,5.551
			c1.106,1.337,2.653,2.006,4.641,2.006c1.589,0,3.067-0.285,4.431-0.854v1.482C84.02,28.327,82.553,28.601,80.738,28.601z"/>
		<path fill="#349ED8" d="M100.058,28.279l-0.403-2.771h-0.129c-0.881,1.128-1.786,1.926-2.715,2.393
			c-0.929,0.468-2.027,0.701-3.295,0.701c-1.719,0-3.056-0.44-4.012-1.321c-0.957-0.881-1.434-2.1-1.434-3.658
			c0-1.708,0.711-3.035,2.135-3.98c1.424-0.945,3.483-1.445,6.18-1.499l3.335-0.097v-1.16c0-1.665-0.338-2.922-1.015-3.771
			s-1.767-1.273-3.271-1.273c-1.622,0-3.303,0.451-5.043,1.354l-0.596-1.386c1.923-0.902,3.824-1.354,5.704-1.354
			c1.923,0,3.36,0.5,4.31,1.499c0.951,0.999,1.426,2.557,1.426,4.673v11.65H100.058z M93.612,27.151
			c1.869,0,3.344-0.534,4.423-1.604c1.08-1.068,1.62-2.554,1.62-4.455v-1.724l-3.062,0.129c-2.46,0.118-4.213,0.502-5.261,1.152
			c-1.047,0.65-1.571,1.663-1.571,3.038c0,1.096,0.335,1.947,1.007,2.554C91.439,26.848,92.388,27.151,93.612,27.151z"/>
		<path fill="#349ED8" d="M120.344,14.985c0,1.106-0.274,1.974-0.822,2.602c-0.548,0.629-1.439,1.066-2.675,1.313v0.113
			c1.407,0.161,2.425,0.567,3.054,1.216c0.628,0.65,0.942,1.582,0.942,2.796c0,1.687-0.556,2.984-1.668,3.892
			c-1.111,0.908-2.736,1.361-4.874,1.361h-7.396V10.764h7.428c1.998,0,3.499,0.36,4.504,1.08
			C119.842,12.563,120.344,13.61,120.344,14.985z M118.652,15.114c0-1.021-0.365-1.749-1.096-2.183
			c-0.73-0.436-1.826-0.653-3.287-0.653h-5.769v5.994h5.575c1.633,0,2.804-0.252,3.513-0.757S118.652,16.21,118.652,15.114z
			 M119.152,22.994c0-2.148-1.649-3.223-4.947-3.223h-5.704v6.993h5.93C117.578,26.764,119.152,25.507,119.152,22.994z"/>
		<path fill="#349ED8" d="M132.655,28.601c-2.546,0-4.531-0.784-5.954-2.353c-1.424-1.568-2.135-3.765-2.135-6.59
			c0-2.793,0.687-5.03,2.063-6.711c1.375-1.681,3.228-2.521,5.559-2.521c2.063,0,3.69,0.72,4.882,2.159s1.789,3.395,1.789,5.865
			v1.289h-12.617c0.021,2.406,0.583,4.243,1.684,5.511c1.101,1.268,2.677,1.901,4.729,1.901c0.999,0,1.877-0.07,2.634-0.209
			c0.758-0.14,1.716-0.44,2.876-0.902v1.45c-0.988,0.43-1.901,0.723-2.739,0.878C134.588,28.523,133.665,28.601,132.655,28.601z
			 M132.188,11.843c-1.687,0-3.04,0.556-4.061,1.668c-1.021,1.111-1.617,2.715-1.789,4.81h10.828c0-2.03-0.44-3.617-1.321-4.762
			C134.964,12.416,133.745,11.843,132.188,11.843z"/>
		<path fill="#349ED8" d="M151.185,28.601c-2.696,0-4.662-1.01-5.897-3.029h-0.113l0.048,1.354c0.043,0.795,0.064,1.665,0.064,2.61
			v6.671h-1.595V10.764h1.354l0.306,2.498h0.097c1.203-1.891,3.126-2.836,5.769-2.836c2.363,0,4.166,0.776,5.406,2.328
			c1.241,1.553,1.861,3.811,1.861,6.776c0,2.879-0.652,5.111-1.958,6.695C155.222,27.809,153.441,28.601,151.185,28.601z
			 M151.153,27.183c1.794,0,3.182-0.666,4.166-1.998c0.982-1.332,1.474-3.196,1.474-5.591c0-5.146-1.858-7.718-5.575-7.718
			c-2.041,0-3.54,0.562-4.496,1.684c-0.956,1.123-1.434,2.952-1.434,5.487v0.516c0,2.739,0.459,4.694,1.377,5.865
			C147.584,26.598,149.08,27.183,151.153,27.183z"/>
		<path fill="#349ED8" d="M164.849,10.764v12.665l-0.097,3.303l10.393-15.968h2.127v17.515h-1.531V15.694l0.064-3.384
			l-10.393,15.968h-2.079V10.764H164.849z"/>
	</g>
	<polyline fill="none" stroke="#29A8E0" stroke-miterlimit="10" points="0.5,42.042 0.5,54.542 346.5,54.542 346.5,42.042 	"/>
	<g>
		<g>
			<path opacity="0.4" fill="#010101" d="M94.903,95.144c0,1.885-0.512,3.327-1.535,4.324c-1.023,0.997-2.496,1.496-4.418,1.496
				h-3.164V89.542h3.5c1.776,0,3.156,0.492,4.141,1.477S94.903,93.378,94.903,95.144z M93.497,95.19c0-1.49-0.374-2.612-1.121-3.367
				c-0.747-0.755-1.858-1.133-3.332-1.133h-1.93v9.125h1.617c1.583,0,2.773-0.39,3.57-1.168
				C93.099,97.869,93.497,96.716,93.497,95.19z"/>
			<path opacity="0.4" fill="#010101" d="M97.146,90.081c0-0.297,0.073-0.515,0.219-0.652c0.146-0.138,0.328-0.207,0.547-0.207
				c0.208,0,0.388,0.07,0.539,0.211s0.227,0.356,0.227,0.648c0,0.292-0.075,0.509-0.227,0.652c-0.151,0.143-0.331,0.215-0.539,0.215
				c-0.219,0-0.401-0.072-0.547-0.215C97.219,90.59,97.146,90.373,97.146,90.081z M98.552,100.964h-1.297v-8.563h1.297V100.964z"/>
			<path opacity="0.4" fill="#010101" d="M106.825,98.628c0,0.797-0.297,1.411-0.891,1.844c-0.594,0.432-1.427,0.648-2.5,0.648
				c-1.136,0-2.021-0.18-2.656-0.539v-1.203c0.411,0.208,0.853,0.372,1.324,0.492c0.472,0.12,0.926,0.18,1.363,0.18
				c0.677,0,1.198-0.108,1.563-0.324c0.364-0.216,0.547-0.546,0.547-0.988c0-0.333-0.145-0.619-0.434-0.855
				c-0.289-0.237-0.853-0.517-1.691-0.84c-0.797-0.297-1.363-0.556-1.699-0.777c-0.336-0.222-0.586-0.473-0.75-0.754
				s-0.246-0.617-0.246-1.008c0-0.698,0.284-1.249,0.852-1.652c0.567-0.404,1.347-0.605,2.336-0.605
				c0.922,0,1.823,0.188,2.703,0.563l-0.461,1.055c-0.859-0.354-1.638-0.531-2.336-0.531c-0.614,0-1.078,0.096-1.391,0.289
				c-0.313,0.192-0.469,0.458-0.469,0.797c0,0.229,0.059,0.424,0.176,0.586c0.117,0.161,0.306,0.315,0.566,0.461
				c0.261,0.146,0.761,0.356,1.5,0.633c1.016,0.37,1.702,0.742,2.059,1.117S106.825,98.06,106.825,98.628z"/>
			<path opacity="0.4" fill="#010101" d="M112.356,101.12c-1.239,0-2.199-0.382-2.879-1.145c-0.68-0.763-1.02-1.843-1.02-3.238
				c0-1.433,0.345-2.539,1.035-3.32s1.673-1.172,2.949-1.172c0.411,0,0.823,0.044,1.234,0.133c0.411,0.088,0.734,0.192,0.969,0.313
				l-0.398,1.102c-0.286-0.115-0.599-0.21-0.938-0.285c-0.339-0.076-0.638-0.113-0.898-0.113c-1.739,0-2.609,1.109-2.609,3.328
				c0,1.052,0.212,1.859,0.637,2.422s1.054,0.844,1.887,0.844c0.714,0,1.445-0.154,2.195-0.461v1.148
				C113.947,100.972,113.227,101.12,112.356,101.12z"/>
			<path opacity="0.4" fill="#010101" d="M123.942,96.675c0,1.396-0.352,2.485-1.055,3.27c-0.703,0.784-1.675,1.176-2.914,1.176
				c-0.766,0-1.445-0.18-2.039-0.539s-1.052-0.875-1.375-1.547s-0.484-1.458-0.484-2.359c0-1.396,0.349-2.483,1.047-3.262
				c0.698-0.779,1.667-1.168,2.906-1.168c1.198,0,2.149,0.398,2.855,1.195S123.942,95.315,123.942,96.675z M117.419,96.675
				c0,1.094,0.219,1.927,0.656,2.5c0.438,0.573,1.081,0.859,1.93,0.859s1.493-0.285,1.934-0.855s0.66-1.405,0.66-2.504
				c0-1.089-0.22-1.916-0.66-2.48c-0.44-0.565-1.09-0.848-1.949-0.848c-0.849,0-1.489,0.278-1.922,0.836
				C117.635,94.74,117.419,95.57,117.419,96.675z"/>
			<path opacity="0.4" fill="#010101" d="M128.091,100.964l-3.25-8.563h1.391l1.844,5.078c0.417,1.188,0.661,1.958,0.734,2.313
				h0.063c0.058-0.276,0.238-0.848,0.543-1.715s0.988-2.759,2.051-5.676h1.391l-3.25,8.563H128.091z"/>
			<path opacity="0.4" fill="#010101" d="M137.849,101.12c-1.266,0-2.265-0.386-2.996-1.156c-0.731-0.771-1.098-1.841-1.098-3.211
				c0-1.38,0.34-2.477,1.02-3.289s1.593-1.219,2.738-1.219c1.073,0,1.922,0.353,2.547,1.059c0.625,0.706,0.938,1.637,0.938,2.793
				v0.82h-5.898c0.026,1.005,0.28,1.768,0.762,2.289c0.481,0.521,1.16,0.781,2.035,0.781c0.922,0,1.833-0.193,2.734-0.578v1.156
				c-0.458,0.198-0.892,0.34-1.301,0.426S138.427,101.12,137.849,101.12z M137.497,93.331c-0.688,0-1.235,0.224-1.645,0.672
				c-0.409,0.448-0.649,1.067-0.723,1.859h4.477c0-0.818-0.183-1.444-0.547-1.879C138.695,93.548,138.174,93.331,137.497,93.331z"/>
			<path opacity="0.4" fill="#010101" d="M147.114,92.245c0.38,0,0.722,0.031,1.023,0.094l-0.18,1.203
				c-0.354-0.078-0.667-0.117-0.938-0.117c-0.692,0-1.285,0.281-1.777,0.844s-0.738,1.263-0.738,2.102v4.594h-1.297v-8.563h1.07
				l0.148,1.586h0.063c0.317-0.558,0.7-0.987,1.148-1.289C146.086,92.396,146.578,92.245,147.114,92.245z"/>
			<path opacity="0.4" fill="#010101" d="M148.38,92.401h1.391l1.875,4.883c0.411,1.114,0.667,1.919,0.766,2.414h0.063
				c0.067-0.266,0.21-0.72,0.426-1.363c0.216-0.644,0.923-2.621,2.121-5.934h1.391l-3.68,9.75c-0.364,0.963-0.79,1.647-1.277,2.051
				c-0.487,0.403-1.085,0.605-1.793,0.605c-0.396,0-0.786-0.044-1.172-0.133v-1.039c0.286,0.063,0.606,0.094,0.961,0.094
				c0.891,0,1.526-0.5,1.906-1.5l0.477-1.219L148.38,92.401z"/>
			<path opacity="0.4" fill="#010101" d="M157.614,93.237c0-0.703,0.308-1.055,0.922-1.055c0.641,0,0.961,0.352,0.961,1.055
				c0,0.338-0.086,0.599-0.258,0.781c-0.172,0.182-0.406,0.273-0.703,0.273c-0.266,0-0.485-0.082-0.66-0.246
				S157.614,93.612,157.614,93.237z M157.614,100.136c0-0.349,0.079-0.613,0.238-0.793s0.387-0.27,0.684-0.27
				c0.302,0,0.538,0.09,0.707,0.27s0.254,0.444,0.254,0.793c0,0.338-0.086,0.599-0.258,0.781c-0.172,0.182-0.406,0.273-0.703,0.273
				c-0.266,0-0.485-0.082-0.66-0.246S157.614,100.511,157.614,100.136z"/>
			<path opacity="0.4" fill="#010101" d="M173.591,100.964l-1.422-3.633h-4.578l-1.406,3.633h-1.344l4.516-11.469h1.117
				l4.492,11.469H173.591z M171.755,96.136l-1.328-3.539c-0.172-0.448-0.349-0.998-0.531-1.648c-0.114,0.5-0.278,1.049-0.492,1.648
				l-1.344,3.539H171.755z"/>
			<path opacity="0.4" fill="#010101" d="M177.638,92.401v3.586h4.797v-3.586h1.297v8.563h-1.297v-3.859h-4.797v3.859h-1.297v-8.563
				H177.638z"/>
			<path opacity="0.4" fill="#010101" d="M193.872,96.675c0,1.396-0.352,2.485-1.055,3.27c-0.703,0.784-1.675,1.176-2.914,1.176
				c-0.766,0-1.445-0.18-2.039-0.539s-1.052-0.875-1.375-1.547s-0.484-1.458-0.484-2.359c0-1.396,0.349-2.483,1.047-3.262
				c0.698-0.779,1.667-1.168,2.906-1.168c1.198,0,2.149,0.398,2.855,1.195S193.872,95.315,193.872,96.675z M187.349,96.675
				c0,1.094,0.219,1.927,0.656,2.5c0.438,0.573,1.081,0.859,1.93,0.859s1.493-0.285,1.934-0.855s0.66-1.405,0.66-2.504
				c0-1.089-0.22-1.916-0.66-2.48c-0.44-0.565-1.09-0.848-1.949-0.848c-0.849,0-1.489,0.278-1.922,0.836
				C187.564,94.74,187.349,95.57,187.349,96.675z"/>
			<path opacity="0.4" fill="#010101" d="M200.591,99.714l0.242-0.727l0.336-0.922l2.32-5.648h1.648v8.547h-1.148v-7.07
				l-0.156,0.453l-0.453,1.195l-2.211,5.422h-1.086l-2.211-5.438c-0.276-0.698-0.466-1.242-0.57-1.633v7.07h-1.156v-8.547h1.586
				l2.242,5.43C200.197,98.419,200.403,99.042,200.591,99.714z"/>
			<path opacity="0.4" fill="#010101" d="M213.169,100.964l-0.258-1.219h-0.063c-0.427,0.536-0.853,0.899-1.277,1.09
				c-0.425,0.19-0.954,0.285-1.59,0.285c-0.849,0-1.515-0.219-1.996-0.656s-0.723-1.06-0.723-1.867c0-1.729,1.383-2.636,4.148-2.719
				l1.453-0.047V95.3c0-0.672-0.145-1.168-0.434-1.488s-0.751-0.48-1.387-0.48c-0.714,0-1.521,0.219-2.422,0.656l-0.398-0.992
				c0.422-0.229,0.884-0.409,1.387-0.539c0.503-0.13,1.007-0.195,1.512-0.195c1.021,0,1.777,0.227,2.27,0.68s0.738,1.18,0.738,2.18
				v5.844H213.169z M210.239,100.05c0.808,0,1.441-0.222,1.902-0.664c0.461-0.443,0.691-1.063,0.691-1.859v-0.773l-1.297,0.055
				c-1.031,0.036-1.774,0.196-2.23,0.48c-0.456,0.284-0.684,0.725-0.684,1.324c0,0.469,0.142,0.825,0.426,1.07
				C209.332,99.927,209.729,100.05,210.239,100.05z"/>
			<path opacity="0.4" fill="#010101" d="M223.185,100.964h-1.313v-7.453h-2.57c-0.141,1.854-0.336,3.325-0.586,4.414
				c-0.25,1.088-0.574,1.885-0.973,2.391c-0.398,0.505-0.905,0.758-1.52,0.758c-0.281,0-0.505-0.031-0.672-0.094v-0.961
				c0.114,0.031,0.245,0.047,0.391,0.047c0.599,0,1.075-0.633,1.43-1.898s0.622-3.188,0.805-5.766h5.008V100.964z"/>
			<path opacity="0.4" fill="#010101" d="M227.153,92.401v5.43l-0.055,1.422l-0.023,0.445l4.633-7.297h1.617v8.563h-1.211v-5.234
				l0.023-1.031l0.039-1.016l-4.625,7.281h-1.617v-8.563H227.153z"/>
			<path opacity="0.4" fill="#010101" d="M236.505,100.964h-1.516l2.461-3.617c-0.661-0.146-1.168-0.429-1.52-0.848
				c-0.352-0.419-0.527-0.947-0.527-1.582c0-0.781,0.263-1.396,0.789-1.844c0.526-0.448,1.261-0.672,2.203-0.672h3.813v8.563h-1.297
				v-3.422h-2.164L236.505,100.964z M236.669,94.933c0,0.989,0.719,1.484,2.156,1.484h2.086v-2.891h-2.352
				C237.299,93.526,236.669,93.995,236.669,94.933z"/>
			<path opacity="0.4" fill="#010101" d="M254.888,93.511h-2.781v7.453h-1.297v-7.453h-2.75v-1.109h6.828V93.511z"/>
			<path opacity="0.4" fill="#010101" d="M260.2,101.12c-1.266,0-2.265-0.386-2.996-1.156c-0.731-0.771-1.098-1.841-1.098-3.211
				c0-1.38,0.34-2.477,1.02-3.289s1.593-1.219,2.738-1.219c1.073,0,1.922,0.353,2.547,1.059c0.625,0.706,0.938,1.637,0.938,2.793
				v0.82h-5.898c0.026,1.005,0.28,1.768,0.762,2.289c0.481,0.521,1.16,0.781,2.035,0.781c0.922,0,1.833-0.193,2.734-0.578v1.156
				c-0.458,0.198-0.892,0.34-1.301,0.426S260.778,101.12,260.2,101.12z M259.849,93.331c-0.688,0-1.235,0.224-1.645,0.672
				c-0.409,0.448-0.649,1.067-0.723,1.859h4.477c0-0.818-0.183-1.444-0.547-1.879C261.047,93.548,260.525,93.331,259.849,93.331z"/>
			<path opacity="0.4" fill="#010101" d="M271.942,100.964h-1.313v-7.453h-2.57c-0.141,1.854-0.336,3.325-0.586,4.414
				c-0.25,1.088-0.574,1.885-0.973,2.391c-0.398,0.505-0.905,0.758-1.52,0.758c-0.281,0-0.505-0.031-0.672-0.094v-0.961
				c0.114,0.031,0.245,0.047,0.391,0.047c0.599,0,1.075-0.633,1.43-1.898s0.622-3.188,0.805-5.766h5.008V100.964z"/>
			<path opacity="0.4" fill="#010101" d="M279.958,100.964l-0.258-1.219h-0.063c-0.427,0.536-0.853,0.899-1.277,1.09
				c-0.425,0.19-0.954,0.285-1.59,0.285c-0.849,0-1.515-0.219-1.996-0.656s-0.723-1.06-0.723-1.867c0-1.729,1.383-2.636,4.148-2.719
				l1.453-0.047V95.3c0-0.672-0.145-1.168-0.434-1.488s-0.751-0.48-1.387-0.48c-0.714,0-1.521,0.219-2.422,0.656l-0.398-0.992
				c0.422-0.229,0.884-0.409,1.387-0.539c0.503-0.13,1.007-0.195,1.512-0.195c1.021,0,1.777,0.227,2.27,0.68s0.738,1.18,0.738,2.18
				v5.844H279.958z M277.028,100.05c0.808,0,1.441-0.222,1.902-0.664c0.461-0.443,0.691-1.063,0.691-1.859v-0.773l-1.297,0.055
				c-1.031,0.036-1.774,0.196-2.23,0.48c-0.456,0.284-0.684,0.725-0.684,1.324c0,0.469,0.142,0.825,0.426,1.07
				C276.121,99.927,276.518,100.05,277.028,100.05z"/>
			<path opacity="0.4" fill="#010101" d="M94.903,133.438c0,1.885-0.512,3.327-1.535,4.324c-1.023,0.997-2.496,1.496-4.418,1.496
				h-3.164v-11.422h3.5c1.776,0,3.156,0.492,4.141,1.477S94.903,131.673,94.903,133.438z M93.497,133.485
				c0-1.49-0.374-2.612-1.121-3.367c-0.747-0.755-1.858-1.133-3.332-1.133h-1.93v9.125h1.617c1.583,0,2.773-0.39,3.57-1.168
				C93.099,136.164,93.497,135.011,93.497,133.485z"/>
			<path opacity="0.4" fill="#010101" d="M97.146,128.376c0-0.297,0.073-0.515,0.219-0.652c0.146-0.138,0.328-0.207,0.547-0.207
				c0.208,0,0.388,0.07,0.539,0.211s0.227,0.356,0.227,0.648c0,0.292-0.075,0.509-0.227,0.652c-0.151,0.143-0.331,0.215-0.539,0.215
				c-0.219,0-0.401-0.072-0.547-0.215C97.219,128.885,97.146,128.667,97.146,128.376z M98.552,139.259h-1.297v-8.563h1.297V139.259z
				"/>
			<path opacity="0.4" fill="#010101" d="M106.825,136.923c0,0.797-0.297,1.411-0.891,1.844c-0.594,0.432-1.427,0.648-2.5,0.648
				c-1.136,0-2.021-0.18-2.656-0.539v-1.203c0.411,0.208,0.853,0.372,1.324,0.492c0.472,0.12,0.926,0.18,1.363,0.18
				c0.677,0,1.198-0.108,1.563-0.324c0.364-0.216,0.547-0.546,0.547-0.988c0-0.333-0.145-0.619-0.434-0.855
				c-0.289-0.237-0.853-0.517-1.691-0.84c-0.797-0.297-1.363-0.556-1.699-0.777c-0.336-0.222-0.586-0.473-0.75-0.754
				s-0.246-0.617-0.246-1.008c0-0.698,0.284-1.249,0.852-1.652c0.567-0.404,1.347-0.605,2.336-0.605
				c0.922,0,1.823,0.188,2.703,0.563l-0.461,1.055c-0.859-0.354-1.638-0.531-2.336-0.531c-0.614,0-1.078,0.096-1.391,0.289
				c-0.313,0.192-0.469,0.458-0.469,0.797c0,0.229,0.059,0.424,0.176,0.586c0.117,0.161,0.306,0.315,0.566,0.461
				c0.261,0.146,0.761,0.356,1.5,0.633c1.016,0.37,1.702,0.742,2.059,1.117S106.825,136.355,106.825,136.923z"/>
			<path opacity="0.4" fill="#010101" d="M112.356,139.415c-1.239,0-2.199-0.382-2.879-1.145c-0.68-0.763-1.02-1.843-1.02-3.238
				c0-1.433,0.345-2.539,1.035-3.32s1.673-1.172,2.949-1.172c0.411,0,0.823,0.044,1.234,0.133c0.411,0.088,0.734,0.192,0.969,0.313
				l-0.398,1.102c-0.286-0.115-0.599-0.21-0.938-0.285c-0.339-0.076-0.638-0.113-0.898-0.113c-1.739,0-2.609,1.109-2.609,3.328
				c0,1.052,0.212,1.859,0.637,2.422s1.054,0.844,1.887,0.844c0.714,0,1.445-0.154,2.195-0.461v1.148
				C113.947,139.267,113.227,139.415,112.356,139.415z"/>
			<path opacity="0.4" fill="#010101" d="M123.942,134.97c0,1.396-0.352,2.485-1.055,3.27c-0.703,0.784-1.675,1.176-2.914,1.176
				c-0.766,0-1.445-0.18-2.039-0.539s-1.052-0.875-1.375-1.547s-0.484-1.458-0.484-2.359c0-1.396,0.349-2.483,1.047-3.262
				c0.698-0.779,1.667-1.168,2.906-1.168c1.198,0,2.149,0.398,2.855,1.195S123.942,133.61,123.942,134.97z M117.419,134.97
				c0,1.094,0.219,1.927,0.656,2.5c0.438,0.573,1.081,0.859,1.93,0.859s1.493-0.285,1.934-0.855s0.66-1.405,0.66-2.504
				c0-1.089-0.22-1.916-0.66-2.48c-0.44-0.565-1.09-0.848-1.949-0.848c-0.849,0-1.489,0.278-1.922,0.836
				C117.635,133.035,117.419,133.865,117.419,134.97z"/>
			<path opacity="0.4" fill="#010101" d="M128.091,139.259l-3.25-8.563h1.391l1.844,5.078c0.417,1.188,0.661,1.958,0.734,2.313
				h0.063c0.058-0.276,0.238-0.848,0.543-1.715s0.988-2.759,2.051-5.676h1.391l-3.25,8.563H128.091z"/>
			<path opacity="0.4" fill="#010101" d="M137.849,139.415c-1.266,0-2.265-0.386-2.996-1.156c-0.731-0.771-1.098-1.841-1.098-3.211
				c0-1.38,0.34-2.477,1.02-3.289s1.593-1.219,2.738-1.219c1.073,0,1.922,0.353,2.547,1.059c0.625,0.706,0.938,1.637,0.938,2.793
				v0.82h-5.898c0.026,1.005,0.28,1.768,0.762,2.289c0.481,0.521,1.16,0.781,2.035,0.781c0.922,0,1.833-0.193,2.734-0.578v1.156
				c-0.458,0.198-0.892,0.34-1.301,0.426S138.427,139.415,137.849,139.415z M137.497,131.626c-0.688,0-1.235,0.224-1.645,0.672
				c-0.409,0.448-0.649,1.067-0.723,1.859h4.477c0-0.818-0.183-1.444-0.547-1.879C138.695,131.843,138.174,131.626,137.497,131.626z
				"/>
			<path opacity="0.4" fill="#010101" d="M147.114,130.54c0.38,0,0.722,0.031,1.023,0.094l-0.18,1.203
				c-0.354-0.078-0.667-0.117-0.938-0.117c-0.692,0-1.285,0.281-1.777,0.844s-0.738,1.263-0.738,2.102v4.594h-1.297v-8.563h1.07
				l0.148,1.586h0.063c0.317-0.558,0.7-0.987,1.148-1.289C146.086,130.691,146.578,130.54,147.114,130.54z"/>
			<path opacity="0.4" fill="#010101" d="M148.38,130.696h1.391l1.875,4.883c0.411,1.114,0.667,1.919,0.766,2.414h0.063
				c0.067-0.266,0.21-0.72,0.426-1.363c0.216-0.644,0.923-2.621,2.121-5.934h1.391l-3.68,9.75c-0.364,0.963-0.79,1.647-1.277,2.051
				c-0.487,0.403-1.085,0.605-1.793,0.605c-0.396,0-0.786-0.044-1.172-0.133v-1.039c0.286,0.063,0.606,0.094,0.961,0.094
				c0.891,0,1.526-0.5,1.906-1.5l0.477-1.219L148.38,130.696z"/>
			<path opacity="0.4" fill="#010101" d="M157.614,131.532c0-0.703,0.308-1.055,0.922-1.055c0.641,0,0.961,0.352,0.961,1.055
				c0,0.338-0.086,0.599-0.258,0.781c-0.172,0.182-0.406,0.273-0.703,0.273c-0.266,0-0.485-0.082-0.66-0.246
				S157.614,131.907,157.614,131.532z M157.614,138.431c0-0.349,0.079-0.613,0.238-0.793s0.387-0.27,0.684-0.27
				c0.302,0,0.538,0.09,0.707,0.27s0.254,0.444,0.254,0.793c0,0.338-0.086,0.599-0.258,0.781c-0.172,0.182-0.406,0.273-0.703,0.273
				c-0.266,0-0.485-0.082-0.66-0.246S157.614,138.806,157.614,138.431z"/>
			<path opacity="0.4" fill="#010101" d="M175.419,142.235h-1.266v-2.977h-7.938v2.977h-1.266v-4.18h0.883
				c0.802-1.349,1.488-2.99,2.059-4.922c0.57-1.933,0.887-3.698,0.949-5.297h5.133v10.219h1.445V142.235z M172.646,138.056v-9.023
				h-2.602c-0.094,1.26-0.409,2.774-0.945,4.543c-0.536,1.768-1.161,3.262-1.875,4.48H172.646z"/>
			<path opacity="0.4" fill="#010101" d="M184.091,132.845c0,0.557-0.16,0.98-0.48,1.27s-0.77,0.483-1.348,0.582v0.07
				c0.729,0.099,1.262,0.313,1.598,0.641s0.504,0.781,0.504,1.359c0,0.797-0.293,1.411-0.879,1.844
				c-0.586,0.432-1.441,0.648-2.566,0.648h-3.773v-8.563h3.758C183.028,130.696,184.091,131.412,184.091,132.845z M182.825,132.97
				c0-0.417-0.16-0.712-0.48-0.887c-0.32-0.175-0.806-0.262-1.457-0.262h-2.445v2.414h2.195c0.802,0,1.367-0.099,1.695-0.297
				C182.661,133.74,182.825,133.417,182.825,132.97z M183.067,136.681c0-0.464-0.176-0.801-0.527-1.012s-0.934-0.316-1.746-0.316
				h-2.352v2.82h2.383C182.32,138.173,183.067,137.675,183.067,136.681z"/>
			<path opacity="0.4" fill="#010101" d="M193.638,134.97c0,1.396-0.352,2.485-1.055,3.27c-0.703,0.784-1.675,1.176-2.914,1.176
				c-0.766,0-1.445-0.18-2.039-0.539s-1.052-0.875-1.375-1.547s-0.484-1.458-0.484-2.359c0-1.396,0.349-2.483,1.047-3.262
				c0.698-0.779,1.667-1.168,2.906-1.168c1.198,0,2.149,0.398,2.855,1.195S193.638,133.61,193.638,134.97z M187.114,134.97
				c0,1.094,0.219,1.927,0.656,2.5c0.438,0.573,1.081,0.859,1.93,0.859s1.493-0.285,1.934-0.855s0.66-1.405,0.66-2.504
				c0-1.089-0.22-1.916-0.66-2.48c-0.44-0.565-1.09-0.848-1.949-0.848c-0.849,0-1.489,0.278-1.922,0.836
				C187.33,133.035,187.114,133.865,187.114,134.97z"/>
			<path opacity="0.4" fill="#010101" d="M197.13,130.696v5.43l-0.055,1.422l-0.023,0.445l4.633-7.297h1.617v8.563h-1.211v-5.234
				l0.023-1.031l0.039-1.016l-4.625,7.281h-1.617v-8.563H197.13z M199.575,129.563c-0.964,0-1.667-0.187-2.109-0.559
				c-0.442-0.373-0.69-0.986-0.742-1.84h1.219c0.047,0.542,0.188,0.919,0.426,1.133c0.237,0.213,0.649,0.32,1.238,0.32
				c0.536,0,0.934-0.115,1.191-0.344c0.258-0.229,0.415-0.599,0.473-1.109h1.227c-0.063,0.823-0.325,1.428-0.789,1.816
				C201.244,129.369,200.533,129.563,199.575,129.563z"/>
			<path opacity="0.4" fill="#010101" d="M207.349,130.696v3.586h4.797v-3.586h1.297v8.563h-1.297v-3.859h-4.797v3.859h-1.297
				v-8.563H207.349z"/>
			<path opacity="0.4" fill="#010101" d="M217.411,130.696v5.43l-0.055,1.422l-0.023,0.445l4.633-7.297h1.617v8.563h-1.211v-5.234
				l0.023-1.031l0.039-1.016l-4.625,7.281h-1.617v-8.563H217.411z"/>
			<path opacity="0.4" fill="#010101" d="M231.325,130.696h1.422l-3.695,4.133l4,4.43h-1.516l-3.906-4.336v4.336h-1.297v-8.563
				h1.297v4.164L231.325,130.696z"/>
			<path opacity="0.4" fill="#010101" d="M235.856,130.696v5.43l-0.055,1.422l-0.023,0.445l4.633-7.297h1.617v8.563h-1.211v-5.234
				l0.023-1.031l0.039-1.016l-4.625,7.281h-1.617v-8.563H235.856z"/>
			<path opacity="0.4" fill="#010101" d="M255.755,130.509c0,0.75-0.238,1.359-0.715,1.828s-1.134,0.766-1.973,0.891v0.063
				c0.953,0.13,1.676,0.43,2.168,0.898s0.738,1.081,0.738,1.836c0,1.067-0.398,1.899-1.195,2.496
				c-0.797,0.596-1.922,0.895-3.375,0.895c-1.328,0-2.417-0.206-3.266-0.617v-1.234c0.5,0.239,1.04,0.424,1.621,0.555
				c0.581,0.13,1.14,0.195,1.676,0.195c1.031,0,1.812-0.195,2.34-0.586s0.793-0.953,0.793-1.688c0-0.698-0.293-1.227-0.879-1.586
				s-1.46-0.539-2.621-0.539h-1.703v-1.117h1.633c1.067,0,1.895-0.191,2.48-0.574s0.879-0.918,0.879-1.605
				c0-0.558-0.211-1.003-0.633-1.336c-0.422-0.333-0.989-0.5-1.703-0.5c-0.573,0-1.091,0.065-1.555,0.195
				c-0.464,0.13-1,0.388-1.609,0.773l-0.656-0.891c0.526-0.391,1.116-0.687,1.77-0.887c0.653-0.201,1.332-0.301,2.035-0.301
				c1.172,0,2.09,0.256,2.754,0.77C255.423,128.955,255.755,129.644,255.755,130.509z"/>
			<path opacity="0.4" fill="#010101" d="M261.849,139.415c-1.266,0-2.265-0.386-2.996-1.156c-0.731-0.771-1.098-1.841-1.098-3.211
				c0-1.38,0.34-2.477,1.02-3.289s1.593-1.219,2.738-1.219c1.073,0,1.922,0.353,2.547,1.059c0.625,0.706,0.938,1.637,0.938,2.793
				v0.82h-5.898c0.026,1.005,0.28,1.768,0.762,2.289c0.481,0.521,1.16,0.781,2.035,0.781c0.922,0,1.833-0.193,2.734-0.578v1.156
				c-0.458,0.198-0.892,0.34-1.301,0.426S262.427,139.415,261.849,139.415z M261.497,131.626c-0.688,0-1.235,0.224-1.645,0.672
				c-0.409,0.448-0.649,1.067-0.723,1.859h4.477c0-0.818-0.183-1.444-0.547-1.879C262.695,131.843,262.174,131.626,261.497,131.626z
				"/>
			<path opacity="0.4" fill="#010101" d="M271.653,138.009l0.242-0.727l0.336-0.922l2.32-5.648h1.648v8.547h-1.148v-7.07
				l-0.156,0.453l-0.453,1.195l-2.211,5.422h-1.086l-2.211-5.438c-0.276-0.698-0.466-1.242-0.57-1.633v7.07h-1.156v-8.547h1.586
				l2.242,5.43C271.26,136.714,271.466,137.337,271.653,138.009z"/>
			<path opacity="0.4" fill="#010101" d="M285.349,139.259h-1.313v-7.453h-2.57c-0.141,1.854-0.336,3.325-0.586,4.414
				c-0.25,1.088-0.574,1.885-0.973,2.391c-0.398,0.505-0.905,0.758-1.52,0.758c-0.281,0-0.505-0.031-0.672-0.094v-0.961
				c0.114,0.031,0.245,0.047,0.391,0.047c0.599,0,1.075-0.633,1.43-1.898s0.622-3.188,0.805-5.766h5.008V139.259z"/>
			<path opacity="0.4" fill="#010101" d="M289.317,130.696v5.43l-0.055,1.422l-0.023,0.445l4.633-7.297h1.617v8.563h-1.211v-5.234
				l0.023-1.031l0.039-1.016l-4.625,7.281h-1.617v-8.563H289.317z"/>
			<path fill="#010101" d="M97.575,183.917c0,2.357-0.64,4.159-1.919,5.405c-1.279,1.247-3.12,1.87-5.522,1.87h-3.955v-14.277h4.375
				c2.22,0,3.945,0.615,5.176,1.846S97.575,181.71,97.575,183.917z M95.817,183.976c0-1.861-0.467-3.265-1.401-4.209
				c-0.935-0.943-2.322-1.416-4.165-1.416h-2.412v11.406h2.021c1.979,0,3.467-0.486,4.463-1.46
				C95.319,187.324,95.817,185.884,95.817,183.976z"/>
			<path fill="#010101" d="M100.378,177.589c0-0.371,0.091-0.643,0.273-0.815c0.183-0.172,0.41-0.259,0.684-0.259
				c0.261,0,0.485,0.088,0.674,0.264s0.283,0.446,0.283,0.811c0,0.365-0.095,0.637-0.283,0.815c-0.188,0.18-0.413,0.269-0.674,0.269
				c-0.273,0-0.501-0.089-0.684-0.269C100.469,178.226,100.378,177.954,100.378,177.589z M102.136,191.192h-1.621v-10.703h1.621
				V191.192z"/>
			<path fill="#010101" d="M109.851,191.388c-1.55,0-2.749-0.477-3.599-1.431c-0.85-0.953-1.274-2.303-1.274-4.048
				c0-1.79,0.432-3.174,1.294-4.15s2.092-1.465,3.687-1.465c0.515,0,1.028,0.056,1.543,0.166c0.515,0.111,0.918,0.241,1.211,0.391
				l-0.498,1.377c-0.358-0.143-0.749-0.262-1.172-0.356c-0.423-0.094-0.798-0.142-1.123-0.142c-2.175,0-3.262,1.387-3.262,4.16
				c0,1.315,0.266,2.324,0.796,3.027s1.316,1.055,2.358,1.055c0.892,0,1.807-0.191,2.744-0.576v1.436
				C111.84,191.202,110.938,191.388,109.851,191.388z"/>
			<path fill="#010101" d="M121.999,188.272c0,0.996-0.371,1.765-1.113,2.305c-0.742,0.541-1.784,0.811-3.125,0.811
				c-1.419,0-2.526-0.225-3.32-0.674v-1.504c0.515,0.261,1.066,0.466,1.655,0.615c0.589,0.15,1.157,0.225,1.704,0.225
				c0.847,0,1.497-0.135,1.953-0.405c0.456-0.27,0.684-0.682,0.684-1.235c0-0.416-0.181-0.772-0.542-1.069
				c-0.361-0.296-1.066-0.646-2.114-1.05c-0.996-0.371-1.704-0.694-2.124-0.972c-0.42-0.276-0.732-0.591-0.938-0.942
				s-0.308-0.771-0.308-1.26c0-0.872,0.354-1.561,1.064-2.065c0.71-0.504,1.683-0.757,2.92-0.757c1.152,0,2.278,0.234,3.379,0.703
				l-0.576,1.318c-1.074-0.442-2.048-0.664-2.92-0.664c-0.769,0-1.348,0.121-1.738,0.361c-0.391,0.241-0.586,0.573-0.586,0.996
				c0,0.287,0.073,0.531,0.22,0.732c0.146,0.202,0.383,0.395,0.708,0.576c0.325,0.183,0.95,0.446,1.875,0.791
				c1.27,0.463,2.127,0.928,2.573,1.396S121.999,187.563,121.999,188.272z"/>
			<path fill="#010101" d="M133.874,185.831c0,1.745-0.439,3.107-1.318,4.087c-0.879,0.98-2.093,1.47-3.643,1.47
				c-0.957,0-1.807-0.225-2.549-0.674s-1.315-1.094-1.719-1.934s-0.605-1.822-0.605-2.949c0-1.744,0.437-3.104,1.309-4.077
				c0.872-0.973,2.083-1.46,3.633-1.46c1.497,0,2.688,0.498,3.569,1.494S133.874,184.132,133.874,185.831z M125.72,185.831
				c0,1.367,0.273,2.409,0.82,3.125c0.547,0.717,1.351,1.074,2.412,1.074s1.867-0.356,2.417-1.069s0.825-1.756,0.825-3.13
				c0-1.36-0.275-2.394-0.825-3.101c-0.55-0.706-1.362-1.06-2.437-1.06c-1.062,0-1.862,0.349-2.402,1.045
				C125.99,183.413,125.72,184.451,125.72,185.831z"/>
			<path fill="#010101" d="M139.06,191.192l-4.063-10.703h1.738l2.305,6.348c0.521,1.484,0.827,2.448,0.918,2.891h0.078
				c0.071-0.345,0.298-1.06,0.679-2.144s1.235-3.448,2.563-7.095h1.738l-4.063,10.703H139.06z"/>
			<path fill="#010101" d="M151.257,191.388c-1.582,0-2.83-0.481-3.745-1.445c-0.915-0.963-1.372-2.301-1.372-4.014
				c0-1.725,0.425-3.096,1.274-4.111s1.99-1.523,3.423-1.523c1.341,0,2.402,0.441,3.184,1.323c0.781,0.883,1.172,2.046,1.172,3.491
				v1.025h-7.373c0.032,1.257,0.35,2.211,0.952,2.861c0.603,0.651,1.45,0.977,2.544,0.977c1.152,0,2.292-0.24,3.418-0.723v1.445
				c-0.573,0.248-1.115,0.425-1.626,0.532S151.979,191.388,151.257,191.388z M150.817,181.651c-0.859,0-1.545,0.28-2.056,0.84
				c-0.511,0.561-0.813,1.335-0.903,2.324h5.596c0-1.021-0.228-1.805-0.684-2.349C152.314,181.924,151.664,181.651,150.817,181.651z
				"/>
			<path fill="#010101" d="M162.839,180.294c0.476,0,0.901,0.039,1.279,0.117l-0.225,1.504c-0.442-0.098-0.833-0.146-1.172-0.146
				c-0.866,0-1.606,0.352-2.222,1.055s-0.923,1.579-0.923,2.627v5.742h-1.621v-10.703h1.338l0.186,1.982h0.078
				c0.397-0.696,0.876-1.233,1.436-1.611C161.553,180.483,162.168,180.294,162.839,180.294z"/>
			<path fill="#010101" d="M164.421,180.489h1.738l2.344,6.104c0.515,1.394,0.833,2.399,0.957,3.018h0.078
				c0.085-0.332,0.262-0.899,0.532-1.704c0.271-0.804,1.154-3.276,2.651-7.417h1.738l-4.6,12.188
				c-0.456,1.205-0.988,2.06-1.597,2.563c-0.608,0.505-1.355,0.757-2.241,0.757c-0.495,0-0.983-0.055-1.465-0.166v-1.299
				c0.358,0.078,0.759,0.117,1.201,0.117c1.113,0,1.907-0.625,2.383-1.875l0.596-1.523L164.421,180.489z"/>
			<path fill="#010101" d="M185.671,191.388c-1.55,0-2.749-0.477-3.599-1.431c-0.85-0.953-1.274-2.303-1.274-4.048
				c0-1.79,0.432-3.174,1.294-4.15s2.092-1.465,3.687-1.465c0.515,0,1.028,0.056,1.543,0.166c0.515,0.111,0.918,0.241,1.211,0.391
				l-0.498,1.377c-0.358-0.143-0.749-0.262-1.172-0.356c-0.423-0.094-0.798-0.142-1.123-0.142c-2.175,0-3.262,1.387-3.262,4.16
				c0,1.315,0.266,2.324,0.796,3.027s1.316,1.055,2.358,1.055c0.892,0,1.807-0.191,2.744-0.576v1.436
				C187.66,191.202,186.758,191.388,185.671,191.388z"/>
			<path fill="#010101" d="M198.239,191.192v-6.924c0-0.872-0.198-1.523-0.596-1.953s-1.019-0.645-1.865-0.645
				c-1.126,0-1.948,0.307-2.466,0.918c-0.518,0.612-0.776,1.615-0.776,3.008v5.596h-1.621v-15.195h1.621v4.6
				c0,0.554-0.026,1.013-0.078,1.377h0.098c0.319-0.514,0.773-0.919,1.362-1.216c0.589-0.296,1.262-0.444,2.017-0.444
				c1.309,0,2.29,0.312,2.944,0.933c0.654,0.622,0.981,1.61,0.981,2.964v6.982H198.239z"/>
			<path fill="#010101" d="M209.772,191.192l-0.322-1.523h-0.078c-0.534,0.671-1.066,1.125-1.597,1.362
				c-0.53,0.238-1.193,0.356-1.987,0.356c-1.062,0-1.893-0.273-2.495-0.82s-0.903-1.324-0.903-2.334
				c0-2.161,1.729-3.294,5.186-3.398l1.816-0.059v-0.664c0-0.84-0.181-1.46-0.542-1.86s-0.939-0.601-1.733-0.601
				c-0.892,0-1.901,0.273-3.027,0.82l-0.498-1.24c0.527-0.286,1.105-0.511,1.733-0.674c0.628-0.162,1.258-0.244,1.89-0.244
				c1.276,0,2.222,0.283,2.837,0.85s0.923,1.475,0.923,2.725v7.305H209.772z M206.11,190.05c1.009,0,1.802-0.276,2.378-0.83
				c0.576-0.553,0.864-1.328,0.864-2.324v-0.967l-1.621,0.068c-1.289,0.046-2.219,0.246-2.788,0.601
				c-0.569,0.355-0.854,0.907-0.854,1.655c0,0.586,0.178,1.032,0.532,1.338C204.976,189.897,205.473,190.05,206.11,190.05z"/>
			<path fill="#010101" d="M221.638,191.192v-6.924c0-0.872-0.198-1.523-0.596-1.953s-1.019-0.645-1.865-0.645
				c-1.12,0-1.94,0.303-2.461,0.908s-0.781,1.605-0.781,2.998v5.615h-1.621v-10.703h1.318l0.264,1.465h0.078
				c0.332-0.527,0.798-0.936,1.396-1.226c0.599-0.289,1.267-0.435,2.002-0.435c1.289,0,2.259,0.312,2.91,0.933
				c0.651,0.622,0.977,1.616,0.977,2.983v6.982H221.638z"/>
			<path fill="#010101" d="M233.913,191.192v-6.924c0-0.872-0.198-1.523-0.596-1.953s-1.019-0.645-1.865-0.645
				c-1.12,0-1.94,0.303-2.461,0.908s-0.781,1.605-0.781,2.998v5.615h-1.621v-10.703h1.318l0.264,1.465h0.078
				c0.332-0.527,0.798-0.936,1.396-1.226c0.599-0.289,1.267-0.435,2.002-0.435c1.289,0,2.259,0.312,2.91,0.933
				c0.651,0.622,0.977,1.616,0.977,2.983v6.982H233.913z"/>
			<path fill="#010101" d="M243.386,191.388c-1.582,0-2.83-0.481-3.745-1.445c-0.915-0.963-1.372-2.301-1.372-4.014
				c0-1.725,0.425-3.096,1.274-4.111s1.99-1.523,3.423-1.523c1.341,0,2.402,0.441,3.184,1.323c0.781,0.883,1.172,2.046,1.172,3.491
				v1.025h-7.373c0.032,1.257,0.35,2.211,0.952,2.861c0.603,0.651,1.45,0.977,2.544,0.977c1.152,0,2.292-0.24,3.418-0.723v1.445
				c-0.573,0.248-1.115,0.425-1.626,0.532S244.108,191.388,243.386,191.388z M242.946,181.651c-0.859,0-1.545,0.28-2.056,0.84
				c-0.511,0.561-0.813,1.335-0.903,2.324h5.596c0-1.021-0.228-1.805-0.684-2.349C244.443,181.924,243.793,181.651,242.946,181.651z
				"/>
			<path fill="#010101" d="M251.706,191.192h-1.621v-15.195h1.621V191.192z"/>
			<path opacity="0.3" fill="#010101" d="M94.903,223.667c0,1.886-0.512,3.327-1.535,4.324c-1.023,0.998-2.496,1.496-4.418,1.496
				h-3.164v-11.422h3.5c1.776,0,3.156,0.492,4.141,1.477S94.903,221.901,94.903,223.667z M93.497,223.714
				c0-1.489-0.374-2.611-1.121-3.367c-0.747-0.755-1.858-1.133-3.332-1.133h-1.93v9.125h1.617c1.583,0,2.773-0.389,3.57-1.168
				C93.099,226.393,93.497,225.24,93.497,223.714z"/>
			<path opacity="0.3" fill="#010101" d="M97.146,218.604c0-0.297,0.073-0.514,0.219-0.652c0.146-0.138,0.328-0.207,0.547-0.207
				c0.208,0,0.388,0.07,0.539,0.211s0.227,0.357,0.227,0.648c0,0.292-0.075,0.51-0.227,0.652c-0.151,0.144-0.331,0.215-0.539,0.215
				c-0.219,0-0.401-0.071-0.547-0.215C97.219,219.114,97.146,218.896,97.146,218.604z M98.552,229.487h-1.297v-8.563h1.297V229.487z
				"/>
			<path opacity="0.3" fill="#010101" d="M106.825,227.151c0,0.797-0.297,1.412-0.891,1.844c-0.594,0.433-1.427,0.648-2.5,0.648
				c-1.136,0-2.021-0.18-2.656-0.539v-1.203c0.411,0.209,0.853,0.373,1.324,0.492c0.472,0.12,0.926,0.18,1.363,0.18
				c0.677,0,1.198-0.107,1.563-0.324c0.364-0.216,0.547-0.545,0.547-0.988c0-0.333-0.145-0.618-0.434-0.855
				c-0.289-0.236-0.853-0.517-1.691-0.84c-0.797-0.297-1.363-0.556-1.699-0.777c-0.336-0.221-0.586-0.473-0.75-0.754
				s-0.246-0.617-0.246-1.008c0-0.697,0.284-1.248,0.852-1.652c0.567-0.403,1.347-0.605,2.336-0.605
				c0.922,0,1.823,0.188,2.703,0.563l-0.461,1.055c-0.859-0.354-1.638-0.531-2.336-0.531c-0.614,0-1.078,0.097-1.391,0.289
				c-0.313,0.193-0.469,0.459-0.469,0.797c0,0.229,0.059,0.425,0.176,0.586c0.117,0.162,0.306,0.315,0.566,0.461
				c0.261,0.146,0.761,0.357,1.5,0.633c1.016,0.37,1.702,0.742,2.059,1.117S106.825,226.584,106.825,227.151z"/>
			<path opacity="0.3" fill="#010101" d="M112.356,229.644c-1.239,0-2.199-0.381-2.879-1.145c-0.68-0.763-1.02-1.842-1.02-3.238
				c0-1.432,0.345-2.539,1.035-3.32s1.673-1.172,2.949-1.172c0.411,0,0.823,0.045,1.234,0.133c0.411,0.089,0.734,0.193,0.969,0.313
				l-0.398,1.102c-0.286-0.114-0.599-0.209-0.938-0.285c-0.339-0.075-0.638-0.113-0.898-0.113c-1.739,0-2.609,1.109-2.609,3.328
				c0,1.053,0.212,1.859,0.637,2.422s1.054,0.844,1.887,0.844c0.714,0,1.445-0.153,2.195-0.461v1.148
				C113.947,229.495,113.227,229.644,112.356,229.644z"/>
			<path opacity="0.3" fill="#010101" d="M123.942,225.198c0,1.396-0.352,2.486-1.055,3.27c-0.703,0.784-1.675,1.176-2.914,1.176
				c-0.766,0-1.445-0.18-2.039-0.539s-1.052-0.875-1.375-1.547s-0.484-1.458-0.484-2.359c0-1.396,0.349-2.482,1.047-3.262
				c0.698-0.778,1.667-1.168,2.906-1.168c1.198,0,2.149,0.398,2.855,1.195S123.942,223.839,123.942,225.198z M117.419,225.198
				c0,1.094,0.219,1.928,0.656,2.5c0.438,0.573,1.081,0.859,1.93,0.859s1.493-0.285,1.934-0.855s0.66-1.404,0.66-2.504
				c0-1.088-0.22-1.915-0.66-2.48c-0.44-0.564-1.09-0.848-1.949-0.848c-0.849,0-1.489,0.279-1.922,0.836
				C117.635,223.264,117.419,224.095,117.419,225.198z"/>
			<path opacity="0.3" fill="#010101" d="M128.091,229.487l-3.25-8.563h1.391l1.844,5.078c0.417,1.188,0.661,1.959,0.734,2.313
				h0.063c0.058-0.275,0.238-0.848,0.543-1.715s0.988-2.759,2.051-5.676h1.391l-3.25,8.563H128.091z"/>
			<path opacity="0.3" fill="#010101" d="M137.849,229.644c-1.266,0-2.265-0.385-2.996-1.156c-0.731-0.771-1.098-1.841-1.098-3.211
				c0-1.38,0.34-2.477,1.02-3.289s1.593-1.219,2.738-1.219c1.073,0,1.922,0.354,2.547,1.059c0.625,0.706,0.938,1.637,0.938,2.793
				v0.82h-5.898c0.026,1.006,0.28,1.769,0.762,2.289c0.481,0.521,1.16,0.781,2.035,0.781c0.922,0,1.833-0.192,2.734-0.578v1.156
				c-0.458,0.198-0.892,0.34-1.301,0.426S138.427,229.644,137.849,229.644z M137.497,221.854c-0.688,0-1.235,0.225-1.645,0.672
				c-0.409,0.448-0.649,1.068-0.723,1.859h4.477c0-0.817-0.183-1.443-0.547-1.879C138.695,222.072,138.174,221.854,137.497,221.854z
				"/>
			<path opacity="0.3" fill="#010101" d="M147.114,220.769c0.38,0,0.722,0.031,1.023,0.094l-0.18,1.203
				c-0.354-0.078-0.667-0.117-0.938-0.117c-0.692,0-1.285,0.281-1.777,0.844s-0.738,1.264-0.738,2.102v4.594h-1.297v-8.563h1.07
				l0.148,1.586h0.063c0.317-0.557,0.7-0.986,1.148-1.289C146.086,220.92,146.578,220.769,147.114,220.769z"/>
			<path opacity="0.3" fill="#010101" d="M148.38,220.925h1.391l1.875,4.883c0.411,1.115,0.667,1.92,0.766,2.414h0.063
				c0.067-0.266,0.21-0.72,0.426-1.363c0.216-0.643,0.923-2.621,2.121-5.934h1.391l-3.68,9.75c-0.364,0.964-0.79,1.647-1.277,2.051
				c-0.487,0.404-1.085,0.605-1.793,0.605c-0.396,0-0.786-0.044-1.172-0.133v-1.039c0.286,0.063,0.606,0.094,0.961,0.094
				c0.891,0,1.526-0.5,1.906-1.5l0.477-1.219L148.38,220.925z"/>
			<path opacity="0.3" fill="#010101" d="M157.614,221.761c0-0.703,0.308-1.055,0.922-1.055c0.641,0,0.961,0.352,0.961,1.055
				c0,0.339-0.086,0.6-0.258,0.781c-0.172,0.183-0.406,0.273-0.703,0.273c-0.266,0-0.485-0.082-0.66-0.246
				S157.614,222.136,157.614,221.761z M157.614,228.659c0-0.349,0.079-0.613,0.238-0.793s0.387-0.27,0.684-0.27
				c0.302,0,0.538,0.09,0.707,0.27s0.254,0.444,0.254,0.793c0,0.339-0.086,0.6-0.258,0.781c-0.172,0.183-0.406,0.273-0.703,0.273
				c-0.266,0-0.485-0.082-0.66-0.246S157.614,229.034,157.614,228.659z"/>
			<path opacity="0.3" fill="#010101" d="M166.411,218.065h3.227c1.516,0,2.612,0.227,3.289,0.68s1.016,1.17,1.016,2.148
				c0,0.678-0.188,1.236-0.566,1.676c-0.378,0.44-0.929,0.726-1.652,0.855v0.078c1.734,0.297,2.602,1.209,2.602,2.734
				c0,1.021-0.345,1.818-1.035,2.391c-0.69,0.573-1.655,0.859-2.895,0.859h-3.984V218.065z M167.739,222.956h2.188
				c0.938,0,1.612-0.146,2.023-0.441c0.411-0.294,0.617-0.79,0.617-1.488c0-0.641-0.229-1.103-0.688-1.387
				c-0.458-0.283-1.188-0.426-2.188-0.426h-1.953V222.956z M167.739,224.081v4.273h2.383c0.922,0,1.616-0.178,2.082-0.535
				c0.466-0.356,0.699-0.915,0.699-1.676c0-0.708-0.238-1.229-0.715-1.563c-0.477-0.333-1.202-0.5-2.176-0.5H167.739z"/>
			<path opacity="0.3" fill="#010101" d="M177.88,220.925v3.586h4.797v-3.586h1.297v8.563h-1.297v-3.859h-4.797v3.859h-1.297v-8.563
				H177.88z"/>
			<path opacity="0.3" fill="#010101" d="M185.364,220.925h1.391l1.875,4.883c0.411,1.115,0.667,1.92,0.766,2.414h0.063
				c0.067-0.266,0.21-0.72,0.426-1.363c0.216-0.643,0.923-2.621,2.121-5.934h1.391l-3.68,9.75c-0.364,0.964-0.79,1.647-1.277,2.051
				c-0.487,0.404-1.085,0.605-1.793,0.605c-0.396,0-0.786-0.044-1.172-0.133v-1.039c0.286,0.063,0.606,0.094,0.961,0.094
				c0.891,0,1.526-0.5,1.906-1.5l0.477-1.219L185.364,220.925z"/>
			<path opacity="0.3" fill="#010101" d="M200.56,222.034h-2.781v7.453h-1.297v-7.453h-2.75v-1.109h6.828V222.034z"/>
			<path opacity="0.3" fill="#010101" d="M206.239,229.644c-0.558,0-1.066-0.103-1.527-0.309c-0.461-0.205-0.848-0.521-1.16-0.949
				h-0.094c0.063,0.5,0.094,0.975,0.094,1.422v3.523h-1.297v-12.406h1.055l0.18,1.172h0.063c0.333-0.469,0.722-0.807,1.164-1.016
				c0.442-0.208,0.95-0.313,1.523-0.313c1.136,0,2.012,0.389,2.629,1.164c0.617,0.776,0.926,1.865,0.926,3.266
				c0,1.406-0.313,2.499-0.941,3.277C208.225,229.255,207.354,229.644,206.239,229.644z M206.052,221.87
				c-0.875,0-1.508,0.242-1.898,0.727s-0.591,1.256-0.602,2.313v0.289c0,1.203,0.2,2.064,0.602,2.582
				c0.401,0.519,1.044,0.777,1.93,0.777c0.739,0,1.319-0.299,1.738-0.898c0.419-0.599,0.629-1.424,0.629-2.477
				c0-1.067-0.21-1.887-0.629-2.457S206.813,221.87,206.052,221.87z"/>
			<path opacity="0.3" fill="#010101" d="M213.278,220.925v5.43l-0.055,1.422l-0.023,0.445l4.633-7.297h1.617v8.563h-1.211v-5.234
				l0.023-1.031l0.039-1.016l-4.625,7.281h-1.617v-8.563H213.278z"/>
			<path opacity="0.3" fill="#010101" d="M227.653,229.487h-1.297v-8.563h7.188v8.563h-1.313v-7.438h-4.578V229.487z"/>
			<path opacity="0.3" fill="#010101" d="M242.677,229.487h-1.313v-7.453h-2.57c-0.141,1.854-0.336,3.326-0.586,4.414
				c-0.25,1.089-0.574,1.886-0.973,2.391c-0.398,0.506-0.905,0.758-1.52,0.758c-0.281,0-0.505-0.031-0.672-0.094v-0.961
				c0.114,0.031,0.245,0.047,0.391,0.047c0.599,0,1.075-0.633,1.43-1.898s0.622-3.188,0.805-5.766h5.008V229.487z"/>
			<path opacity="0.3" fill="#010101" d="M250.692,229.487l-0.258-1.219h-0.063c-0.427,0.537-0.853,0.9-1.277,1.09
				c-0.425,0.19-0.954,0.285-1.59,0.285c-0.849,0-1.515-0.219-1.996-0.656s-0.723-1.06-0.723-1.867c0-1.729,1.383-2.635,4.148-2.719
				l1.453-0.047v-0.531c0-0.672-0.145-1.168-0.434-1.488s-0.751-0.48-1.387-0.48c-0.714,0-1.521,0.219-2.422,0.656l-0.398-0.992
				c0.422-0.229,0.884-0.408,1.387-0.539c0.503-0.13,1.007-0.195,1.512-0.195c1.021,0,1.777,0.227,2.27,0.68s0.738,1.18,0.738,2.18
				v5.844H250.692z M247.763,228.573c0.808,0,1.441-0.221,1.902-0.664c0.461-0.442,0.691-1.063,0.691-1.859v-0.773l-1.297,0.055
				c-1.031,0.037-1.774,0.197-2.23,0.48c-0.456,0.284-0.684,0.726-0.684,1.324c0,0.469,0.142,0.826,0.426,1.07
				C246.855,228.451,247.252,228.573,247.763,228.573z"/>
			<path opacity="0.3" fill="#010101" d="M255.622,220.925v3.586h4.797v-3.586h1.297v8.563h-1.297v-3.859h-4.797v3.859h-1.297
				v-8.563H255.622z"/>
			<path opacity="0.3" fill="#010101" d="M268.083,229.644c-1.266,0-2.265-0.385-2.996-1.156c-0.731-0.771-1.098-1.841-1.098-3.211
				c0-1.38,0.34-2.477,1.02-3.289s1.593-1.219,2.738-1.219c1.073,0,1.922,0.354,2.547,1.059c0.625,0.706,0.938,1.637,0.938,2.793
				v0.82h-5.898c0.026,1.006,0.28,1.769,0.762,2.289c0.481,0.521,1.16,0.781,2.035,0.781c0.922,0,1.833-0.192,2.734-0.578v1.156
				c-0.458,0.198-0.892,0.34-1.301,0.426S268.661,229.644,268.083,229.644z M267.731,221.854c-0.688,0-1.235,0.225-1.645,0.672
				c-0.409,0.448-0.649,1.068-0.723,1.859h4.477c0-0.817-0.183-1.443-0.547-1.879C268.93,222.072,268.408,221.854,267.731,221.854z"
				/>
			<path opacity="0.3" fill="#010101" d="M279.216,222.034h-2.781v7.453h-1.297v-7.453h-2.75v-1.109h6.828V222.034z"/>
			<path opacity="0.3" fill="#010101" d="M282.208,224.464h2.336c1.089,0,1.895,0.202,2.418,0.605
				c0.523,0.404,0.785,1.007,0.785,1.809c0,0.859-0.277,1.51-0.832,1.949c-0.555,0.44-1.371,0.66-2.449,0.66h-3.555v-8.563h1.297
				V224.464z M282.208,225.581v2.82h2.195c1.375,0,2.063-0.481,2.063-1.445c0-0.479-0.159-0.828-0.477-1.047
				s-0.859-0.328-1.625-0.328H282.208z M290.481,229.487h-1.297v-8.563h1.297V229.487z"/>
			<path opacity="0.3" fill="#010101" d="M304.208,220.737c0,0.75-0.238,1.359-0.715,1.828s-1.134,0.766-1.973,0.891v0.063
				c0.953,0.131,1.676,0.43,2.168,0.898s0.738,1.081,0.738,1.836c0,1.068-0.398,1.9-1.195,2.496
				c-0.797,0.597-1.922,0.895-3.375,0.895c-1.328,0-2.417-0.205-3.266-0.617v-1.234c0.5,0.24,1.04,0.425,1.621,0.555
				c0.581,0.131,1.14,0.195,1.676,0.195c1.031,0,1.812-0.195,2.34-0.586s0.793-0.953,0.793-1.688c0-0.697-0.293-1.227-0.879-1.586
				s-1.46-0.539-2.621-0.539h-1.703v-1.117h1.633c1.067,0,1.895-0.191,2.48-0.574s0.879-0.918,0.879-1.605
				c0-0.557-0.211-1.002-0.633-1.336c-0.422-0.333-0.989-0.5-1.703-0.5c-0.573,0-1.091,0.065-1.555,0.195
				c-0.464,0.131-1,0.389-1.609,0.773l-0.656-0.891c0.526-0.391,1.116-0.686,1.77-0.887c0.653-0.2,1.332-0.301,2.035-0.301
				c1.172,0,2.09,0.257,2.754,0.77C303.876,219.185,304.208,219.873,304.208,220.737z"/>
			<path opacity="0.3" fill="#010101" d="M310.302,229.644c-1.266,0-2.265-0.385-2.996-1.156c-0.731-0.771-1.098-1.841-1.098-3.211
				c0-1.38,0.34-2.477,1.02-3.289s1.593-1.219,2.738-1.219c1.073,0,1.922,0.354,2.547,1.059c0.625,0.706,0.938,1.637,0.938,2.793
				v0.82h-5.898c0.026,1.006,0.28,1.769,0.762,2.289c0.481,0.521,1.16,0.781,2.035,0.781c0.922,0,1.833-0.192,2.734-0.578v1.156
				c-0.458,0.198-0.892,0.34-1.301,0.426S310.88,229.644,310.302,229.644z M309.95,221.854c-0.688,0-1.235,0.225-1.645,0.672
				c-0.409,0.448-0.649,1.068-0.723,1.859h4.477c0-0.817-0.183-1.443-0.547-1.879C311.148,222.072,310.627,221.854,309.95,221.854z"
				/>
			<path opacity="0.3" fill="#010101" d="M320.106,228.237l0.242-0.727l0.336-0.922l2.32-5.648h1.648v8.547h-1.148v-7.07
				l-0.156,0.453l-0.453,1.195l-2.211,5.422h-1.086l-2.211-5.438c-0.276-0.697-0.466-1.242-0.57-1.633v7.07h-1.156v-8.547h1.586
				l2.242,5.43C319.713,226.943,319.919,227.565,320.106,228.237z"/>
			<path opacity="0.3" fill="#010101" d="M333.801,229.487h-1.313v-7.453h-2.57c-0.141,1.854-0.336,3.326-0.586,4.414
				c-0.25,1.089-0.574,1.886-0.973,2.391c-0.398,0.506-0.902,0.758-1.52,0.758c-0.28,0-0.504-0.031-0.671-0.094v-0.961
				c0.114,0.031,0.245,0.047,0.391,0.047c0.601,0,1.077-0.633,1.429-1.898c0.355-1.266,0.625-3.188,0.805-5.766h5.008V229.487z"/>
			<path opacity="0.3" fill="#010101" d="M336.98,229.487h-1.516l2.461-3.617c-0.662-0.146-1.168-0.428-1.52-0.848
				c-0.352-0.419-0.527-0.946-0.527-1.582c0-0.781,0.264-1.396,0.789-1.844c0.525-0.447,1.26-0.672,2.203-0.672h3.813v8.563h-1.297
				v-3.422h-2.164L336.98,229.487z M337.145,223.456c0,0.99,0.719,1.484,2.156,1.484h2.086v-2.891h-2.352
				C337.775,222.05,337.145,222.519,337.145,223.456z"/>
			<path opacity="0.2" fill="#010101" d="M94.903,261.962c0,1.886-0.512,3.327-1.535,4.324c-1.023,0.998-2.496,1.496-4.418,1.496
				h-3.164V256.36h3.5c1.776,0,3.156,0.492,4.141,1.477S94.903,260.196,94.903,261.962z M93.497,262.009
				c0-1.489-0.374-2.611-1.121-3.367c-0.747-0.755-1.858-1.133-3.332-1.133h-1.93v9.125h1.617c1.583,0,2.773-0.389,3.57-1.168
				C93.099,264.688,93.497,263.535,93.497,262.009z"/>
			<path opacity="0.2" fill="#010101" d="M97.146,256.899c0-0.297,0.073-0.514,0.219-0.652c0.146-0.138,0.328-0.207,0.547-0.207
				c0.208,0,0.388,0.07,0.539,0.211s0.227,0.357,0.227,0.648c0,0.292-0.075,0.51-0.227,0.652c-0.151,0.144-0.331,0.215-0.539,0.215
				c-0.219,0-0.401-0.071-0.547-0.215C97.219,257.409,97.146,257.191,97.146,256.899z M98.552,267.782h-1.297v-8.563h1.297V267.782z
				"/>
			<path opacity="0.2" fill="#010101" d="M106.825,265.446c0,0.797-0.297,1.412-0.891,1.844c-0.594,0.433-1.427,0.648-2.5,0.648
				c-1.136,0-2.021-0.18-2.656-0.539v-1.203c0.411,0.209,0.853,0.373,1.324,0.492c0.472,0.12,0.926,0.18,1.363,0.18
				c0.677,0,1.198-0.107,1.563-0.324c0.364-0.216,0.547-0.545,0.547-0.988c0-0.333-0.145-0.618-0.434-0.855
				c-0.289-0.236-0.853-0.517-1.691-0.84c-0.797-0.297-1.363-0.556-1.699-0.777c-0.336-0.221-0.586-0.473-0.75-0.754
				s-0.246-0.617-0.246-1.008c0-0.697,0.284-1.248,0.852-1.652c0.567-0.403,1.347-0.605,2.336-0.605
				c0.922,0,1.823,0.188,2.703,0.563l-0.461,1.055c-0.859-0.354-1.638-0.531-2.336-0.531c-0.614,0-1.078,0.097-1.391,0.289
				c-0.313,0.193-0.469,0.459-0.469,0.797c0,0.229,0.059,0.425,0.176,0.586c0.117,0.162,0.306,0.315,0.566,0.461
				c0.261,0.146,0.761,0.357,1.5,0.633c1.016,0.37,1.702,0.742,2.059,1.117S106.825,264.879,106.825,265.446z"/>
			<path opacity="0.2" fill="#010101" d="M112.356,267.938c-1.239,0-2.199-0.381-2.879-1.145c-0.68-0.763-1.02-1.842-1.02-3.238
				c0-1.432,0.345-2.539,1.035-3.32s1.673-1.172,2.949-1.172c0.411,0,0.823,0.045,1.234,0.133c0.411,0.089,0.734,0.193,0.969,0.313
				l-0.398,1.102c-0.286-0.114-0.599-0.209-0.938-0.285c-0.339-0.075-0.638-0.113-0.898-0.113c-1.739,0-2.609,1.109-2.609,3.328
				c0,1.053,0.212,1.859,0.637,2.422s1.054,0.844,1.887,0.844c0.714,0,1.445-0.153,2.195-0.461v1.148
				C113.947,267.79,113.227,267.938,112.356,267.938z"/>
			<path opacity="0.2" fill="#010101" d="M123.942,263.493c0,1.396-0.352,2.486-1.055,3.27c-0.703,0.784-1.675,1.176-2.914,1.176
				c-0.766,0-1.445-0.18-2.039-0.539s-1.052-0.875-1.375-1.547s-0.484-1.458-0.484-2.359c0-1.396,0.349-2.482,1.047-3.262
				c0.698-0.778,1.667-1.168,2.906-1.168c1.198,0,2.149,0.398,2.855,1.195S123.942,262.134,123.942,263.493z M117.419,263.493
				c0,1.094,0.219,1.928,0.656,2.5c0.438,0.573,1.081,0.859,1.93,0.859s1.493-0.285,1.934-0.855s0.66-1.404,0.66-2.504
				c0-1.088-0.22-1.915-0.66-2.48c-0.44-0.564-1.09-0.848-1.949-0.848c-0.849,0-1.489,0.279-1.922,0.836
				C117.635,261.559,117.419,262.39,117.419,263.493z"/>
			<path opacity="0.2" fill="#010101" d="M128.091,267.782l-3.25-8.563h1.391l1.844,5.078c0.417,1.188,0.661,1.959,0.734,2.313
				h0.063c0.058-0.275,0.238-0.848,0.543-1.715s0.988-2.759,2.051-5.676h1.391l-3.25,8.563H128.091z"/>
			<path opacity="0.2" fill="#010101" d="M137.849,267.938c-1.266,0-2.265-0.385-2.996-1.156c-0.731-0.771-1.098-1.841-1.098-3.211
				c0-1.38,0.34-2.477,1.02-3.289s1.593-1.219,2.738-1.219c1.073,0,1.922,0.354,2.547,1.059c0.625,0.706,0.938,1.637,0.938,2.793
				v0.82h-5.898c0.026,1.006,0.28,1.769,0.762,2.289c0.481,0.521,1.16,0.781,2.035,0.781c0.922,0,1.833-0.192,2.734-0.578v1.156
				c-0.458,0.198-0.892,0.34-1.301,0.426S138.427,267.938,137.849,267.938z M137.497,260.149c-0.688,0-1.235,0.225-1.645,0.672
				c-0.409,0.448-0.649,1.068-0.723,1.859h4.477c0-0.817-0.183-1.443-0.547-1.879C138.695,260.367,138.174,260.149,137.497,260.149z
				"/>
			<path opacity="0.2" fill="#010101" d="M147.114,259.063c0.38,0,0.722,0.031,1.023,0.094l-0.18,1.203
				c-0.354-0.078-0.667-0.117-0.938-0.117c-0.692,0-1.285,0.281-1.777,0.844s-0.738,1.264-0.738,2.102v4.594h-1.297v-8.563h1.07
				l0.148,1.586h0.063c0.317-0.557,0.7-0.986,1.148-1.289C146.086,259.215,146.578,259.063,147.114,259.063z"/>
			<path opacity="0.2" fill="#010101" d="M148.38,259.22h1.391l1.875,4.883c0.411,1.115,0.667,1.92,0.766,2.414h0.063
				c0.067-0.266,0.21-0.72,0.426-1.363c0.216-0.643,0.923-2.621,2.121-5.934h1.391l-3.68,9.75c-0.364,0.964-0.79,1.647-1.277,2.051
				c-0.487,0.404-1.085,0.605-1.793,0.605c-0.396,0-0.786-0.044-1.172-0.133v-1.039c0.286,0.063,0.606,0.094,0.961,0.094
				c0.891,0,1.526-0.5,1.906-1.5l0.477-1.219L148.38,259.22z"/>
			<path opacity="0.2" fill="#010101" d="M157.614,260.056c0-0.703,0.308-1.055,0.922-1.055c0.641,0,0.961,0.352,0.961,1.055
				c0,0.339-0.086,0.6-0.258,0.781c-0.172,0.183-0.406,0.273-0.703,0.273c-0.266,0-0.485-0.082-0.66-0.246
				S157.614,260.431,157.614,260.056z M157.614,266.954c0-0.349,0.079-0.613,0.238-0.793s0.387-0.27,0.684-0.27
				c0.302,0,0.538,0.09,0.707,0.27s0.254,0.444,0.254,0.793c0,0.339-0.086,0.6-0.258,0.781c-0.172,0.183-0.406,0.273-0.703,0.273
				c-0.266,0-0.485-0.082-0.66-0.246S157.614,267.329,157.614,266.954z"/>
			<path opacity="0.2" fill="#010101" d="M173.591,267.782l-1.422-3.633h-4.578l-1.406,3.633h-1.344l4.516-11.469h1.117
				l4.492,11.469H173.591z M171.755,262.954l-1.328-3.539c-0.172-0.447-0.349-0.997-0.531-1.648c-0.114,0.5-0.278,1.05-0.492,1.648
				l-1.344,3.539H171.755z"/>
			<path opacity="0.2" fill="#010101" d="M177.638,259.22v3.586h4.797v-3.586h1.297v8.563h-1.297v-3.859h-4.797v3.859h-1.297v-8.563
				H177.638z"/>
			<path opacity="0.2" fill="#010101" d="M193.872,263.493c0,1.396-0.352,2.486-1.055,3.27c-0.703,0.784-1.675,1.176-2.914,1.176
				c-0.766,0-1.445-0.18-2.039-0.539s-1.052-0.875-1.375-1.547s-0.484-1.458-0.484-2.359c0-1.396,0.349-2.482,1.047-3.262
				c0.698-0.778,1.667-1.168,2.906-1.168c1.198,0,2.149,0.398,2.855,1.195S193.872,262.134,193.872,263.493z M187.349,263.493
				c0,1.094,0.219,1.928,0.656,2.5c0.438,0.573,1.081,0.859,1.93,0.859s1.493-0.285,1.934-0.855s0.66-1.404,0.66-2.504
				c0-1.088-0.22-1.915-0.66-2.48c-0.44-0.564-1.09-0.848-1.949-0.848c-0.849,0-1.489,0.279-1.922,0.836
				C187.564,261.559,187.349,262.39,187.349,263.493z"/>
			<path opacity="0.2" fill="#010101" d="M200.591,266.532l0.242-0.727l0.336-0.922l2.32-5.648h1.648v8.547h-1.148v-7.07
				l-0.156,0.453l-0.453,1.195l-2.211,5.422h-1.086l-2.211-5.438c-0.276-0.697-0.466-1.242-0.57-1.633v7.07h-1.156v-8.547h1.586
				l2.242,5.43C200.197,265.238,200.403,265.86,200.591,266.532z"/>
			<path opacity="0.2" fill="#010101" d="M213.169,267.782l-0.258-1.219h-0.063c-0.427,0.537-0.853,0.9-1.277,1.09
				c-0.425,0.19-0.954,0.285-1.59,0.285c-0.849,0-1.515-0.219-1.996-0.656s-0.723-1.06-0.723-1.867c0-1.729,1.383-2.635,4.148-2.719
				l1.453-0.047v-0.531c0-0.672-0.145-1.168-0.434-1.488s-0.751-0.48-1.387-0.48c-0.714,0-1.521,0.219-2.422,0.656l-0.398-0.992
				c0.422-0.229,0.884-0.408,1.387-0.539c0.503-0.13,1.007-0.195,1.512-0.195c1.021,0,1.777,0.227,2.27,0.68s0.738,1.18,0.738,2.18
				v5.844H213.169z M210.239,266.868c0.808,0,1.441-0.221,1.902-0.664c0.461-0.442,0.691-1.063,0.691-1.859v-0.773l-1.297,0.055
				c-1.031,0.037-1.774,0.197-2.23,0.48c-0.456,0.284-0.684,0.726-0.684,1.324c0,0.469,0.142,0.826,0.426,1.07
				C209.332,266.746,209.729,266.868,210.239,266.868z"/>
			<path opacity="0.2" fill="#010101" d="M223.185,267.782h-1.313v-7.453h-2.57c-0.141,1.854-0.336,3.326-0.586,4.414
				c-0.25,1.089-0.574,1.886-0.973,2.391c-0.398,0.506-0.905,0.758-1.52,0.758c-0.281,0-0.505-0.031-0.672-0.094v-0.961
				c0.114,0.031,0.245,0.047,0.391,0.047c0.599,0,1.075-0.633,1.43-1.898s0.622-3.188,0.805-5.766h5.008V267.782z"/>
			<path opacity="0.2" fill="#010101" d="M227.153,259.22v5.43l-0.055,1.422l-0.023,0.445l4.633-7.297h1.617v8.563h-1.211v-5.234
				l0.023-1.031l0.039-1.016l-4.625,7.281h-1.617v-8.563H227.153z"/>
			<path opacity="0.2" fill="#010101" d="M236.505,267.782h-1.516l2.461-3.617c-0.661-0.146-1.168-0.428-1.52-0.848
				c-0.352-0.419-0.527-0.946-0.527-1.582c0-0.781,0.263-1.396,0.789-1.844c0.526-0.447,1.261-0.672,2.203-0.672h3.813v8.563h-1.297
				v-3.422h-2.164L236.505,267.782z M236.669,261.751c0,0.99,0.719,1.484,2.156,1.484h2.086v-2.891h-2.352
				C237.299,260.345,236.669,260.813,236.669,261.751z"/>
			<path opacity="0.2" fill="#010101" d="M254.888,260.329h-2.781v7.453h-1.297v-7.453h-2.75v-1.109h6.828V260.329z"/>
			<path opacity="0.2" fill="#010101" d="M260.2,267.938c-1.266,0-2.265-0.385-2.996-1.156c-0.731-0.771-1.098-1.841-1.098-3.211
				c0-1.38,0.34-2.477,1.02-3.289s1.593-1.219,2.738-1.219c1.073,0,1.922,0.354,2.547,1.059c0.625,0.706,0.938,1.637,0.938,2.793
				v0.82h-5.898c0.026,1.006,0.28,1.769,0.762,2.289c0.481,0.521,1.16,0.781,2.035,0.781c0.922,0,1.833-0.192,2.734-0.578v1.156
				c-0.458,0.198-0.892,0.34-1.301,0.426S260.778,267.938,260.2,267.938z M259.849,260.149c-0.688,0-1.235,0.225-1.645,0.672
				c-0.409,0.448-0.649,1.068-0.723,1.859h4.477c0-0.817-0.183-1.443-0.547-1.879C261.047,260.367,260.525,260.149,259.849,260.149z
				"/>
			<path opacity="0.2" fill="#010101" d="M271.942,267.782h-1.313v-7.453h-2.57c-0.141,1.854-0.336,3.326-0.586,4.414
				c-0.25,1.089-0.574,1.886-0.973,2.391c-0.398,0.506-0.905,0.758-1.52,0.758c-0.281,0-0.505-0.031-0.672-0.094v-0.961
				c0.114,0.031,0.245,0.047,0.391,0.047c0.599,0,1.075-0.633,1.43-1.898s0.622-3.188,0.805-5.766h5.008V267.782z"/>
			<path opacity="0.2" fill="#010101" d="M279.958,267.782l-0.258-1.219h-0.063c-0.427,0.537-0.853,0.9-1.277,1.09
				c-0.425,0.19-0.954,0.285-1.59,0.285c-0.849,0-1.515-0.219-1.996-0.656s-0.723-1.06-0.723-1.867c0-1.729,1.383-2.635,4.148-2.719
				l1.453-0.047v-0.531c0-0.672-0.145-1.168-0.434-1.488s-0.751-0.48-1.387-0.48c-0.714,0-1.521,0.219-2.422,0.656l-0.398-0.992
				c0.422-0.229,0.884-0.408,1.387-0.539c0.503-0.13,1.007-0.195,1.512-0.195c1.021,0,1.777,0.227,2.27,0.68s0.738,1.18,0.738,2.18
				v5.844H279.958z M277.028,266.868c0.808,0,1.441-0.221,1.902-0.664c0.461-0.442,0.691-1.063,0.691-1.859v-0.773l-1.297,0.055
				c-1.031,0.037-1.774,0.197-2.23,0.48c-0.456,0.284-0.684,0.726-0.684,1.324c0,0.469,0.142,0.826,0.426,1.07
				C276.121,266.746,276.518,266.868,277.028,266.868z"/>
			<path opacity="0.1" fill="#010101" d="M94.903,300.257c0,1.886-0.512,3.327-1.535,4.324c-1.023,0.998-2.496,1.496-4.418,1.496
				h-3.164v-11.422h3.5c1.776,0,3.156,0.492,4.141,1.477S94.903,298.491,94.903,300.257z M93.497,300.304
				c0-1.489-0.374-2.611-1.121-3.367c-0.747-0.755-1.858-1.133-3.332-1.133h-1.93v9.125h1.617c1.583,0,2.773-0.389,3.57-1.168
				C93.099,302.982,93.497,301.83,93.497,300.304z"/>
			<path opacity="0.1" fill="#010101" d="M97.146,295.194c0-0.297,0.073-0.514,0.219-0.652c0.146-0.138,0.328-0.207,0.547-0.207
				c0.208,0,0.388,0.07,0.539,0.211s0.227,0.357,0.227,0.648c0,0.292-0.075,0.51-0.227,0.652c-0.151,0.144-0.331,0.215-0.539,0.215
				c-0.219,0-0.401-0.071-0.547-0.215C97.219,295.704,97.146,295.486,97.146,295.194z M98.552,306.077h-1.297v-8.563h1.297V306.077z
				"/>
			<path opacity="0.1" fill="#010101" d="M106.825,303.741c0,0.797-0.297,1.412-0.891,1.844c-0.594,0.433-1.427,0.648-2.5,0.648
				c-1.136,0-2.021-0.18-2.656-0.539v-1.203c0.411,0.209,0.853,0.373,1.324,0.492c0.472,0.12,0.926,0.18,1.363,0.18
				c0.677,0,1.198-0.107,1.563-0.324c0.364-0.216,0.547-0.545,0.547-0.988c0-0.333-0.145-0.618-0.434-0.855
				c-0.289-0.236-0.853-0.517-1.691-0.84c-0.797-0.297-1.363-0.556-1.699-0.777c-0.336-0.221-0.586-0.473-0.75-0.754
				s-0.246-0.617-0.246-1.008c0-0.697,0.284-1.248,0.852-1.652c0.567-0.403,1.347-0.605,2.336-0.605
				c0.922,0,1.823,0.188,2.703,0.563l-0.461,1.055c-0.859-0.354-1.638-0.531-2.336-0.531c-0.614,0-1.078,0.097-1.391,0.289
				c-0.313,0.193-0.469,0.459-0.469,0.797c0,0.229,0.059,0.425,0.176,0.586c0.117,0.162,0.306,0.315,0.566,0.461
				c0.261,0.146,0.761,0.357,1.5,0.633c1.016,0.37,1.702,0.742,2.059,1.117S106.825,303.174,106.825,303.741z"/>
			<path opacity="0.1" fill="#010101" d="M112.356,306.233c-1.239,0-2.199-0.381-2.879-1.145c-0.68-0.763-1.02-1.842-1.02-3.238
				c0-1.432,0.345-2.539,1.035-3.32s1.673-1.172,2.949-1.172c0.411,0,0.823,0.045,1.234,0.133c0.411,0.089,0.734,0.193,0.969,0.313
				l-0.398,1.102c-0.286-0.114-0.599-0.209-0.938-0.285c-0.339-0.075-0.638-0.113-0.898-0.113c-1.739,0-2.609,1.109-2.609,3.328
				c0,1.053,0.212,1.859,0.637,2.422s1.054,0.844,1.887,0.844c0.714,0,1.445-0.153,2.195-0.461v1.148
				C113.947,306.085,113.227,306.233,112.356,306.233z"/>
			<path opacity="0.1" fill="#010101" d="M123.942,301.788c0,1.396-0.352,2.486-1.055,3.27c-0.703,0.784-1.675,1.176-2.914,1.176
				c-0.766,0-1.445-0.18-2.039-0.539s-1.052-0.875-1.375-1.547s-0.484-1.458-0.484-2.359c0-1.396,0.349-2.482,1.047-3.262
				c0.698-0.778,1.667-1.168,2.906-1.168c1.198,0,2.149,0.398,2.855,1.195S123.942,300.429,123.942,301.788z M117.419,301.788
				c0,1.094,0.219,1.928,0.656,2.5c0.438,0.573,1.081,0.859,1.93,0.859s1.493-0.285,1.934-0.855s0.66-1.404,0.66-2.504
				c0-1.088-0.22-1.915-0.66-2.48c-0.44-0.564-1.09-0.848-1.949-0.848c-0.849,0-1.489,0.279-1.922,0.836
				C117.635,299.854,117.419,300.685,117.419,301.788z"/>
			<path opacity="0.1" fill="#010101" d="M128.091,306.077l-3.25-8.563h1.391l1.844,5.078c0.417,1.188,0.661,1.959,0.734,2.313
				h0.063c0.058-0.275,0.238-0.848,0.543-1.715s0.988-2.759,2.051-5.676h1.391l-3.25,8.563H128.091z"/>
			<path opacity="0.1" fill="#010101" d="M137.849,306.233c-1.266,0-2.265-0.385-2.996-1.156c-0.731-0.771-1.098-1.841-1.098-3.211
				c0-1.38,0.34-2.477,1.02-3.289s1.593-1.219,2.738-1.219c1.073,0,1.922,0.354,2.547,1.059c0.625,0.706,0.938,1.637,0.938,2.793
				v0.82h-5.898c0.026,1.006,0.28,1.769,0.762,2.289c0.481,0.521,1.16,0.781,2.035,0.781c0.922,0,1.833-0.192,2.734-0.578v1.156
				c-0.458,0.198-0.892,0.34-1.301,0.426S138.427,306.233,137.849,306.233z M137.497,298.444c-0.688,0-1.235,0.225-1.645,0.672
				c-0.409,0.448-0.649,1.068-0.723,1.859h4.477c0-0.817-0.183-1.443-0.547-1.879C138.695,298.662,138.174,298.444,137.497,298.444z
				"/>
			<path opacity="0.1" fill="#010101" d="M147.114,297.358c0.38,0,0.722,0.031,1.023,0.094l-0.18,1.203
				c-0.354-0.078-0.667-0.117-0.938-0.117c-0.692,0-1.285,0.281-1.777,0.844s-0.738,1.264-0.738,2.102v4.594h-1.297v-8.563h1.07
				l0.148,1.586h0.063c0.317-0.557,0.7-0.986,1.148-1.289C146.086,297.51,146.578,297.358,147.114,297.358z"/>
			<path opacity="0.1" fill="#010101" d="M148.38,297.515h1.391l1.875,4.883c0.411,1.115,0.667,1.92,0.766,2.414h0.063
				c0.067-0.266,0.21-0.72,0.426-1.363c0.216-0.643,0.923-2.621,2.121-5.934h1.391l-3.68,9.75c-0.364,0.964-0.79,1.647-1.277,2.051
				c-0.487,0.404-1.085,0.605-1.793,0.605c-0.396,0-0.786-0.044-1.172-0.133v-1.039c0.286,0.063,0.606,0.094,0.961,0.094
				c0.891,0,1.526-0.5,1.906-1.5l0.477-1.219L148.38,297.515z"/>
			<path opacity="0.1" fill="#010101" d="M157.614,298.351c0-0.703,0.308-1.055,0.922-1.055c0.641,0,0.961,0.352,0.961,1.055
				c0,0.339-0.086,0.6-0.258,0.781c-0.172,0.183-0.406,0.273-0.703,0.273c-0.266,0-0.485-0.082-0.66-0.246
				S157.614,298.726,157.614,298.351z M157.614,305.249c0-0.349,0.079-0.613,0.238-0.793s0.387-0.27,0.684-0.27
				c0.302,0,0.538,0.09,0.707,0.27s0.254,0.444,0.254,0.793c0,0.339-0.086,0.6-0.258,0.781c-0.172,0.183-0.406,0.273-0.703,0.273
				c-0.266,0-0.485-0.082-0.66-0.246S157.614,305.624,157.614,305.249z"/>
			<path opacity="0.1" fill="#010101" d="M166.411,294.655h3.227c1.516,0,2.612,0.227,3.289,0.68s1.016,1.17,1.016,2.148
				c0,0.678-0.188,1.236-0.566,1.676c-0.378,0.44-0.929,0.726-1.652,0.855v0.078c1.734,0.297,2.602,1.209,2.602,2.734
				c0,1.021-0.345,1.818-1.035,2.391c-0.69,0.573-1.655,0.859-2.895,0.859h-3.984V294.655z M167.739,299.546h2.188
				c0.938,0,1.612-0.146,2.023-0.441c0.411-0.294,0.617-0.79,0.617-1.488c0-0.641-0.229-1.103-0.688-1.387
				c-0.458-0.283-1.188-0.426-2.188-0.426h-1.953V299.546z M167.739,300.671v4.273h2.383c0.922,0,1.616-0.178,2.082-0.535
				c0.466-0.356,0.699-0.915,0.699-1.676c0-0.708-0.238-1.229-0.715-1.563c-0.477-0.333-1.202-0.5-2.176-0.5H167.739z"/>
			<path opacity="0.1" fill="#010101" d="M182.036,306.077h-1.297v-8.563h7.188v8.563h-1.313v-7.438h-4.578V306.077z"/>
			<path opacity="0.1" fill="#010101" d="M198.067,301.788c0,1.396-0.352,2.486-1.055,3.27c-0.703,0.784-1.675,1.176-2.914,1.176
				c-0.766,0-1.445-0.18-2.039-0.539s-1.052-0.875-1.375-1.547s-0.484-1.458-0.484-2.359c0-1.396,0.349-2.482,1.047-3.262
				c0.698-0.778,1.667-1.168,2.906-1.168c1.198,0,2.149,0.398,2.855,1.195S198.067,300.429,198.067,301.788z M191.544,301.788
				c0,1.094,0.219,1.928,0.656,2.5c0.438,0.573,1.081,0.859,1.93,0.859s1.493-0.285,1.934-0.855s0.66-1.404,0.66-2.504
				c0-1.088-0.22-1.915-0.66-2.48c-0.44-0.564-1.09-0.848-1.949-0.848c-0.849,0-1.489,0.279-1.922,0.836
				C191.76,299.854,191.544,300.685,191.544,301.788z"/>
			<path opacity="0.1" fill="#010101" d="M201.56,297.515v5.43l-0.055,1.422l-0.023,0.445l4.633-7.297h1.617v8.563h-1.211v-5.234
				l0.023-1.031l0.039-1.016l-4.625,7.281h-1.617v-8.563H201.56z"/>
			<path opacity="0.1" fill="#010101" d="M213.903,306.233c-1.239,0-2.199-0.381-2.879-1.145c-0.68-0.763-1.02-1.842-1.02-3.238
				c0-1.432,0.345-2.539,1.035-3.32s1.673-1.172,2.949-1.172c0.411,0,0.823,0.045,1.234,0.133c0.411,0.089,0.734,0.193,0.969,0.313
				l-0.398,1.102c-0.286-0.114-0.599-0.209-0.938-0.285c-0.339-0.075-0.638-0.113-0.898-0.113c-1.739,0-2.609,1.109-2.609,3.328
				c0,1.053,0.212,1.859,0.637,2.422s1.054,0.844,1.887,0.844c0.714,0,1.445-0.153,2.195-0.461v1.148
				C215.494,306.085,214.773,306.233,213.903,306.233z"/>
			<path opacity="0.1" fill="#010101" d="M223.091,297.515h1.422l-3.695,4.133l4,4.43h-1.516l-3.906-4.336v4.336h-1.297v-8.563
				h1.297v4.164L223.091,297.515z"/>
			<path opacity="0.1" fill="#010101" d="M231.669,306.077l-0.258-1.219h-0.063c-0.427,0.537-0.853,0.9-1.277,1.09
				c-0.425,0.19-0.954,0.285-1.59,0.285c-0.849,0-1.515-0.219-1.996-0.656s-0.723-1.06-0.723-1.867c0-1.729,1.383-2.635,4.148-2.719
				l1.453-0.047v-0.531c0-0.672-0.145-1.168-0.434-1.488s-0.751-0.48-1.387-0.48c-0.714,0-1.521,0.219-2.422,0.656l-0.398-0.992
				c0.422-0.229,0.884-0.408,1.387-0.539c0.503-0.13,1.007-0.195,1.512-0.195c1.021,0,1.777,0.227,2.27,0.68s0.738,1.18,0.738,2.18
				v5.844H231.669z M228.739,305.163c0.808,0,1.441-0.221,1.902-0.664c0.461-0.442,0.691-1.063,0.691-1.859v-0.773l-1.297,0.055
				c-1.031,0.037-1.774,0.197-2.23,0.48c-0.456,0.284-0.684,0.726-0.684,1.324c0,0.469,0.142,0.826,0.426,1.07
				C227.832,305.041,228.229,305.163,228.739,305.163z"/>
			<path opacity="0.1" fill="#010101" d="M237.364,301.694l-2.977-4.18h1.477l2.258,3.281l2.25-3.281h1.461l-2.977,4.18l3.133,4.383
				h-1.469l-2.398-3.469l-2.422,3.469h-1.469L237.364,301.694z"/>
			<path opacity="0.1" fill="#010101" d="M251.263,306.233c-1.239,0-2.199-0.381-2.879-1.145c-0.68-0.763-1.02-1.842-1.02-3.238
				c0-1.432,0.345-2.539,1.035-3.32s1.673-1.172,2.949-1.172c0.411,0,0.823,0.045,1.234,0.133c0.411,0.089,0.734,0.193,0.969,0.313
				l-0.398,1.102c-0.286-0.114-0.599-0.209-0.938-0.285c-0.339-0.075-0.638-0.113-0.898-0.113c-1.739,0-2.609,1.109-2.609,3.328
				c0,1.053,0.212,1.859,0.637,2.422s1.054,0.844,1.887,0.844c0.714,0,1.445-0.153,2.195-0.461v1.148
				C252.854,306.085,252.133,306.233,251.263,306.233z"/>
			<path opacity="0.1" fill="#010101" d="M254.099,297.515h1.391l1.875,4.883c0.411,1.115,0.667,1.92,0.766,2.414h0.063
				c0.067-0.266,0.21-0.72,0.426-1.363c0.216-0.643,0.923-2.621,2.121-5.934h1.391l-3.68,9.75c-0.364,0.964-0.79,1.647-1.277,2.051
				c-0.487,0.404-1.085,0.605-1.793,0.605c-0.396,0-0.786-0.044-1.172-0.133v-1.039c0.286,0.063,0.606,0.094,0.961,0.094
				c0.891,0,1.526-0.5,1.906-1.5l0.477-1.219L254.099,297.515z"/>
			<path opacity="0.1" fill="#010101" d="M264.817,306.077h-1.297v-8.563h7.188v8.563h-1.313v-7.438h-4.578V306.077z"/>
			<path opacity="0.1" fill="#010101" d="M277.075,306.233c-1.266,0-2.265-0.385-2.996-1.156c-0.731-0.771-1.098-1.841-1.098-3.211
				c0-1.38,0.34-2.477,1.02-3.289s1.593-1.219,2.738-1.219c1.073,0,1.922,0.354,2.547,1.059c0.625,0.706,0.938,1.637,0.938,2.793
				v0.82h-5.898c0.026,1.006,0.28,1.769,0.762,2.289c0.481,0.521,1.16,0.781,2.035,0.781c0.922,0,1.833-0.192,2.734-0.578v1.156
				c-0.458,0.198-0.892,0.34-1.301,0.426S277.653,306.233,277.075,306.233z M276.724,298.444c-0.688,0-1.235,0.225-1.645,0.672
				c-0.409,0.448-0.649,1.068-0.723,1.859h4.477c0-0.817-0.183-1.443-0.547-1.879C277.922,298.662,277.4,298.444,276.724,298.444z"
				/>
			<path opacity="0.1" fill="#010101" d="M286.419,306.233c-0.558,0-1.066-0.103-1.527-0.309c-0.461-0.205-0.848-0.521-1.16-0.949
				h-0.094c0.063,0.5,0.094,0.975,0.094,1.422v3.523h-1.297v-12.406h1.055l0.18,1.172h0.063c0.333-0.469,0.722-0.807,1.164-1.016
				c0.442-0.208,0.95-0.313,1.523-0.313c1.136,0,2.012,0.389,2.629,1.164c0.617,0.776,0.926,1.865,0.926,3.266
				c0,1.406-0.313,2.499-0.941,3.277C288.404,305.845,287.533,306.233,286.419,306.233z M286.231,298.46
				c-0.875,0-1.508,0.242-1.898,0.727s-0.591,1.256-0.602,2.313v0.289c0,1.203,0.2,2.064,0.602,2.582
				c0.401,0.519,1.044,0.777,1.93,0.777c0.739,0,1.319-0.299,1.738-0.898c0.419-0.599,0.629-1.424,0.629-2.477
				c0-1.067-0.21-1.887-0.629-2.457S286.992,298.46,286.231,298.46z"/>
			<path opacity="0.1" fill="#010101" d="M298.622,306.077h-1.313v-7.453h-2.57c-0.141,1.854-0.336,3.326-0.586,4.414
				c-0.25,1.089-0.574,1.886-0.973,2.391c-0.398,0.506-0.905,0.758-1.52,0.758c-0.281,0-0.505-0.031-0.672-0.094v-0.961
				c0.114,0.031,0.245,0.047,0.391,0.047c0.599,0,1.075-0.633,1.43-1.898s0.622-3.188,0.805-5.766h5.008V306.077z"/>
			<path opacity="0.1" fill="#010101" d="M312.396,301.788c0,1.401-0.335,2.492-1.004,3.273s-1.587,1.172-2.754,1.172
				c-1.109,0-1.989-0.348-2.641-1.043s-1.013-1.686-1.086-2.973h-2.242v3.859h-1.297v-8.563h1.297v3.586h2.258
				c0.104-1.188,0.484-2.107,1.141-2.762c0.656-0.653,1.523-0.98,2.602-0.98c1.146,0,2.054,0.397,2.723,1.191
				C312.061,299.345,312.396,300.424,312.396,301.788z M306.255,301.788c0,1.1,0.19,1.934,0.57,2.504s0.989,0.855,1.828,0.855
				c0.823,0,1.429-0.277,1.816-0.832s0.582-1.396,0.582-2.527c0-1.094-0.19-1.922-0.57-2.484s-0.989-0.844-1.828-0.844
				s-1.448,0.281-1.828,0.844S306.255,300.694,306.255,301.788z"/>
			<path opacity="0.1" fill="#010101" d="M322.106,309.038h-1.258v-2.961h-5.984v2.961h-1.25v-4.078h0.672
				c0.698-0.947,1.245-2.06,1.641-3.336c0.396-1.275,0.602-2.646,0.617-4.109h4.336v7.445h1.227V309.038z M319.63,304.96v-6.422
				h-1.922c-0.067,1.156-0.29,2.327-0.668,3.512c-0.378,1.186-0.848,2.155-1.41,2.91H319.63z"/>
			<path opacity="0.1" fill="#010101" d="M327.434,306.233c-1.265,0-2.264-0.385-2.995-1.156c-0.731-0.771-1.098-1.841-1.098-3.211
				c0-1.38,0.34-2.477,1.02-3.289s1.593-1.219,2.737-1.219c1.074,0,1.922,0.354,2.547,1.059c0.625,0.706,0.938,1.637,0.938,2.793
				v0.82h-5.897c0.026,1.006,0.28,1.769,0.762,2.289c0.481,0.521,1.16,0.781,2.034,0.781c0.922,0,1.836-0.192,2.734-0.578v1.156
				c-0.457,0.198-0.891,0.34-1.301,0.426C328.508,306.19,328.012,306.233,327.434,306.233z M327.082,298.444
				c-0.687,0-1.234,0.225-1.644,0.672c-0.409,0.448-0.649,1.068-0.723,1.859h4.476c0-0.817-0.18-1.443-0.547-1.879
				C328.281,298.662,327.762,298.444,327.082,298.444z"/>
			<path opacity="0.1" fill="#010101" d="M334.012,297.515v5.43l-0.055,1.422l-0.023,0.445l4.633-7.297h1.617v8.563h-1.211v-5.234
				l0.023-1.031l0.039-1.016l-4.625,7.281h-1.617v-8.563H334.012z M336.457,296.382c-0.963,0-1.666-0.186-2.109-0.559
				c-0.443-0.372-0.689-0.985-0.742-1.84h1.219c0.047,0.542,0.189,0.92,0.426,1.133c0.236,0.214,0.65,0.32,1.238,0.32
				c0.537,0,0.934-0.114,1.191-0.344c0.258-0.229,0.416-0.599,0.473-1.109h1.227c-0.063,0.823-0.326,1.429-0.789,1.816
				C338.127,296.188,337.416,296.382,336.457,296.382z"/>
		</g>
	</g>
</g>
</svg>
