<?xml version="1.0" encoding="utf-8"?>
<!-- Generator: Adobe Illustrator 16.2.0, SVG Export Plug-In . SVG Version: 6.00 Build 0)  -->
<!DOCTYPE svg PUBLIC "-//W3C//DTD SVG 1.1//EN" "http://www.w3.org/Graphics/SVG/1.1/DTD/svg11.dtd">
<svg version="1.1" id="Layer_1" xmlns="http://www.w3.org/2000/svg" xmlns:xlink="http://www.w3.org/1999/xlink" x="0px" y="0px"
	 width="1144px" height="87px" viewBox="0 0 1144 87" enable-background="new 0 0 1144 87" xml:space="preserve">
<linearGradient id="SVGID_1_" gradientUnits="userSpaceOnUse" x1="0" y1="43.5" x2="1144" y2="43.5">
	<stop  offset="0" style="stop-color:#005E91"/>
	<stop  offset="0.51" style="stop-color:#36A2DB"/>
	<stop  offset="1" style="stop-color:#53C1B3"/>
</linearGradient>
<path opacity="0.5" fill="url(#SVGID_1_)" d="M1143,41v1h-2.176l0,0h-1.006l0,0H1139v-3h-1v1h-3v-1.246l0,0V38h-1v-2h-1v2h-1v1
	h-1.228l0,0H1130v-1h-1v1h-1v-0.208c0,0-2.115,0.005-2.357-0.011c0.037,0.039-0.255,0.219-0.255,0.219H1125v1h-1v-1h-1v1h-1v-2.251
	l0,0V39h-1v-3h-1v2h-2.294l0,0h-1.005l0,0h-1.006l0,0H1115v1.759l0,0V38h-1v-2h-1.32l0,0H1112v2h-1v2h-1v-2h-1.34l0,0H1108v-3.267
	l0,0V36h-1.351l0,0h-1.005l0,0h-1.006l0,0H1104v1h-1v2h-1.376l0,0H1101v-7h-1v6h-1v-2h-2.402l0,0H1096l0,0l0,0v1h-1v1h-1v2h-1v-4h-1
	v1h-1v-5h-1v2h-1v4h-1v-1h-1v-1h-2v1h-1.469l0,0H1083v1h-1.479l0,0H1081l0,0l0,0v-1h-1.489l0,0H1079v-3h-2v3h-1v-2h-0.51l0,0H1074
	v-5h-1v0.713l0,0V32h-1v-5h-1v1h-1v-1h-1v1h-1v-3h-1v-1h-1v1.687l0,0V32h-1v-1h-1v1h-0.571l0,0h-1.013c0,0-0.271-5.209-0.299-5.219
	c-0.023-0.01-1.117-0.36-1.117-0.36V32h-1v-2l0,0l0,0h-1v3h-1v-1h-1v2h-1v1h-1v2h-1v-5h-1v2h-1v1l0,0l0,0h-1v-3h-1v-2h-1v6h-1v-3h-1
	v-1.282l0,0V30h-2v1h-1v-5l0,0l0,0h-1v3h-1v-6.794c0,0-0.671,0.331-0.699,0.343c-0.023,0.011,0.121,6.451,0.121,6.451h-1.111l0,0
	H1039v-1h-1v1h-1v-8.339l0,0V19h-1v2h-1v3h-1v-1h-1v2h-1v-2h-1v7h-1v-2.303l0,0V26h-1v7h-0.751l0,0H1027v2h-1v-4h-1v4.738l0,0V35h-1
	v1h-1v1h-1v-1h-0.787l0,0H1020v-1h-0.797l0,0h-1.006l0,0H1016v2h-1v-5h-1v-2h-1v5h-1v-1h-1v5h-1v-2h-1v-1h-1v-1.267l0,0V34h-1v1h-2
	v2h-1v-8h-1v9l0,0l0,0h-0.885l0,0H1001v-3h-1v-1h-1v1h-1v-1h-1v1h-1v-3.282l0,0V36h-1v1h-1v2h-1v-2h-1v-3h-0.94l0,0H990v1.738l0,0
	V39h-1v-2h-0.956l0,0h-1.005l0,0H986v-1h-2v-1h-1v2.749l0,0V36h-1v3h-1v-1c0-1-1,0-1,0v1h-1v-1h-0.546c0,0-0.206-0.217-0.168-0.267
	c-0.243,0.024-2.286,0.023-2.286,0.023V37h-1.022l0,0H974v1h-1.033l0,0H972l0,0l0,0v-2h-1v-1h-1v1h-1v1.749l0,0V39h-3v-1l0,0l0,0h-1
	v1h-1v1h-1v-1h-1.09l0,0H961v-2h-1v1h-1.105l0,0l0,0l0,0H958v-1h-1v1h-1v2h-1v-2h-1v-3h-1.136l0,0H952v2.749l0,0v1.005l0,0V38h-2.15
	l0,0h-1.006l0,0H948v1h-1.166l0,0H946v0.759l0,0V38h-1.177l0,0H944v-3h-1v2h-1v2h-1v-2h-1v1l0,0l0,0h-1.207l0,0h-1.006l0,0H937v1
	h-1.223l0,0h-1.006l0,0h-1.004l0,0H933v-1h-1v1h-1v-3h-1v1.749l0,0V37h-1.259l0,0H928v-4h-1v1h-1v1h-1v-4h-1v0.718l0,0V31h-1v1h-1
	v-2h-1v-1h-1v1h-1v4l0,0l0,0h-1v1h-2v-1h-0.672c0,0,0.275-3.64,0.247-3.645c-0.024-0.009-0.575,0.038-0.575,0.038V34h-1v-1h-1.341
	l0,0H912v3h-1v-1h-1v0.738l0,0V37h-1v1h-1l0,0l0,0v-3h-1v1h-1v2h-1.382l0,0l0,0l0,0l0,0l0,0H904v-2h-1.393l0,0H902v2h-1v2h-1v-2l0,0
	l0,0h-1v-3h-1v1h-1.423l0,0h-1.005l0,0h-1.006l0,0H894v1h-1v2h-1.449l0,0H891v-7h-1v6h-1v-2h-2.475l0,0H886l0,0l0,0v1h-1v1h-1v2h-1
	v-4h-2v1h-1v-5h-1v2h-1v4h-1v-1h-1v-1h-2v1h-0.541l0,0H872v1h-0.551l0,0l0,0l0,0H870v-1h-0.562l0,0H868v-3h-1v3h-1v-2h-0.582l0,0
	H864v-5.292l0,0V31h-1v1h-1v-5h-1v1h-1v-1h-1v1h-1v-3.318l0,0V24h-1v2h-1v6h-1v-1h-1v1h-0.644l0,0H852.5c0,0-0.311-5.209-0.34-5.219
	c-0.023-0.01-1.16-0.36-1.16-0.36v5.297l0,0V30h-0.659l0,0H849v3h-1v-1h-1v2h-1v1h-1v1.743l0,0V32h-2v1.728l0,0v-2.01l0,0V29h-0.7
	l0,0H841v-6h-1v-4h-1v11h-1v-6h-1v-1.329l0,0V19h-2v2h-1v-8.38l0,0V12h-1v5h-1V5.636c0,0-0.63,0.154-0.656,0.174
	C831.314,5.83,831.509,17,831.509,17H831c-1,0,0,1,0,1h-2v-3h-1v1.641l0,0V3h-1V0h-1v3h-1v6h-1V7h-1v3h-1V6.589l0,0V19h-1v-3h-1v-3
	h-1v12h-0.823l0,0H817v4h-1v-8.339l0,0V30h-1v-1h-1v2h-1v1h-1v-1h-1v-1h-1v-1h-1v-1h-1v1h-2v2h-1v-7h-1v-5h-1v10h-1v-2h-1v7.733l0,0
	V32h-1v-2h-1v-2h-1v-1h-1v1h-2v2.713l0,0V18h-2v16l0,0l0,0l0,0l0,0h-2v-5h-1v-3h-1v2h-1v-1h-1v0.697l0,0V24h-1v7h-1v1h-1v3h-1v-3h-1
	v-5h-1l0,0l0,0v4h-1v5h-1v-4h-1.028l0,0h-1.005l0,0H776v-1h-2v-3.303l0,0V35h-1v-4h-1v5h-1v-3h-1v2.738l0,0V35h-1.465
	c0,0-0.246-0.83-0.208-0.919c-0.241,0.042-2.327-0.395-2.327-0.395V33h-1.096l0,0H763.9l0,0H763v1l0,0l0,0h-1v-3h-1v-3.303l0,0V31
	h-1v2h-1v2h-2v-1h-1v-1h-1v3h-1v2h-1v-2h-1.162l0,0H751v-4h-1v2l0,0l0,0h-1.178l0,0H748v-1h-1v1h-1v3h-1v-3h-1v-6l0,0l0,0h-2v5.728
	l0,0v2.01l0,0V34h-2v-1h-1v0.728l0,0V35h-1v1h-1v2h-1v-4h-1.249l0,0H734v-6h-1v3h-1v5h-1v-1.267l0,0V34h-1v1h-1v-1h-1v1h-1.29l0,0
	H726v1h-1v1h-1v-1h-1v-2h-1v0.733l0,0V30h-1v4h-1v-2h-1.331l0,0H718v-7h-1v0.687l0,0V29h-1v-8h-1v2h-1v-2h-1v1h-1v-3h-1v-2h-1v1.651
	l0,0V27h-1v-1h-1v2h-1v-1h-1.588c0,0,0.232-6.608,0.205-6.619C705.59,20.369,705,20.404,705,20.404V27h-1v-2h-1l0,0l0,0v5h-1v-1h-2
	v1.713l0,0V32h-1v3h-1v-6h-1v2h-1v1h-1v1h-1v-5.303l0,0V25h-1v8h-1v-4h-1v-1h-1v-3h-1v2h-1v-7h-1.496l0,0H685v2.671l0,0v-8.031
	c0,0-0.677-0.012-0.701,0.005C684.271,14.661,684.42,23,684.42,23H683v1h-1v-2h-1v1h-1V13h-1V9.605l0,0V12h-1v5h-1v-1h-1v2h-1v-2h-1
	v9h-1v-3.333l0,0V20h-1v9h-1v1h-1v2h-1v-5h-1v6h-1v-1.282l0,0V31h-1v3h-1v0.733l0,0V34h-1v-1h-0.613l0,0H662v-1h-2v1h-1v1h-1v-6h-1
	v-3h-1v7h-1v-1h-1v4.738l0,0V37h-1v-2h-1v-2h-1v-1.282l0,0V31h-1v0.718l0,0V31h-1v1h-1v0.723l0,0V34h-1V24h-1v11h-0.705l0,0H644
	v0.554c0,0,0,0.001,0,0.003V32h-1v-2h-1v2h-1v-1h-1v1h-1v-3h-1v4.728l0,0v-1.005l0,0V34h-1v0.733l0,0v1.005l0,0V31h-1v3h-1v-3
	h-0.762l0,0H633v3h-1v0.733l0,0V34h-1v0.733l0,0l0,0l0,0V33h-1v-2h-1v-1h-1v4h-1v-2h-1v4.743l0,0V34h-0.809l0,0l0,0l0,0H624l0,0l0,0
	v-6.303l0,0V31h-0.818l0,0h-1.006l0,0H621v-1h-1v2h-1v3.738l0,0V35h-0.844l0,0H617V23h-1v11h-1l0,0l0,0v-3h-2v-1h-1v0.713l0,0V33h-1
	v1h-1v3h-1v-1.262l0,0V31h-1v1h-1v-8h-1v4h-1v6h-1v-2h-1v-1h-2v1h-1v1h-0.941l0,0H598v2h-1v-2.277l0,0V32l0,0l0,0h-1v1h-1v-7h-1v6
	h-1v-3h-0.978l0,0H591V19h-1v1.661l0,0V24h-1v-9h-1v2h-1v-2h-1v1h-1v-5h-1V8h-1v2.61l0,0V22h-1v-1h-1v2h-1v-1h-1.072
	c0,0-0.025-8.746-0.057-8.763c-0.021-0.015-0.871,0.001-0.871,0.001V22h-1v-3l0,0l0,0h-1v7h-1v-2h-1v3h-1v1h-1v5h-1v-9h-1v3h-1v2h-1
	l0,0l0,0v-6h-1v-4h-1v11h-1v-6h-1v-1h-1v-4h-1v2h-1v-8.38l0,0V12h-1v5h-1V5.636c0,0-0.918,0.154-0.945,0.174
	C558.03,5.83,557.931,17,557.931,17H557v1h-1v-3h-1v2h-1V2.569l0,0V0h-1v3h-1v6h-1V7h-1v3h-1V7h-1v12h-1v-3.364l0,0V13h-1v12h-1.219
	l0,0H544v4h-1v-8h-1v8.708l0,0V29h-1v2h-1v1h-1v-1h-1v-1h-1v-1h-1v-1h-2v1h-1v2h-1v-7h-1v-5h-1v10h-1v-2h-1v8h-1v-3h-1v-2h-1v-2.303
	l0,0V27h-1v1h-2v3h-1V18h-1v16l0,0l0,0h-1.353l0,0H518v-5h-1v-3h-1v2h-1v-1h-1v1h-1v-4.323l0,0V31h-1v1h-1v3h-1v-3h-1v-5h-1.409l0,0
	H507v3.713l0,0V36h-1v-4h-1.424l0,0h-1.005l0,0H503v-1h-2v-3h-1v6.733l0,0V31h-1v5h-1v-3h-1v3h-1v-1h-1.03
	c0,0,0.037-0.83,0.073-0.919c-0.242,0.042-2.043-0.395-2.043-0.395V33h-1.491l0,0h-1.005l0,0H489v1h-1l0,0l0,0v-3h-1v-3h-1v3h-1
	v1.723l0,0V35h-3v-1.272l0,0V33h-1v3h-1v2h-1v-2h-0.558l0,0H477v-4h-1v2h-0.573l0,0l0,0l0,0H474v-1h-1v1h-1v3h-1v-3h-1v-6h-0.604
	l0,0H468v5.728l0,0v2.01l0,0V34h-2v-1h-1v1h-1v1h-1v1h-1v2h-1v-4l0,0l0,0h-1v-6h-1v3h-1v5h-1v-1.267l0,0V34h-1v1h-1v-1h-1v1h-0.686
	l0,0H452v1h-1v1h-1v-1h-1v-2h-1v1h-1v-5h-1v3.728l0,0V32h-0.727l0,0H444v-7h-1v1h-1v3h-1v-8h-1v1.671l0,0V21h-1v1h-1v-3h-1v-2h-1v2
	h-1v8h-1v-1.313l0,0V28h-2v-1h-0.151c0,0,0.011-6.608-0.013-6.619c-0.028-0.013-0.836,0.022-0.836,0.022V27h-1v-2h-0.809l0,0H428v5
	h-1v-1h-1v1.713l0,0V32h-1v3h-1v-6h-1v2h-1v1h-1v1h-1v-5h-1v-3h-1v8h-1v-4.298l0,0V28h-1v-3h-1v2h-1v-7h-0.891l0,0H412v2.671l0,0
	v-8.031c0,0-0.96-0.012-0.988,0.005c-0.029,0.016-0.165,8.354-0.165,8.354H410v1h-1v-2h-1v1h-1V13h-1v-3h-1v2h-1v4.641l0,0V16h-1v2
	h-1v-2h-1v9h-1v-3h-1v-2h-1v9h-1v0.708l0,0V32h-1v-5h-1v6h-1v-1h-1v2h-1v0.733l0,0V34h-2v-1l0,0l0,0h-1v-1h-2v1h-2v1h-1v-6.303l0,0
	V25h-1v7h-1v-1h-1v6h-1v-2h-1v-2h-1v-1h-1v-1.287l0,0V32h-2v2h-1V24h-1v13h-1v-1h-2v-4.282l0,0V30h-1v2h-1v-1h-1v1h-1v-3h-1v5h-1
	v0.733l0,0V37h-1v-3h-1v-3h-1.158l0,0H360v3h-1v4h-1v-3l0,0l0,0h-2l0,0l0,0v-1h-2v-2h-1v5h-1v-3h-1v2.743l0,0V36c0-1-1,0-1,0v2h-1
	v-1h-1.122c0,0,0.081-0.682,0.12-0.75C347.758,36.281,346,35.9,346,35.9V35h-2l0,0l0,0v1h-1.25l0,0H342v-2h-1v-2h-1v2h-1v2h-1v1h-2
	v-1h-1v5h-1v1h-1v-1h-3l0,0l0,0v-1l0,0l0,0h-1.322l0,0H328v-1h-1v-1h-1v2l0,0l0,0h-1v-1h-1v-2h-1v-5.282l0,0V36h-1v1h-1v-1h-1v1h-1
	v-2.19c0,0-0.817-0.097-0.852-0.091C318.125,34.72,318.12,37,318.12,37H318v1h-1v-1h-1.389l0,0H315v-3h-1.399l0,0h-1.005l0,0H312v2
	h-1v-1.267l0,0V36h-1v-1h-1v3h-1v-1h-1.435l0,0H306v2h-1.445l0,0H304v0.759l0,0V38h-1v2h-1.46l0,0h-1.005l0,0H300v1h-1v-1h-1.481
	l0,0h-1.005l0,0l0,0l0,0h-2.01l0,0H292v1h-1v-2h-1v-1h-1v2l0,0l0,0h-1v1h-0.533l0,0H286v-1h-0.543l0,0h-1.005l0,0h-1.005l0,0H282v1
	h-1v-3h-1v3h-0.574l0,0H277v-1h-1v-1.246l0,0V40h-0.594l0,0h-1.005l0,0H273v-1h-1v1h-1v1h-0.62l0,0H269l0,0l0,0v-1h-0.63l0,0h-1.005
	l0,0H266v2h-1v-1h-0.65l0,0H263l0,0l0,0v-1h-1.666l0,0H260v1h-1v-1h-1v1h-0.687l0,0H256v0.769l0,0V41h-0.845
	c0,0-0.078-0.147,0.006-0.132c0.086,0.013-2.161-0.016-2.161-0.016V41h-1.717l0,0h-1.005l0,0H249l0,0l0,0v-1h-0.732l0,0h-1.005l0,0
	H246v1h-0.748l0,0h-3.015l0,0H241v2h-1l0,0l0,0v-1h-2.789l0,0H236v1h-1v-9h-1v-2h-1l0,0l0,0v-4h-1v-4h-1v9h-1v-5h-1v-1h-1v-3h-1v2
	h-1v-6h-1v-1.349l0,0V23h-1v-9.08c0,0-0.8,0.24-0.824,0.258c-0.023,0.016-0.002,8.822-0.002,8.822H222v1h-1v-3h-1v2h-1V11.615l0,0V9
	h-1v3h-1v4h-1v-1h-1v2h-1v-2h-1v9h-1v-2.333l0,0V20h-1v9h-0.928l0,0H209v3h-1v-6h-1v7h-1v-1h-1v0.723l0,0V35h-1v-2h-0.963l0,0H202
	v-1h-1v-1h-2v1h-1v2h-1v-6h-1v-4h-1v8h-1v-1h-1v6h-1v-3h-1v-1h-1v-2.287l0,0V30h-1v1h-2v3h-1V23h-1v13h-1.061l0,0H183v-4h-1v-2h-1v1
	h-1.082l0,0h-1.005l0,0H178v-3.303l0,0V34h-1.097l0,0H176v3h-1v-3h-1v-4h-1v1h-1v2h-1v4.749l0,0V34h-1v1h-1v-1h-1.143l0,0H166v-3h-1
	v4.738l0,0v-1.005l0,0V33h-1.164l0,0H163v2.039c-1-0.006-1,0.042-1,0.042v1.662l0,0V35h-1v-1h-1v-1h-1v1h-1v-4h-1l0,0l0,0v2h-1
	v-5.273c0,0-0.979,0.243-1.006,0.253C154.97,26.988,154.81,32,154.81,32h-1.024l0,0H153v-1l0,0l0,0h-1v1h-1v-6.313l0,0V24h-1v2h-1v2
	h-1.246l0,0H147v1h-1v-1h-1v5h-1v-2.287l0,0V30h-1v5h-1.276l0,0H141v2h-1v-3h-1v3h-1.297l0,0H137v0.749l0,0V36h-1v-4h-1v4h-1v1l0,0
	l0,0h-1.323l0,0h-2.01l0,0H130v1h-1v-3h-1v-2h-1v4h-1v-1h-1v4h-1v-2h-1v-1.257l0,0V36h-1.379l0,0l0,0l0,0H121v1h-2v1h-1v-6h-1v7
	h-1.41l0,0H115v-2h-1v-1h-1v1h-1v-1h-1v1h-1v-2.267l0,0V38h-1.446l0,0H108v2h-1v-2h-1v-2h-1.466l0,0H104v0.743l0,0V35h-1v-2h-1v4h-1
	v-2h-1v-1.272l0,0V33h-3v1h-1v-4l0,0l0,0h-1v2h-1v-5.273c0,0-0.563,0.243-0.587,0.253C93.385,26.988,93.649,32,93.649,32h-1.177l0,0
	H91v-1h-1v1h-1v-6.313l0,0V24h-1v2h-1v2h-0.559l0,0H85v1h-1v-1h-1v5h-1v-2.287l0,0V30h-1v5h-0.589l0,0H79v2h-1v-3h-1v3l0,0l0,0h-1v1
	h-0.615l0,0H74.38l0,0H73v-1h-0.63l0,0h-1.005l0,0h-1.005l0,0H68v1h-1v-3h-1v-2h-1v4h-1v-1h-1v4h-1v-2h-1v-1h-1v-1l0,0l0,0h-1v1h-2
	v0.749l0,0V32h-2v7h-0.723l0,0H53v-2h-1v-1h-1v1h-1v-1h-1v1h-1v-2.267l0,0V38h-0.759l0,0H46v2h-1v-2h-1v-2h-0.779l0,0H42v1.749l0,0
	V40h-1v-2h-0.795l0,0H39.2l0,0h-1.005l0,0H36v-1.257l0,0V39h-1v-1h-1v2h-1v-1h-1v1h-1v-1h-0.324c0,0-0.316-0.142-0.278-0.18
	C30.16,38.836,28,38.866,28,38.866V39h-0.861l0,0h-1.005l0,0h-1.005l0,0H24v-1h-1v-1h-1v0.749l0,0V39h-1v1h-3v-1h-1v3h-0.918l0,0
	h-1.005l0,0H13v-1h-1v2H9v-1H8v-1H7v-2H6v-2H5v2H4v4H3.751H0l0,0h3.751H4v4h1v2h1v-2h1v-2h1v-1h1.046l0,0H12v1h1v-1h2.077l0,0h1.005
	l0,0H17v3h1v-1h3v1h1v0.8l0,0V50h1v-2h1v-1h1.128l0,0H26v1h1v-1h1v-0.226c0,0,2.16,0.209,2.398,0.226c-0.038-0.037,0.278,0,0.278,0
	H31v-1h1v1h1v-1h1v2h1v-1h1v2.811l0,0V48h2.195l0,0H39.2l0,0h1.005l0,0H41v-2h1v1.8l0,0V50h1.221l0,0H44v-2h1v-1h1v1h1.241l0,0H48
	v2.815l0,0V50h1.251l0,0h1.005l0,0h1.005l0,0H52v-1h1v-2h1.277l0,0H55v7h2v-6.2l0,0V50h2.303l0,0H60l0,0l0,0v-1h1v-1h1v-1h1v3h1v-1
	h1v4h1v-2h1v-3h1v1h2v1h1v-1h1.37l0,0H73v-1h1.38l0,0h1.005l0,0H76v1h1l0,0l0,0v3h1v-3h1v2h1.411l0,0H81v5h1v-1.164l0,0V53h1v6h1v-2
	h1v2h1v-1h1v3h1v1h1v-2.139l0,0V54h1v1h1v-1h1.472l0,0h1.177c0,0-0.264,4.833-0.236,4.841C93.438,58.852,94,58.914,94,58.914V54h1v2
	h1l0,0l0,0v-4h1v1h3v-1.18l0,0V51h1v-2h1v4h1v-1h1v-3.195l0,0V50h0.534l0,0H106v-2h1v-1h1v1h0.554l0,0H110v2.815l0,0V50h0.564l0,0
	h1.005l0,0h1.005l0,0H114v-1h1v-2h0.59l0,0H117v7h1v-6h1v2h1.616l0,0h1.005l0,0l0,0l0,0H123v-1.195l0,0V48h1v-1h1v3h1v-1h1v4h1v-2h1
	v-3h1v1h1v1h2v-1h1l0,0l0,0v1h1v4h1v-4h1v-2.2l0,0V49h0.703l0,0H139v3h1v-3h1v2h0.724l0,0H143v5h1v-1.164l0,0V53h1v6h1v-2h1v2h1v-1
	h1v3h1v1h1v-2.139l0,0V54h1v1h1l0,0l0,0v-1h0.785l0,0h1.024c0,0,0.16,4.833,0.185,4.841c0.027,0.011,1.006,0.073,1.006,0.073V54h1v2
	l0,0l0,0h1v-4h1v1h1v-1h1v-1h1v-2.195l0,0v1.754c0,0,0,0.05,1,0.044V53h0.836l0,0H165v-1.18l0,0v-2.01l0,0V55h1v-3h1.857l0,0H169v-1
	h1v1h1v-4.2l0,0V53h1v2h1v1h1v-4h1v-3h1v3h0.903l0,0H178v5.852l0,0V55h0.913l0,0h1.005l0,0H181v1h1v-2h1v-4h0.939l0,0H185v13h1V52h1
	v3h2v1h1v-1.164l0,0V53h1v-1h1v-3h1v6h1v-1h1v8h1v-4h1v-6h1v2h1v1h2v-1h1v-1h1.037l0,0H204v-2h1v1.826l0,0V54h1v-1h1v7h1v-6h1v3
	h1.072l0,0H211v9h1v-2.118l0,0V62h1v9h1v-2h1v2h1v-1h1v4h1v3h1v-3.066l0,0V63h1v2h1v-3h1v1h1.174c0,0-0.021,8.625,0.002,8.641
	c0.024,0.017,0.824,0.08,0.824,0.08V63h1v3.897l0,0V66h1v-6h1v2h1v-3h1v-1h1v-5h1v9h1v-4h1v-4l0,0l0,0h1v-2h1v-9h1v1h1.211l0,0H240
	v-1.226l0,0V44h1v1h1.237l0,0h3.015l0,0H246v1h1.262l0,0h1.005l0,0H249v-1l0,0l0,0h1.278l0,0h1.005l0,0H253v-0.211
	c0,0,2.248,0.15,2.161,0.166c-0.084,0.012-0.006,0.045-0.006,0.045H256v-1.221l0,0V45h1.313l0,0H258v1h1v-1h1v1h1.334l0,0H263v-1
	l0,0l0,0h1.35l0,0H265v-1h1v2h1.365l0,0H268v1h1v-2l0,0l0,0h1.38l0,0H271v1h1v1h1v-1h1.401l0,0h1.005l0,0H276v0.795l0,0V46h1v-1
	h2.426l0,0H280v4h1v-3h1.442l0,0H283v1h1v-1h1.457l0,0H286v-1h1.467l0,0H288v1h1l0,0l0,0v2h1v-1h1v-1h1.493l0,0h2.01l0,0h2.01l0,0
	l0,0l0,0h1.005l0,0H299v-1h1v1h0.534l0,0h1.005l0,0H303v2h1v-2.211l0,0V47h0.555l0,0H306v2h0.565l0,0H308v-1h1v3h1v-1h1v0.815l0,0
	V50h1v2h0.596l0,0h1.005l0,0H315v-3h0.611l0,0H317v-1h1v1h0.12c0,0,0.005,2.099,0.028,2.103c0.034,0.005,0.852-0.271,0.852-0.271V49
	h1v1h1v-1h1v1h1v3.83l0,0V50h1v-3h1v-1h1l0,0l0,0v2h1v-1h1v-1h0.678l0,0H330l0,0l0,0v-1l0,0l0,0h3v-1h1v1h1v5h1v-1h2v2h1v1h1v2h1v-2
	h1v-2h1v1h0.755l0,0l0,0l0,0H346v-1.255c0,0,1.758,0.294,1.998,0.325c-0.039-0.066-0.12-0.07-0.12-0.07H349v-2h1v3h1
	c0-1,0-2.195,0-2.195l0,0V53h1v-3h1v4h1v-2h2l0,0l0,0v-1h2l0,0l0,0v-3h1v4h1v3h0.842l0,0H362v-3h1v-3h1v3l0,0l0,0h1v5h1v-3h1v1h1v-1
	h1v2h1v-2.17l0,0V50h1.898l0,0H373v12h1V52h1v2h2v1l0,0l0,0h1v-2h1v-1h1v-3h1v6h1v-1h1v7h1v-3.148l0,0V52h1v1h2v1h2v-1h1l0,0l0,0v-1
	h2v-1.185l0,0V53h1v1h1v-1h1v6h1v-5h1v1.841l0,0V57h1v9h1v-2h1v-3h1v9h1v-2h1v2h1v-1.092l0,0V74h1v2h1v-3h1V63h1v1h1v-2h1v1h0.847
	c0,0,0.136,8.161,0.165,8.176c0.028,0.016,0.988-0.175,0.988-0.175v-8.124l0,0V66h1.109l0,0H414v-7h1v2h1v-3h1v-1.154l0,0V53h1v8h1
	v-3h1v-4h1.15l0,0H422v1h1v3h1v-7h1v3h1v0.836l0,0V58h1v-2h1v5h1.191l0,0H430v-2h1v6.237c0,0,0.808,0.216,0.836,0.202
	c0.023-0.012,0.013-6.439,0.013-6.439H432v-1h2v1.861l0,0V59h1v8h1v2h1v-2h1v-3h1v1h1v-2.123l0,0V65h1v-7h1v2h1v1h1v-7h1.273l0,0
	H446v-2.18l0,0V56h1v-5h1v1h1v-1h1v-2h1v2h1.309l0,0h1.005l0,0H454v1h1v-1h1v1h1v-1.185l0,0V50h1v5h1v3h1v-6h1v0.826l0,0V48h1v2h1v1
	h1v1h1v1h1v-1h2v-2.189l0,0v2.01l0,0V58h1.396l0,0H470v-6h1v-3h1v3h1v1h1v-1h1v0.826l0,0V52h1v3h1v-5h1.442l0,0H479v-2h1v2h1v3h1
	v-1.18l0,0V51h3v1.826l0,0V55h1v3h1v-3h1v-3l0,0l0,0h1v1h1.504l0,0h1.005l0,0H493v-1.046c0,0,1.801,0.241,2.043,0.284
	C495.007,52.15,494.97,52,494.97,52H496v-2h1v3h1v-3h1v6h1v-4.18l0,0V58h1v-3h2v-1h0.571l0,0h1.005l0,0H506v-4h1v5.841l0,0V59h0.591
	l0,0H509v-5h1v-3h1v3h1v1h1v6.871l0,0V58h1v1h1v-1h1v2h1v-3h1v-5h0.647l0,0H520l0,0l0,0v16h1V55h1v3h2v1h1v-1.148l0,0V56h1v-2h1v-3
	h1v8h1v-2h1v10h1v-4h1v-8h1v2h1v1h2v-1h1v-1h0.745l0,0H539v-2h1v2h1v2h1v-2.159l0,0V65h1v-8h1v4h0.781l0,0H546v12h1v-2.082l0,0V67h1
	v12h1v-3h1v3h1v-1h1v5h1v4h1v-4.021l0,0V69h1v2h1v-3h1v1h0.931c0,0,0.1,10.99,0.124,11.011c0.027,0.02,0.945-0.006,0.945-0.006V69h1
	v5h1v-1.072l0,0V65h1v2h1v-4h1v-1h1v-6h1v11h1v-4h1v-6.154l0,0V58h1v1h1v3h1v-8h1v4h1v1h1v3h1v-2h1v7h1l0,0l0,0v-3h1v8.4
	c0,0,0.851,0.199,0.871,0.182c0.031-0.016,0.057-8.582,0.057-8.582H580v-1h1v2h1v-1h1v10.938l0,0V78h1v-3h1v-5h1v2h1v-3h1v3h1V62h1
	v2.887l0,0V67h1v-9h1v-1h1v-3h1v6h1v-7h1v2h1v-1.17l0,0v-1.004l0,0V52h1v1h1v1h1.063l0,0H601v1h2v-1h1v-2h1v7h1v3h1v-8h1v2h1v-6.189
	l0,0V49h1v3h1v2h1v0.836l0,0V56h1v-1h2v-3l0,0l0,0h1v11h1V51h1.156l0,0H619v-1.189l0,0V54h1v3h1v-2h1v1h1v-1h1v2.852l0,0V51.82l0,0
	V53h1v-1l0,0l0,0h1v-2.189l0,0V54h1v-2h1v4h1v-1h1v-2h1v-2.185l0,0l0,0l0,0V52h1v-1.185l0,0V52h1v3h1.238l0,0H635v-3h1v3h1v-5.189
	l0,0V52l0,0l0,0h1v0.826l0,0V51.82l0,0V57h1v-3h1v1h1v-1h1v2h1v-2h1v-3.917c0,0.003,0,0.005,0,0.005V51h1.295l0,0H646v11h1V52h1
	v0.826l0,0V54h1v1h1v-1.17l0,0V55h1l0,0l0,0v-2h1v-1h1v-3h1v0.811l0,0V55h1v-1h1v7h1v-3h1v-6h1v1h1v1h2v-1h1.387l0,0H664v-1h1
	v-1.185l0,0V53h1v2h1v-1.17l0,0V53h1v6h1v-5h1v2h1v1h1v9h1v-2.118l0,0V61h1v9h1v-2h1v2h1v-1h1v5h1v1.943l0,0V73h1V63h1v1h1v-2h1v1
	h1.42c0,0-0.148,8.161-0.121,8.176c0.024,0.016,0.701-0.175,0.701-0.175v-8.124l0,0V66h1.504l0,0H688v-7h1v2h1v-3h1v-1h1v-4h1v8h1
	v-3.148l0,0V54h0.546l0,0H696v1h1v3h1v-7h1v3h1v0.836l0,0V58h2v-2h1v5l0,0l0,0h1v-2h1v6.237c0,0,0.59,0.216,0.617,0.202
	c0.027-0.012-0.205-6.439-0.205-6.439H707v-1h1v2h1v-1h1v7.897l0,0V69h1v-2h1v-3h1v1h1v-2h1v2h1v-7h1v1.861l0,0V61h1v-7h0.669l0,0
	H720v-2h1v4h1v-5.185l0,0V52h1v-1h1v-2h1v2h0.705l0,0h1.005l0,0H728v1h1v-1h1v1h1v-1.185l0,0V50h1v5h1v3h1v-6h1v1h1v-5h1v2h1v1h1
	v0.82l0,0V53h1v-1h2v-2.189l0,0v2.01l0,0V58h2l0,0l0,0v-6h1v-3h1v3h1v1h1v-1h1v1h1v-1.18l0,0V55h1v-5h0.838l0,0H753v-2h1v2h1v3h1v-1
	h1v-1h2v2h1v2h1v2.852l0,0V55h1v-3h1l0,0l0,0v1h0.9l0,0h1.004l0,0H766v-1.046c0,0,2.086,0.241,2.327,0.284
	C768.289,52.15,768.535,52,768.535,52H770v-2.189l0,0V53h1v-3h1v6h1v-4h1v5.852l0,0V55h2v-1h0.967l0,0h1.005l0,0H779v-4h1v6h1v3l0,0
	l0,0h1v-5h1v-3h1v3h1v1h1v7h1v-4.148l0,0V59h1v-1h1v2h1v-3h1v-5h2l0,0l0,0l0,0l0,0v16h2V54.836l0,0V58h2v1h1v-1h1v-2h1v-2h1v-3.185
	l0,0V59h1v-2h1v10h1v-4h1v-8h1v2h2v1h1v-1h1v-1h1.141l0,0H812v-2h1v2h1v2h1v-2h1v8.887l0,0V57h1v4h1.177l0,0H819v12h1v-2h1v-4h1
	v11.959l0,0V76h1v3h1v-1h1v5h1v4h1v-4h1V68.908l0,0V71h1v-3h2c0,0-1,1,0,1h0.509c0,0-0.194,10.99-0.165,11.011
	c0.026,0.02,0.656-0.006,0.656-0.006V69h1v5h1v-1.072l0,0V65h1v2h2v-4.123l0,0V62h1v-6h1v11h1v-4h1v-6h1v1h1v-4.17l0,0v-2.01l0,0V54
	h2v-5.195l0,0V51h1v1h1v2h1v-1h1v3h1v1h1v-2.164l0,0v4.386c0,0,1.137,0.327,1.16,0.319C852.189,59.53,852.5,55,852.5,55h0.5v-1h1v1
	h1.367l0,0H856v6h1v1h1v-1.133l0,0V58h1v1h1v-1h1v1h1v-5h1v1h1v0.841l0,0V51h1.418l0,0H866v-2h1v4h1v-4h1.438l0,0h1.005l0,0H871
	v-1.2l0,0V49h1.454l0,0h1.005l0,0H874v1h2v-1h1v-1h1v4h1v2h1v-5h1v1h2v-3h1v1h1v1h1v1l0,0l0,0h0.525l0,0H889v-2h1v6h1v-7h0.551l0,0
	H893v2h1v2h1v-1h0.572l0,0h1.005l0,0H898v1h1v-3h1l0,0l0,0v-1h1v1h1v2h0.607l0,0H904v-1h1v-1l0,0l0,0l0,0l0,0h1v2h1v1h1v-3l0,0l0,0
	h1v1h1v0.811l0,0V51h1v-1h1v3h0.659l0,0H914v-1h1v3.25c0,0,0.551,0.224,0.575,0.216c0.028-0.007-0.247-3.466-0.247-3.466H916v-1h2v1
	h1l0,0l0,0v4h1v2h1v-1h1v-2h0.711l0,0H924v-1.17l0,0V55h1v-4h1v1h1v1h1v-4h0.741l0,0H930v-1.2l0,0V50h1v-3h1v1h1v-1h0.768l0,0h1.004
	l0,0h1.006l0,0H937v1h0.787l0,0h1.006l0,0H940l0,0l0,0v1h1v-2h1v3h1v1h1v-3h0.823l0,0H946v-2.211l0,0V47h0.834l0,0H948v1h0.844l0,0
	h1.006l0,0H952v-1.205l0,0V47.8l0,0V52h1v-1h1v-3h1v-2h1v2h1v1h1v-1h0.895l0,0l0,0l0,0H960v1h1v-2h0.91l0,0H963v-1h1v1h1v2h1v-1.2
	l0,0V47h3v1.805l0,0V50h1v1h1v-1h1v-2l0,0l0,0h1v1h0.973l0,0h1.005l0,0H976v-1.115c0,0,2.043,0.178,2.286,0.201
	c-0.038-0.049,0.168-0.086,0.168-0.086H979v-1h1v2h1c0-1,0-2,0-2h1v3h1v-2.2l0,0V51h1v-1h2v-1h1.039l0,0h1.005l0,0H989v-2h1v2.811
	l0,0V52h1.06l0,0H992v-3h1v-2h1v2h1v1h1v3.83l0,0V51h1v1h1v-1h1v1h1v-1h1v-3h1.115l0,0H1003l0,0l0,0v9h1v-7h1v1h2v1h1v-1.185l0,0V50
	h1v-1h1v-2h1v5h1v-1h1v5h1v-2h1v-4h1v1h2.197l0,0h1.006l0,0H1020v-1h1.213l0,0H1022v-1h1v1h1v1h1v-1.189l0,0V55h1v-4h1v2h1.249l0,0
	H1029v7h1v-2.148l0,0V56h1v7h1v-2h1v2h1v-1h1v3h1v2h1v-2.113l0,0V58h1v1h1v-2h1.311l0,0h1.111c0,0-0.145,6.262-0.121,6.271
	c0.028,0.012,0.699,0.164,0.699,0.164V58h1v2h1l0,0l0,0v-5h1v1h2v-2.17l0,0V53h1v-3h1v6h1v-2h1v-3h1l0,0l0,0v1h1v2h1v-5h1v2h1v1h1v2
	h1v-1h1v3h1v0.846l0,0V55h1v4.222c0,0,1.094,0.327,1.117,0.319c0.028-0.011,0.299-4.541,0.299-4.541H1063v-1h1v1h1.439l0,0H1066
	v5.867l0,0V62h1v-1h1v-3h1v1h1v-1h1v1h1v-5h1v0.836l0,0V56h1v-5h1.49l0,0h0.51v-2h1v4h2v-4h0.511l0,0H1081l0,0l0,0v-1h1v1h0.526l0,0
	h1.005l0,0H1085v1h2v-1h1v-1h1v4h1v2h1v-5h1v1h1v-3h1v1h1v1h1v1l0,0l0,0h0.598l0,0H1099v-2h1v6h1v-7h0.624l0,0H1103v2h1v2h1v-1
	h0.645l0,0h1.005l0,0H1108v0.815l0,0V48h0.66l0,0h1.34v-1h1v1h1v2h0.68l0,0h1.32v-1h1v-3.211l0,0V48h0.695l0,0h1.006l0,0h1.005l0,0
	H1120v2h1v-3h1v1.805l0,0V46h1v1h1v-1h1v1h0.388c0,0,0.292,0.001,0.255,0.039c0.242-0.02,2.357-0.191,2.357-0.191V47h1v1h1v-1h0.772
	l0,0H1132v2h1v1h1v-2h1v-1l0,0l0,0h2.809l0,0H1139v-3h0.818l0,0h1.006l0,0H1143v1h1v-1.648V42.29V41H1143z"/>
</svg>
