<?xml version="1.0" encoding="utf-8"?>
<!-- Generator: Adobe Illustrator 16.2.0, SVG Export Plug-In . SVG Version: 6.00 Build 0)  -->
<!DOCTYPE svg PUBLIC "-//W3C//DTD SVG 1.1//EN" "http://www.w3.org/Graphics/SVG/1.1/DTD/svg11.dtd">
<svg version="1.1" id="Layer_1" xmlns="http://www.w3.org/2000/svg" xmlns:xlink="http://www.w3.org/1999/xlink" x="0px" y="0px"
	 width="231.454px" height="54.141px" viewBox="0 0 231.454 54.141" enable-background="new 0 0 231.454 54.141"
	 xml:space="preserve">
<g>
	<g>
		<g>
			<g>
				<g>
					<g>
						<path fill="#FFFFFF" d="M84.541,42.672c0.828,0.692,1.244,1.762,1.244,3.203c0,1.447-0.422,2.502-1.27,3.174
							c-0.85,0.67-2.148,1.008-3.9,1.008h-2.113v3.496H76.49V41.63h4.094C82.391,41.63,83.709,41.977,84.541,42.672z M83.115,47.592
							c0.404-0.428,0.605-1.054,0.605-1.877c0-0.825-0.256-1.408-0.766-1.75c-0.514-0.338-1.314-0.51-2.406-0.51h-2.047v4.775h2.336
							C81.951,48.231,82.713,48.017,83.115,47.592z"/>
						<path fill="#FFFFFF" d="M94.979,53.553V41.63h2.012v10.012h5.443v1.911H94.979z"/>
						<path fill="#FFFFFF" d="M113.141,50.842l-1.193,2.711h-2.148l5.253-11.923h2.149l5.252,11.923h-2.148l-1.193-2.711H113.141z
							 M118.291,48.98l-2.164-4.908l-2.167,4.908H118.291z"/>
						<path fill="#FFFFFF" d="M134.752,53.553h-2.046v-4.708l-4.437-7.215h2.201l3.258,5.425l3.257-5.425h2.2l-4.434,7.215V53.553z"
							/>
						<path fill="#FFFFFF" d="M155.9,41.63v1.896h-6.363v3.152h5.717v1.79h-5.717v3.19h6.568v1.895h-8.58V41.63H155.9z"/>
						<path fill="#FFFFFF" d="M175.02,45.501c0,1.97-0.857,3.206-2.574,3.72l3.121,4.332h-2.56l-2.847-4.008h-2.646v4.008h-2.011
							V41.63h4.435c1.818,0,3.121,0.31,3.904,0.921C174.627,43.167,175.02,44.149,175.02,45.501z M172.341,47.19
							c0.409-0.352,0.616-0.919,0.616-1.697c0-0.779-0.213-1.314-0.634-1.603c-0.417-0.29-1.171-0.435-2.251-0.435h-2.559v4.264
							h2.508C171.158,47.719,171.934,47.543,172.341,47.19z"/>
					</g>
				</g>
				<g>
					<g>
						<path fill="#FFFFFF" d="M92.488,5.112c1.678,1.43,2.52,3.623,2.52,6.58s-0.865,5.12-2.588,6.492
							c-1.727,1.37-4.357,2.055-7.898,2.055h-3.188v6.68h-5.34V2.976h8.458C88.13,2.976,90.809,3.687,92.488,5.112z M88.563,14.536
							c0.641-0.721,0.961-1.77,0.961-3.153c0-1.381-0.416-2.365-1.25-2.946c-0.834-0.581-2.129-0.872-3.887-0.872h-3.053v8.049h3.6
							C86.715,15.615,87.925,15.254,88.563,14.536z"/>
						<path fill="#FFFFFF" d="M119.875,2.976v4.759h-11.92v4.934h10.723v4.555h-10.723v4.971h12.297v4.725h-17.643V2.976H119.875z"
							/>
						<path fill="#FFFFFF" d="M139.438,22.195c2.625,0,4.771-1.042,6.439-3.12l3.426,3.529c-2.718,3.06-5.922,4.59-9.609,4.59
							c-3.688,0-6.727-1.165-9.112-3.495c-2.387-2.33-3.58-5.271-3.58-8.821c0-3.553,1.215-6.515,3.647-8.892
							c2.433-2.374,5.408-3.562,8.925-3.562c3.93,0,7.214,1.495,9.868,4.488l-3.323,3.769c-1.691-2.102-3.793-3.151-6.307-3.151
							c-2.009,0-3.727,0.656-5.156,1.97c-1.426,1.313-2.14,3.083-2.14,5.31c0,2.226,0.673,4.013,2.022,5.359
							C135.887,21.518,137.518,22.195,139.438,22.195z"/>
						<path fill="#FFFFFF" d="M156.943,2.976h5.344v9.831l9.045-9.831h6.613l-9.524,10.582c0.823,1.146,2.341,3.273,4.558,6.389
							c2.215,3.121,3.869,5.445,4.967,6.973h-6.236l-7.022-9.456l-2.399,2.674v6.782h-5.344V2.976z"/>
						<path fill="#FFFFFF" d="M201.958,2.976v4.759h-11.921v4.934h10.723v4.555h-10.723v4.971h12.3v4.725h-17.646V2.976H201.958z"/>
						<path fill="#FFFFFF" d="M229.947,10.923c0,3.834-1.52,6.313-4.555,7.431l6.062,8.566h-6.577l-5.311-7.64h-3.699v7.64h-5.344
							V2.976h9.078c3.721,0,6.377,0.628,7.967,1.881C229.154,6.114,229.947,8.135,229.947,10.923z M223.508,13.764
							c0.663-0.595,0.992-1.535,0.992-2.825c0-1.292-0.344-2.176-1.027-2.655c-0.686-0.479-1.884-0.718-3.596-0.718h-4.01v7.089
							h3.906C221.6,14.654,222.844,14.359,223.508,13.764z"/>
					</g>
				</g>
			</g>
			<path fill="#FFFFFF" d="M42,40.141v-7.248c0-8.683-2.404-15.137-5.764-19.366c-2.463-3.097-6.337-5.05-10.89-5.878
				c2.253-1.49,4.37-2.904,6.71-4.252c1.502-0.86,0.058-3.181-1.447-2.316c-2.923,1.684-5.827,3.471-8.606,5.383
				c0.804-1.481,1.587-2.962,2.392-4.443c0.827-1.519-1.502-2.876-2.328-1.354c-1.189,2.186-2.381,4.372-3.57,6.557
				C11.81,7.428,7.675,9.456,4.357,13.357C0.858,17.475,0,24.043,0,33.063v21.078h58v-14H42z M20.492,45.168L7.774,23.141h25.435
				L20.492,45.168z"/>
		</g>
	</g>
</g>
</svg>
