<?xml version="1.0" encoding="utf-8"?>
<!-- Generator: Adobe Illustrator 16.2.0, SVG Export Plug-In . SVG Version: 6.00 Build 0)  -->
<!DOCTYPE svg PUBLIC "-//W3C//DTD SVG 1.1//EN" "http://www.w3.org/Graphics/SVG/1.1/DTD/svg11.dtd">
<svg version="1.1" id="Layer_1" xmlns="http://www.w3.org/2000/svg" xmlns:xlink="http://www.w3.org/1999/xlink" x="0px" y="0px"
	 width="277.335px" height="44.191px" viewBox="0 0 277.335 44.191" enable-background="new 0 0 277.335 44.191"
	 xml:space="preserve">
<g>
	<g>
		<g>
			<g>
				<g>
					<g>
						<path fill="#FFFFFF" d="M29.425,4.796c2.996,2.55,4.493,6.464,4.493,11.74s-1.542,9.132-4.617,11.579
							c-3.075,2.443-7.771,3.666-14.09,3.666H9.525v11.918H0V0.985h15.089C21.652,0.985,26.427,2.254,29.425,4.796z M22.422,21.607
							c1.139-1.284,1.713-3.156,1.713-5.621c0-2.466-0.743-4.222-2.229-5.258c-1.484-1.039-3.799-1.555-6.935-1.555H9.525v14.362
							h6.424C19.127,23.536,21.284,22.887,22.422,21.607z"/>
						<path fill="#FFFFFF" d="M78.283,0.985v8.488H57.018v8.805h19.132v8.124H57.018v8.867h21.938v8.43H47.48V0.985H78.283z"/>
						<path fill="#FFFFFF" d="M113.183,35.27c4.684,0,8.514-1.859,11.487-5.566L130.783,36c-4.849,5.461-10.564,8.191-17.144,8.191
							c-6.581,0-12-2.078-16.256-6.238c-4.258-4.156-6.386-9.402-6.386-15.735c0-6.338,2.168-11.621,6.506-15.859
							C101.842,2.121,107.151,0,113.425,0c7.01,0,12.867,2.668,17.604,8.007l-5.929,6.724c-3.018-3.749-6.766-5.62-11.25-5.62
							c-3.582,0-6.648,1.169-9.199,3.515c-2.541,2.344-3.817,5.5-3.817,9.473c0,3.969,1.2,7.158,3.61,9.559
							C106.848,34.063,109.759,35.27,113.183,35.27z"/>
						<path fill="#FFFFFF" d="M144.411,0.985h9.533v17.536l16.137-17.536h11.797l-16.992,18.876
							c1.469,2.044,4.178,5.842,8.129,11.398c3.953,5.566,6.902,9.713,8.863,12.439h-11.129L158.226,26.83l-4.281,4.771v12.098
							h-9.533V0.985z"/>
						<path fill="#FFFFFF" d="M224.718,0.985v8.488h-21.27v8.805h19.127v8.124h-19.127v8.867h21.943v8.43h-31.479V0.985H224.718z"/>
						<path fill="#FFFFFF" d="M274.647,15.162c0,6.84-2.711,11.262-8.127,13.258l10.814,15.279h-11.732l-9.475-13.631h-6.602v13.631
							h-9.531V0.985h16.195c6.637,0,11.375,1.122,14.209,3.354C273.233,6.584,274.647,10.189,274.647,15.162z M263.159,20.23
							c1.184-1.06,1.77-2.736,1.77-5.041s-0.613-3.882-1.828-4.733c-1.229-0.857-3.365-1.282-6.416-1.282h-7.158V21.82h6.969
							C259.757,21.82,261.976,21.293,263.159,20.23z"/>
					</g>
				</g>
			</g>
		</g>
	</g>
</g>
</svg>
