<?xml version="1.0" encoding="utf-8"?>
<!-- Generator: Adobe Illustrator 16.2.0, SVG Export Plug-In . SVG Version: 6.00 Build 0)  -->
<!DOCTYPE svg PUBLIC "-//W3C//DTD SVG 1.1//EN" "http://www.w3.org/Graphics/SVG/1.1/DTD/svg11.dtd">
<svg version="1.1" id="Layer_1" xmlns="http://www.w3.org/2000/svg" xmlns:xlink="http://www.w3.org/1999/xlink" x="0px" y="0px"
	 width="95.426px" height="15.205px" viewBox="0 0 95.426 15.205" enable-background="new 0 0 95.426 15.205" xml:space="preserve">
<g>
	<g>
		<g>
			<g>
				<g>
					<g>
						<path fill="#349ED8" d="M10.125,1.65c1.029,0.877,1.546,2.224,1.546,4.039s-0.53,3.143-1.589,3.984
							c-1.059,0.841-2.674,1.262-4.848,1.262H3.277v4.101H0V0.339h5.192C7.45,0.339,9.094,0.775,10.125,1.65z M7.715,7.435
							c0.393-0.442,0.59-1.086,0.59-1.935c0-0.848-0.256-1.452-0.768-1.809C7.025,3.334,6.23,3.156,5.15,3.156H3.277v4.941h2.21
							C6.58,8.098,7.324,7.875,7.715,7.435z"/>
						<path fill="#349ED8" d="M26.936,0.339V3.26h-7.317v3.029H26.2v2.795h-6.582v3.052h7.549v2.9H16.336V0.339H26.936z"/>
						<path fill="#349ED8" d="M38.943,12.136c1.611,0,2.93-0.64,3.953-1.915L45,12.387c-1.668,1.879-3.635,2.818-5.898,2.818
							c-2.266,0-4.129-0.716-5.594-2.146c-1.465-1.431-2.197-3.235-2.197-5.415c0-2.181,0.746-3.999,2.238-5.457
							C35.042,0.729,36.868,0,39.027,0c2.412,0,4.427,0.918,6.057,2.755l-2.039,2.313c-1.039-1.29-2.328-1.934-3.871-1.934
							c-1.232,0-2.287,0.402-3.165,1.209c-0.875,0.807-1.313,1.893-1.313,3.26c0,1.365,0.413,2.463,1.242,3.289
							C36.764,11.721,37.766,12.136,38.943,12.136z"/>
						<path fill="#349ED8" d="M49.689,0.339h3.279v6.034l5.553-6.034h4.059l-5.847,6.495c0.505,0.703,1.438,2.01,2.798,3.922
							c1.359,1.915,2.375,3.342,3.049,4.28h-3.828l-4.31-5.805l-1.474,1.642v4.163h-3.279V0.339z"/>
						<path fill="#349ED8" d="M77.32,0.339V3.26h-7.318v3.029h6.582v2.795h-6.582v3.052h7.551v2.9H66.722V0.339H77.32z"/>
						<path fill="#349ED8" d="M94.5,5.217c0,2.354-0.932,3.875-2.796,4.562l3.722,5.258h-4.037l-3.26-4.69h-2.271v4.69h-3.279V0.339
							h5.572c2.283,0,3.914,0.386,4.889,1.154C94.014,2.266,94.5,3.506,94.5,5.217z M90.549,6.961
							c0.405-0.365,0.607-0.941,0.607-1.734s-0.21-1.336-0.629-1.629c-0.422-0.295-1.158-0.441-2.207-0.441h-2.463v4.352h2.398
							C89.377,7.508,90.141,7.326,90.549,6.961z"/>
					</g>
				</g>
			</g>
		</g>
	</g>
</g>
</svg>
